<svg id="Layer_1" data-name="Layer 1" xmlns="http://www.w3.org/2000/svg" viewBox="0 0 801 333"><defs><style>.cls-1{fill:#102232;}.cls-2{fill:#ffb100;}.cls-3{fill:#ffe454;}.cls-4{fill:#ffce00;}.cls-5{fill:#fff;}</style></defs><title>404_emoji</title><path class="cls-1" d="M214.6,249.94H180.35v59H121.58v-59H.15V208.1L124.89,24.39h55.46V203.23H214.6Zm-93-46.71V155q0-12.06,1-35t1.55-26.66h-1.55a218.56,218.56,0,0,1-17.32,31.14L53.08,203.23Z"/><path class="cls-1" d="M801,249.94H766.75v59H708v-59H586.54V208.1L711.29,24.39h55.46V203.23H801Zm-93-46.71V155q0-12.06,1-35t1.56-26.66H709a216.62,216.62,0,0,1-17.32,31.14l-52.15,78.81Z"/><path class="cls-2" d="M534.63,102.17A157.83,157.83,0,0,1,489.52,254c-14.57,18.73-39.43,28.21-41,28a157.85,157.85,0,0,1-152.8-10.3A148.25,148.25,0,0,0,400.47,315c82,0,148.7-66.71,148.7-148.71A147.75,147.75,0,0,0,534.63,102.17Z"/><path class="cls-3" d="M414.85,35a157,157,0,0,1,86.48,22.13A148.11,148.11,0,0,0,400.47,17.57c-82,0-148.7,66.71-148.7,148.7a147.87,147.87,0,0,0,16.94,68.88A157.77,157.77,0,0,1,414.85,35Z"/><ellipse class="cls-4" cx="401.73" cy="161.03" rx="156.78" ry="134.8" transform="translate(32.25 386.42) rotate(-53.23)"/><path class="cls-1" d="M400.47-.46c-91.93,0-166.73,74.8-166.73,166.73S308.54,333,400.47,333,567.2,258.21,567.2,166.27,492.4-.46,400.47-.46Zm0,315.44a148.78,148.78,0,0,1-148.7-148.71c0-82,66.7-148.7,148.7-148.7a148.74,148.74,0,0,1,148.7,148.7C549.17,248.27,482.46,315,400.47,315Z"/><circle class="cls-1" cx="340.16" cy="137.9" r="17.74"/><circle class="cls-1" cx="464.31" cy="137.9" r="17.74"/><rect class="cls-5" x="311.78" y="199.09" width="177.36" height="60.3" rx="19.06"/><rect class="cls-1" x="311.78" y="222.15" width="177.36" height="14.19"/><rect class="cls-1" x="340.16" y="198.2" width="14.19" height="60.3"/><rect class="cls-1" x="374.45" y="198.2" width="14.19" height="60.3"/><rect class="cls-1" x="408.74" y="198.2" width="14.19" height="60.3"/><rect class="cls-1" x="443.03" y="198.2" width="14.19" height="60.3"/><path class="cls-1" d="M459,266.49H341.93a37.25,37.25,0,0,1,0-74.49H459a37.25,37.25,0,1,1,0,74.49Zm-117.06-60.3a23.06,23.06,0,0,0,0,46.11H459a23.06,23.06,0,1,0,0-46.11Z"/></svg>