<?xml version="1.0" encoding="utf-8"?>
<!-- Generator: Adobe Illustrator 22.1.0, SVG Export Plug-In . SVG Version: 6.00 Build 0)  -->
<svg version="1.1" id="Layer_1" xmlns="http://www.w3.org/2000/svg" xmlns:xlink="http://www.w3.org/1999/xlink" x="0px" y="0px"
	 viewBox="0 0 69.4 92.5" style="enable-background:new 0 0 69.4 92.5;" xml:space="preserve">
<style type="text/css">
	.st0{fill:#32709E;}
	.st1{fill:#FFFFFF;}
</style>
<title>clipboard-focus</title>
<path class="st0" d="M69.3,20.2v63.4c0,4.8-3.9,8.7-8.7,8.7H8.7c-4.8,0-8.7-3.9-8.7-8.7V20.2c0-4.8,3.9-8.7,8.7-8.7h14.4
	C23.1,5.1,28.3,0,34.6,0C41,0,46.1,5.2,46.1,11.5h14.4C65.3,11.5,69.2,15.4,69.3,20.2z M34.7,7.3c-2.4,0-4.3,1.9-4.3,4.3
	s1.9,4.3,4.3,4.3S39,14,39,11.6l0,0C39,9.2,37.1,7.3,34.7,7.3C34.7,7.3,34.7,7.3,34.7,7.3 M52,27.8v-3.6c0-0.6-0.5-1.1-1.1-1.1H18.5
	c-0.6,0-1.1,0.5-1.1,1.1v3.6c0,0.6,0.5,1.1,1.1,1.1h32.4C51.5,28.9,52,28.4,52,27.8z"/>
<path class="st1" d="M29.1,67.2l-9.9-9.9c-0.6-0.6-0.6-1.5,0-2.1c0,0,0,0,0,0l2.1-2.2c0.6-0.6,1.6-0.6,2.1,0l6.6,6.6l14.2-14.2
	c0.6-0.6,1.6-0.6,2.2,0l2.1,2.2c0.6,0.6,0.6,1.5,0,2.1c0,0,0,0,0,0L31.2,67.2C30.6,67.8,29.7,67.8,29.1,67.2z"/>
</svg>
