<svg id="Layer_1" data-name="Layer 1" xmlns="http://www.w3.org/2000/svg" viewBox="0 0 69.4 92.5"><defs><style>.cls-1{fill:#32709e;}.cls-2{fill:#4bb749;}</style></defs><title>clipboard-focus</title><path class="cls-1" d="M69.3,20.2V83.6a8.71,8.71,0,0,1-8.7,8.7H8.7A8.71,8.71,0,0,1,0,83.6V20.2a8.71,8.71,0,0,1,8.7-8.7H23.1a11.5,11.5,0,0,1,23,0H60.5A8.86,8.86,0,0,1,69.3,20.2ZM34.7,7.3A4.3,4.3,0,1,0,39,11.6a4.27,4.27,0,0,0-4.3-4.3M52,27.8V24.2a1.11,1.11,0,0,0-1.1-1.1H18.5a1.11,1.11,0,0,0-1.1,1.1v3.6a1.11,1.11,0,0,0,1.1,1.1H50.9A1.11,1.11,0,0,0,52,27.8Z"/><path class="cls-2" d="M29.08,67.21l-9.85-9.86a1.51,1.51,0,0,1,0-2.14l2.14-2.15a1.53,1.53,0,0,1,2.15,0l6.63,6.64L44.37,45.48a1.53,1.53,0,0,1,2.15,0l2.14,2.15a1.51,1.51,0,0,1,0,2.14L31.23,67.21a1.53,1.53,0,0,1-2.15,0Z"/></svg>