<?xml version="1.0" encoding="utf-8"?>
<!-- Generator: Adobe Illustrator 22.1.0, SVG Export Plug-In . SVG Version: 6.00 Build 0)  -->
<svg version="1.1" id="Layer_1" xmlns="http://www.w3.org/2000/svg" xmlns:xlink="http://www.w3.org/1999/xlink" x="0px" y="0px"
	 viewBox="0 0 69.4 92.5" style="enable-background:new 0 0 69.4 92.5;" xml:space="preserve">
<style type="text/css">
	.st0{fill:#4D8FCC;}
</style>
<title>copy-to-clipboard</title>
<path class="st0" d="M69.3,20.2v63.4c0,4.8-3.9,8.7-8.7,8.7H8.7c-4.8,0-8.7-3.9-8.7-8.7V20.2c0-4.8,3.9-8.7,8.7-8.7h14.4
	c0-6.4,5.2-11.5,11.5-11.5s11.5,5.2,11.5,11.5h14.4C65.4,11.6,69.3,15.5,69.3,20.2z M34.7,7.3c-2.4,0-4.3,1.9-4.3,4.3
	s1.9,4.3,4.3,4.3S39,14,39,11.6S37.1,7.3,34.7,7.3 M52,27.8v-3.6c0-0.6-0.5-1.1-1.1-1.1H18.5c-0.6,0-1.1,0.5-1.1,1.1v3.6
	c0,0.6,0.5,1.1,1.1,1.1h32.4C51.5,28.9,52,28.4,52,27.8z"/>
</svg>
