<svg id="Layer_1" data-name="Layer 1" xmlns="http://www.w3.org/2000/svg" xmlns:xlink="http://www.w3.org/1999/xlink" viewBox="0 0 1856.39 1318.33"><defs><style>.cls-1,.cls-13,.cls-16,.cls-17,.cls-18,.cls-7,.cls-8,.cls-9{fill:none;}.cls-2{fill:#39b54a;}.cls-12,.cls-3,.cls-5,.cls-6{fill:#fff;}.cls-4{fill:#08141c;}.cls-12,.cls-13,.cls-16,.cls-5,.cls-6,.cls-7{stroke:#08141c;}.cls-12,.cls-13,.cls-16,.cls-17,.cls-18,.cls-5,.cls-6,.cls-7,.cls-8,.cls-9{stroke-miterlimit:10;}.cls-5{stroke-width:9.66px;}.cls-17,.cls-18,.cls-6,.cls-7,.cls-8,.cls-9{stroke-width:11px;}.cls-17,.cls-18,.cls-8,.cls-9{stroke:#4d8fcc;stroke-linecap:round;}.cls-9{stroke-dasharray:3.2 1.6;}.cls-10,.cls-11{fill:#4d8fcc;}.cls-11{opacity:0.15;}.cls-12,.cls-16{stroke-width:9.48px;}.cls-13{stroke-width:10.09px;}.cls-14{fill:#999;}.cls-15{clip-path:url(#clip-path);}.cls-17{stroke-dasharray:3.18 1.59;}.cls-18{stroke-dasharray:3.22 1.61;}</style><clipPath id="clip-path"><circle class="cls-1" cx="945.04" cy="973.06" r="187.46"/></clipPath></defs><title>secretless_architecture</title><path d="M1523.72,1238.8h-7.56v-29.4h-9.7v-6.3h27v6.3h-9.7Z"/><path d="M1555.66,1238.8l-1.44-3.71h-.2a10.91,10.91,0,0,1-3.87,3.28,12.47,12.47,0,0,1-5.19.92,8.35,8.35,0,0,1-6.18-2.25,8.62,8.62,0,0,1-2.26-6.4c0-2.89,1-5,3-6.4s5.08-2.14,9.16-2.29l4.74-.14v-1.2q0-4.15-4.25-4.15a19.36,19.36,0,0,0-7.69,2l-2.46-5a22.09,22.09,0,0,1,10.44-2.47c3.67,0,6.47.8,8.43,2.39s2.93,4,2.93,7.28v18.19Zm-2.2-12.65-2.88.1a9.28,9.28,0,0,0-4.83,1.17,3.69,3.69,0,0,0-1.59,3.27q0,3.15,3.61,3.15a5.68,5.68,0,0,0,4.14-1.49,5.23,5.23,0,0,0,1.55-3.95Z"/><path d="M1583.76,1211a11.67,11.67,0,0,1,2.51.22l-.56,7a8.64,8.64,0,0,0-2.2-.24,7.9,7.9,0,0,0-5.55,1.83,6.61,6.61,0,0,0-2,5.13v13.89h-7.45v-27.3h5.64l1.1,4.59h.37a10.25,10.25,0,0,1,3.43-3.7A8.48,8.48,0,0,1,1583.76,1211Z"/><path d="M1615,1211.5v3.79l-4.27,1.1a7.43,7.43,0,0,1,1.17,4.1,8.29,8.29,0,0,1-3.06,6.85q-3.06,2.45-8.51,2.45l-1.34-.07-1.1-.13a2.48,2.48,0,0,0-1.15,2c0,1.07,1.37,1.61,4.1,1.61h4.64q4.5,0,6.85,1.93a6.88,6.88,0,0,1,2.36,5.66,8.39,8.39,0,0,1-4,7.42q-4,2.64-11.46,2.64-5.71,0-8.73-2a6.32,6.32,0,0,1-3-5.58,5.8,5.8,0,0,1,1.54-4.12,8.68,8.68,0,0,1,4.51-2.37,5.06,5.06,0,0,1-2-1.6,3.95,3.95,0,0,1,0-5,10.48,10.48,0,0,1,2.61-2,7.27,7.27,0,0,1-3.4-3,9,9,0,0,1-1.26-4.83,8.55,8.55,0,0,1,2.9-6.91q2.91-2.45,8.31-2.44a21,21,0,0,1,2.72.21q1.58.21,2,.3Zm-21.07,31.15a2.7,2.7,0,0,0,1.48,2.42,8.09,8.09,0,0,0,4.14.88,14.66,14.66,0,0,0,6.27-1.1c1.52-.73,2.27-1.73,2.27-3a2.11,2.11,0,0,0-1.34-2.12,10.78,10.78,0,0,0-4.15-.59h-3.86a5.88,5.88,0,0,0-3.43,1A3,3,0,0,0,1593.91,1242.65Zm2.71-22.21a5.51,5.51,0,0,0,1,3.51,3.65,3.65,0,0,0,3.09,1.3,3.59,3.59,0,0,0,3.07-1.3,5.69,5.69,0,0,0,1-3.51q0-4.93-4-4.93T1596.62,1220.44Z"/><path d="M1631.83,1239.29q-6.6,0-10.3-3.64t-3.71-10.3q0-6.87,3.43-10.61t9.48-3.75q5.79,0,9,3.3t3.22,9.1V1227h-17.6a7.17,7.17,0,0,0,1.88,5,6.59,6.59,0,0,0,4.93,1.78,20.54,20.54,0,0,0,4.66-.51,23.51,23.51,0,0,0,4.59-1.63v5.76a17.59,17.59,0,0,1-4.17,1.45A26.12,26.12,0,0,1,1631.83,1239.29Zm-1-23a4.71,4.71,0,0,0-3.71,1.5,6.91,6.91,0,0,0-1.54,4.26H1636a6.18,6.18,0,0,0-1.44-4.26A4.88,4.88,0,0,0,1630.78,1216.29Z"/><path d="M1660.52,1233.35a16.06,16.06,0,0,0,4.68-.85V1238a16.67,16.67,0,0,1-6.83,1.25c-3,0-5.15-.76-6.51-2.26s-2-3.77-2-6.78v-13.16h-3.56v-3.15l4.1-2.49,2.15-5.76h4.76v5.81h7.64v5.59h-7.64v13.16a2.94,2.94,0,0,0,.89,2.35A3.53,3.53,0,0,0,1660.52,1233.35Z"/><path d="M1705.36,1228.89a9.18,9.18,0,0,1-3.48,7.61q-3.47,2.79-9.67,2.79a22.77,22.77,0,0,1-10.11-2.15v-7a42.14,42.14,0,0,0,6.11,2.27,18.12,18.12,0,0,0,4.58.66,6.47,6.47,0,0,0,3.82-1,3.23,3.23,0,0,0,1.33-2.83,3.14,3.14,0,0,0-.58-1.87,6.72,6.72,0,0,0-1.73-1.57,44.32,44.32,0,0,0-4.62-2.42,21.93,21.93,0,0,1-4.91-3,11.08,11.08,0,0,1-2.61-3.3,9.41,9.41,0,0,1-1-4.39,9.23,9.23,0,0,1,3.21-7.45q3.21-2.71,8.88-2.71a21,21,0,0,1,5.31.66,36.48,36.48,0,0,1,5.28,1.86l-2.44,5.88a36.15,36.15,0,0,0-4.72-1.64,15.71,15.71,0,0,0-3.68-.46,4.88,4.88,0,0,0-3.29,1,3.29,3.29,0,0,0-1.15,2.61,3.24,3.24,0,0,0,.46,1.75,5.1,5.1,0,0,0,1.48,1.44,45.57,45.57,0,0,0,4.8,2.5q5,2.4,6.86,4.8A9.34,9.34,0,0,1,1705.36,1228.89Z"/><path d="M1723.6,1239.29q-6.58,0-10.3-3.64t-3.71-10.3q0-6.87,3.43-10.61c2.28-2.5,5.45-3.75,9.48-3.75q5.79,0,9,3.3t3.22,9.1V1227h-17.6a7.17,7.17,0,0,0,1.88,5,6.61,6.61,0,0,0,4.93,1.78,20.63,20.63,0,0,0,4.67-.51,24,24,0,0,0,4.59-1.63v5.76a17.82,17.82,0,0,1-4.18,1.45A26.12,26.12,0,0,1,1723.6,1239.29Zm-1-23a4.73,4.73,0,0,0-3.71,1.5,7,7,0,0,0-1.54,4.26h10.45a6.18,6.18,0,0,0-1.44-4.26A4.88,4.88,0,0,0,1722.55,1216.29Z"/><path d="M1756,1211a11.84,11.84,0,0,1,2.52.22l-.56,7a8.75,8.75,0,0,0-2.2-.24,7.91,7.91,0,0,0-5.56,1.83,6.64,6.64,0,0,0-2,5.13v13.89h-7.45v-27.3h5.64l1.1,4.59h.36a10.33,10.33,0,0,1,3.43-3.7A8.51,8.51,0,0,1,1756,1211Z"/><path d="M1770,1238.8l-10.4-27.3h7.79l5.27,15.56a27.56,27.56,0,0,1,1.1,5.59h.14a24.72,24.72,0,0,1,1.1-5.59l5.25-15.56H1788l-10.4,27.3Z"/><path d="M1791.62,1204.45q0-3.65,4.05-3.64t4,3.64a3.55,3.55,0,0,1-1,2.7,4.26,4.26,0,0,1-3,1Q1791.62,1208.11,1791.62,1204.45Zm7.76,34.35h-7.44v-27.3h7.44Z"/><path d="M1818.28,1239.29q-12.75,0-12.74-14,0-7,3.46-10.64t9.94-3.67a18.85,18.85,0,0,1,8.49,1.86l-2.19,5.76c-1.17-.47-2.27-.86-3.27-1.16a10.59,10.59,0,0,0-3-.45q-5.82,0-5.81,8.25,0,8,5.81,8a13,13,0,0,0,4-.58,14.38,14.38,0,0,0,3.66-1.79v6.37a12,12,0,0,1-3.65,1.59A20.7,20.7,0,0,1,1818.28,1239.29Z"/><path d="M1845.26,1239.29q-6.6,0-10.31-3.64t-3.71-10.3q0-6.87,3.43-10.61t9.49-3.75q5.79,0,9,3.3t3.22,9.1V1227h-17.6a7.17,7.17,0,0,0,1.88,5,6.59,6.59,0,0,0,4.93,1.78,20.54,20.54,0,0,0,4.66-.51,23.51,23.51,0,0,0,4.59-1.63v5.76a17.59,17.59,0,0,1-4.17,1.45A26.12,26.12,0,0,1,1845.26,1239.29Zm-1-23a4.71,4.71,0,0,0-3.71,1.5,6.91,6.91,0,0,0-1.54,4.26h10.45a6.23,6.23,0,0,0-1.44-4.26A4.88,4.88,0,0,0,1844.21,1216.29Z"/><path d="M1684.94,776.36c-89.34,0-159,30.6-159,69.55v252c0,38.95,70.11,69.55,159,69.55s159.06-30.6,159.06-69.55V846.31C1844,807,1774.29,776.36,1684.94,776.36Zm145,321.93c0,27-58.5,55.64-145,55.64s-145-29-145-55.64v-54.85c24.44,24.25,79.73,40.54,145,40.54s120.6-16.29,145-40.54Zm0-83.86c0,27-58.5,55.64-145,55.64s-145-29-145-55.64V959.18c24.44,24.25,79.73,40.94,145,40.94s120.6-16.29,145-40.54Zm0-84.26c0,27-58.5,55.64-145,55.64s-145-29-145-55.64V875.32c24.84,24.25,79.73,40.54,145,40.54s120.6-16.29,145-40.54Zm-145-28.22c-86.93,0-145-29-145-55.64s58.5-55.64,145-55.64,145,29,145,55.64S1771.88,902,1684.94,902Z"/><path class="cls-2" d="M1473.4,1080a25.35,25.35,0,0,1-25.32-25.32V982.25a25.19,25.19,0,0,1,16.3-23.69V942.23a34.89,34.89,0,0,1,34.85-34.85h21.89A34.9,34.9,0,0,1,1556,942.23V959a25.19,25.19,0,0,1,15.16,23.23v72.41a25.35,25.35,0,0,1-25.32,25.32Zm36.21-80.52a7.33,7.33,0,0,0-7.32,7.32,7.23,7.23,0,0,0,3.06,5.94l3.69,2.65-.71,4.47a1.11,1.11,0,0,0,0,.17v16.47a1,1,0,0,0,1,1h.67a1,1,0,0,0,1-1V1020s-.73-4.62-.73-4.62l3.69-2.65a7.23,7.23,0,0,0,3.06-5.94A7.33,7.33,0,0,0,1509.61,999.46Zm20.52-42.54V942.23a9,9,0,0,0-9-9h-21.89a9,9,0,0,0-9,9v14.69Z"/><path class="cls-3" d="M1521.12,914.75a27.51,27.51,0,0,1,27.49,27.48V964.5a18,18,0,0,1,15.16,17.75v72.41a18,18,0,0,1-18,18H1473.4a18,18,0,0,1-18-18V982.25a18,18,0,0,1,16.3-17.89V942.23a27.51,27.51,0,0,1,27.49-27.48h21.89m-38.26,49.53h54.63v-22a16.38,16.38,0,0,0-16.37-16.37h-21.89a16.38,16.38,0,0,0-16.37,16.37v22m26.41,80.52h.67a8.32,8.32,0,0,0,8.32-8.32V1020a7.83,7.83,0,0,0-.11-1.29,14.68,14.68,0,1,0-17.09,0,7.83,7.83,0,0,0-.11,1.29v16.49a8.32,8.32,0,0,0,8.32,8.32M1521.12,900h-21.89A42.26,42.26,0,0,0,1457,942.23V954a32.68,32.68,0,0,0-16.31,28.29v72.41a32.73,32.73,0,0,0,32.69,32.68h72.41a32.73,32.73,0,0,0,32.69-32.68V982.25a32.74,32.74,0,0,0-15.17-27.6V942.23A42.26,42.26,0,0,0,1521.12,900Zm-23.54,49.54v-7.33a1.66,1.66,0,0,1,1.65-1.64h21.89a1.66,1.66,0,0,1,1.64,1.64v7.33Z"/><rect class="cls-4" x="768.5" y="312.83" width="346" height="53" rx="12.73" ry="12.73"/><rect class="cls-5" x="730.25" y="4.83" width="420" height="337.25" rx="29.18" ry="29.18"/><circle class="cls-6" cx="939.81" cy="204.69" r="95.86"/><line class="cls-7" x1="940.69" y1="109.72" x2="939.81" y2="302.33"/><line class="cls-7" x1="1036.56" y1="206.47" x2="843.94" y2="205.58"/><line class="cls-7" x1="1008.03" y1="274.44" x2="872.47" y2="137.61"/><line class="cls-7" x1="1008.66" y1="138.24" x2="871.84" y2="273.81"/><circle class="cls-6" cx="939.81" cy="204.69" r="38.61"/><path d="M898.59,36.1h7.65L894.1,71.8h-8.25L873.74,36.1h7.64l6.72,21.24c.37,1.26.76,2.72,1.16,4.39s.64,2.83.74,3.48a63.15,63.15,0,0,1,1.83-7.87Z"/><path d="M927.48,71.8,926,68.09h-.2A10.91,10.91,0,0,1,922,71.37a12.53,12.53,0,0,1-5.19.92A8.39,8.39,0,0,1,910.59,70a8.66,8.66,0,0,1-2.26-6.4,7.19,7.19,0,0,1,3-6.4c2-1.38,5.08-2.14,9.16-2.29l4.74-.14v-1.2q0-4.15-4.25-4.15a19.36,19.36,0,0,0-7.69,2l-2.47-5a22.16,22.16,0,0,1,10.45-2.47c3.67,0,6.47.8,8.43,2.39s2.93,4,2.93,7.28V71.8Zm-2.2-12.65-2.88.1a9.35,9.35,0,0,0-4.84,1.17A3.7,3.7,0,0,0,916,63.69q0,3.15,3.61,3.15a5.72,5.72,0,0,0,4.14-1.49,5.23,5.23,0,0,0,1.55-3.95Z"/><path d="M959.68,71.8l-1-3.49h-.39a7.84,7.84,0,0,1-3.4,2.94,11.58,11.58,0,0,1-5,1q-4.82,0-7.25-2.58T940.2,62.3V44.5h7.44v16a7.68,7.68,0,0,0,1.05,4.43A3.84,3.84,0,0,0,952,66.35a5,5,0,0,0,4.51-2.08c.93-1.4,1.39-3.7,1.39-6.93V44.5h7.45V71.8Z"/><path d="M980.65,71.8H973.2v-38h7.45Z"/><path d="M1000,66.35a16.12,16.12,0,0,0,4.69-.85V71a16.75,16.75,0,0,1-6.84,1.25c-3,0-5.14-.76-6.5-2.26s-2-3.77-2-6.78V50.09H985.7V46.94l4.1-2.49L992,38.69h4.76V44.5h7.65v5.59h-7.65V63.25a2.91,2.91,0,0,0,.9,2.35A3.51,3.51,0,0,0,1000,66.35Z"/><line class="cls-8" x1="942" y1="396.33" x2="942" y2="397.93"/><line class="cls-9" x1="942" y1="399.53" x2="941.57" y2="604.98"/><line class="cls-8" x1="941.57" y1="605.78" x2="941.57" y2="607.38"/><polygon class="cls-10" points="921.23 591.89 941.58 600.59 961.97 591.98 941.5 640.22 921.23 591.89"/><polygon class="cls-3" points="925.5 461.83 963.5 501.71 963.5 544.83 914.5 498.48 925.5 461.83"/><path class="cls-4" d="M1002.35,523.93a5.5,5.5,0,0,0-7.78,0l-11.49,11.49L975,527.29,994.22,508a5.5,5.5,0,0,0-7.78-7.78l-19.27,19.27L917.7,470a33.24,33.24,0,1,0-7.78,7.78l81.65,81.64a5.5,5.5,0,0,0,7.78-7.78l-8.49-8.48,11.49-11.49A5.5,5.5,0,0,0,1002.35,523.93ZM874.9,466.48a22.25,22.25,0,1,1,31.46,0A22.27,22.27,0,0,1,874.9,466.48Z"/><rect class="cls-11" y="689.33" width="1267" height="629" rx="32.55" ry="32.55"/><rect class="cls-12" x="104" y="791.33" width="480.82" height="365.5" rx="22.32" ry="22.32"/><line class="cls-13" x1="104" y1="865.33" x2="586.5" y2="865.33"/><circle class="cls-4" cx="144" cy="827.33" r="8.5"/><circle class="cls-4" cx="167.88" cy="827.33" r="8.5"/><circle class="cls-4" cx="191.76" cy="827.33" r="8.5"/><rect class="cls-14" x="132" y="894.33" width="205.86" height="14"/><rect class="cls-10" x="343.7" y="894.33" width="68.97" height="14"/><rect class="cls-10" x="419.04" y="894.33" width="25.47" height="14"/><rect class="cls-10" x="449.81" y="894.33" width="98.69" height="14"/><rect class="cls-10" x="397.82" y="919.53" width="97.68" height="14" transform="translate(893.32 1853.06) rotate(180)"/><rect class="cls-14" x="323.01" y="919.53" width="68.97" height="14" transform="translate(714.99 1853.06) rotate(180)"/><rect class="cls-10" x="291.17" y="919.53" width="25.47" height="14" transform="translate(607.81 1853.06) rotate(180)"/><rect class="cls-10" x="132" y="919.53" width="153.87" height="14" transform="translate(417.87 1853.06) rotate(180)"/><rect class="cls-14" x="132" y="944.73" width="205.86" height="14"/><rect class="cls-10" x="343.7" y="944.73" width="68.97" height="14"/><rect class="cls-10" x="419.04" y="944.73" width="25.47" height="14"/><rect class="cls-10" x="132" y="969.93" width="205.86" height="14"/><rect class="cls-10" x="343.7" y="969.93" width="68.97" height="14"/><rect class="cls-14" x="419.04" y="969.93" width="25.47" height="14"/><rect class="cls-14" x="449.81" y="969.93" width="98.69" height="14"/><rect class="cls-10" x="132" y="995.13" width="205.86" height="14"/><rect class="cls-10" x="343.7" y="995.13" width="68.97" height="14"/><rect class="cls-10" x="419.04" y="995.13" width="25.47" height="14"/><rect class="cls-10" x="323.01" y="1020.33" width="181.99" height="14" transform="translate(828 2054.66) rotate(180)"/><rect class="cls-14" x="291.17" y="1020.33" width="25.47" height="14" transform="translate(607.81 2054.66) rotate(180)"/><rect class="cls-14" x="132" y="1020.33" width="153.87" height="14" transform="translate(417.87 2054.66) rotate(180)"/><path d="M319,1238.8l-2.59-8.5h-13l-2.59,8.5H292.7L305.3,1203h9.25l12.65,35.84ZM314.65,1224q-3.6-11.54-4-13.06c-.31-1-.52-1.8-.65-2.39q-.81,3.12-4.62,15.45Z"/><path d="M346.09,1239.29a9.06,9.06,0,0,1-7.54-3.49h-.39c.26,2.27.39,3.59.39,4v11.06H331.1V1211.5h6.06l1,3.54h.34a8.61,8.61,0,0,1,7.74-4,8.88,8.88,0,0,1,7.57,3.74q2.73,3.74,2.73,10.37a20.51,20.51,0,0,1-1.28,7.59,10.66,10.66,0,0,1-3.65,4.91A9.33,9.33,0,0,1,346.09,1239.29Zm-2.2-22.34a4.68,4.68,0,0,0-4,1.69c-.85,1.14-1.29,3-1.32,5.61v.8q0,4.4,1.3,6.3a4.66,4.66,0,0,0,4.14,1.91q5,0,5-8.26a11.69,11.69,0,0,0-1.24-6A4.21,4.21,0,0,0,343.89,1217Z"/><path d="M377.73,1239.29a9.07,9.07,0,0,1-7.54-3.49h-.39c.26,2.27.39,3.59.39,4v11.06h-7.45V1211.5h6.06l1.05,3.54h.34a8.61,8.61,0,0,1,7.74-4,8.88,8.88,0,0,1,7.57,3.74q2.73,3.74,2.73,10.37a20.51,20.51,0,0,1-1.28,7.59,10.66,10.66,0,0,1-3.65,4.91A9.33,9.33,0,0,1,377.73,1239.29ZM375.54,1217a4.7,4.7,0,0,0-4,1.69c-.85,1.14-1.29,3-1.32,5.61v.8q0,4.4,1.3,6.3a4.68,4.68,0,0,0,4.14,1.91q5,0,5-8.26a11.69,11.69,0,0,0-1.24-6A4.2,4.2,0,0,0,375.54,1217Z"/><circle class="cls-3" cx="945.04" cy="973.06" r="187.46"/><path class="cls-4" d="M982,1078.34a8.22,8.22,0,0,0-8.22-8.22H949.52v-17.18h40.72a8.22,8.22,0,0,0,0-16.44H949.52v-118a49.68,49.68,0,1,0-16.44,0v186a8.22,8.22,0,0,0,16.44,0v-17.93H973.8A8.22,8.22,0,0,0,982,1078.34Zm-74-208.85a33.25,33.25,0,1,1,33.25,33.24A33.29,33.29,0,0,1,908.05,869.49Z"/><g class="cls-15"><rect class="cls-2" x="747.87" y="939.82" width="390.95" height="66.49"/></g><path class="cls-3" d="M858.08,985l-3.18-5,8.86-5.42-8.86-5.42,3.18-5,8.55,5V958.8H873v10.38l8.56-5,3.18,5-8.87,5.42,8.87,5.42-3.18,5L873,980V990.4h-6.41V980Z"/><path class="cls-3" d="M895.68,985l-3.18-5,8.86-5.42-8.86-5.42,3.18-5,8.55,5V958.8h6.41v10.38l8.56-5,3.18,5-8.87,5.42,8.87,5.42-3.18,5-8.56-5V990.4h-6.41V980Z"/><path class="cls-3" d="M933.28,985l-3.18-5L939,974.6l-8.86-5.42,3.18-5,8.55,5V958.8h6.41v10.38l8.56-5,3.18,5-8.87,5.42L960,980l-3.18,5-8.56-5V990.4h-6.41V980Z"/><path class="cls-3" d="M970.88,985l-3.18-5,8.86-5.42-8.86-5.42,3.18-5,8.55,5V958.8h6.41v10.38l8.56-5,3.18,5-8.87,5.42,8.87,5.42-3.18,5-8.56-5V990.4h-6.41V980Z"/><path class="cls-3" d="M1008.48,985l-3.18-5,8.86-5.42-8.86-5.42,3.18-5,8.55,5V958.8h6.41v10.38l8.56-5,3.18,5-8.87,5.42,8.87,5.42-3.18,5-8.56-5V990.4H1017V980Z"/><circle class="cls-16" cx="945.04" cy="973.06" r="187.46"/><path d="M792.37,1228.89a9.21,9.21,0,0,1-3.48,7.61q-3.48,2.79-9.68,2.79a22.77,22.77,0,0,1-10.11-2.15v-7a42.58,42.58,0,0,0,6.11,2.27,18.12,18.12,0,0,0,4.58.66,6.45,6.45,0,0,0,3.82-1,3.23,3.23,0,0,0,1.33-2.83,3.14,3.14,0,0,0-.58-1.87,6.83,6.83,0,0,0-1.72-1.57,46,46,0,0,0-4.63-2.42,21.93,21.93,0,0,1-4.91-3,11.08,11.08,0,0,1-2.61-3.3,9.41,9.41,0,0,1-1-4.39,9.23,9.23,0,0,1,3.21-7.45c2.15-1.81,5.1-2.71,8.88-2.71a20.94,20.94,0,0,1,5.31.66,36.58,36.58,0,0,1,5.29,1.86l-2.45,5.88a36.15,36.15,0,0,0-4.72-1.64,15.7,15.7,0,0,0-3.67-.46,4.89,4.89,0,0,0-3.3,1,3.29,3.29,0,0,0-1.15,2.61,3.25,3.25,0,0,0,.47,1.75,4.93,4.93,0,0,0,1.47,1.44,46.69,46.69,0,0,0,4.8,2.5c3.34,1.6,5.62,3.2,6.86,4.8A9.35,9.35,0,0,1,792.37,1228.89Z"/><path d="M810.6,1239.29q-6.58,0-10.3-3.64t-3.71-10.3q0-6.87,3.43-10.61t9.48-3.75q5.79,0,9,3.3t3.23,9.1V1227H804.13a7.17,7.17,0,0,0,1.88,5,6.63,6.63,0,0,0,4.94,1.78,20.61,20.61,0,0,0,4.66-.51,24,24,0,0,0,4.59-1.63v5.76a17.67,17.67,0,0,1-4.18,1.45A26.12,26.12,0,0,1,810.6,1239.29Zm-1.05-23a4.73,4.73,0,0,0-3.71,1.5,7,7,0,0,0-1.54,4.26h10.45a6.18,6.18,0,0,0-1.44-4.26A4.88,4.88,0,0,0,809.55,1216.29Z"/><path d="M838.88,1239.29q-12.75,0-12.75-14,0-7,3.47-10.64t9.93-3.67a18.92,18.92,0,0,1,8.5,1.86l-2.2,5.76c-1.17-.47-2.26-.86-3.27-1.16a10.59,10.59,0,0,0-3-.45q-5.81,0-5.81,8.25,0,8,5.81,8a13,13,0,0,0,4-.58,14.44,14.44,0,0,0,3.67-1.79v6.37a12.22,12.22,0,0,1-3.65,1.59A20.7,20.7,0,0,1,838.88,1239.29Z"/><path d="M872.83,1238.8l-1-3.49h-.39a7.87,7.87,0,0,1-3.39,2.94,11.63,11.63,0,0,1-5,1q-4.8,0-7.25-2.58c-1.62-1.72-2.44-4.19-2.44-7.41v-17.8h7.45v16a7.68,7.68,0,0,0,1.05,4.43,3.82,3.82,0,0,0,3.34,1.47,5,5,0,0,0,4.52-2.08c.93-1.4,1.39-3.7,1.39-6.93V1211.5h7.45v27.3Z"/><path d="M901.59,1211a11.84,11.84,0,0,1,2.52.22l-.56,7a8.7,8.7,0,0,0-2.2-.24,7.87,7.87,0,0,0-5.55,1.83,6.61,6.61,0,0,0-2,5.13v13.89h-7.45v-27.3H892l1.1,4.59h.36a10.33,10.33,0,0,1,3.43-3.7A8.51,8.51,0,0,1,901.59,1211Z"/><path d="M921.42,1239.29q-6.6,0-10.3-3.64t-3.72-10.3q0-6.87,3.43-10.61t9.49-3.75q5.79,0,9,3.3t3.22,9.1V1227H915a7.17,7.17,0,0,0,1.88,5,6.59,6.59,0,0,0,4.93,1.78,20.54,20.54,0,0,0,4.66-.51,23.51,23.51,0,0,0,4.59-1.63v5.76a17.59,17.59,0,0,1-4.17,1.45A26.12,26.12,0,0,1,921.42,1239.29Zm-1-23a4.71,4.71,0,0,0-3.71,1.5,6.91,6.91,0,0,0-1.54,4.26h10.45a6.18,6.18,0,0,0-1.44-4.26A4.88,4.88,0,0,0,920.37,1216.29Z"/><path d="M952.18,1203.1h11.11q7.59,0,11,2.17t3.43,6.87a8.68,8.68,0,0,1-1.5,5.25,6,6,0,0,1-4,2.46v.25a7.85,7.85,0,0,1,4.89,2.83,9.21,9.21,0,0,1,1.5,5.52,9.08,9.08,0,0,1-3.52,7.61q-3.52,2.75-9.58,2.74H952.18Zm7.57,14.14h4.39a8.1,8.1,0,0,0,4.46-1,3.56,3.56,0,0,0,1.38-3.15,3.14,3.14,0,0,0-1.5-2.94,9.6,9.6,0,0,0-4.75-.89h-4Zm0,6v9.3h4.93a7.29,7.29,0,0,0,4.61-1.2,4.4,4.4,0,0,0,1.49-3.66q0-4.44-6.34-4.44Z"/><path d="M1000.42,1211a11.84,11.84,0,0,1,2.52.22l-.56,7a8.75,8.75,0,0,0-2.2-.24,7.91,7.91,0,0,0-5.56,1.83,6.64,6.64,0,0,0-2,5.13v13.89h-7.44v-27.3h5.64l1.1,4.59h.36a10.33,10.33,0,0,1,3.43-3.7A8.51,8.51,0,0,1,1000.42,1211Z"/><path d="M1032.7,1225.1q0,6.68-3.52,10.43t-9.79,3.76a13.75,13.75,0,0,1-6.93-1.72,11.53,11.53,0,0,1-4.62-5,16.66,16.66,0,0,1-1.61-7.52q0-6.69,3.49-10.4t9.82-3.71a13.75,13.75,0,0,1,6.93,1.71,11.49,11.49,0,0,1,4.62,4.91A16.5,16.5,0,0,1,1032.7,1225.1Zm-18.87,0a11.43,11.43,0,0,0,1.33,6.13,4.76,4.76,0,0,0,4.33,2.08,4.67,4.67,0,0,0,4.28-2.07,11.61,11.61,0,0,0,1.31-6.14,11.27,11.27,0,0,0-1.32-6.08,5.62,5.62,0,0,0-8.62,0A11.34,11.34,0,0,0,1013.83,1225.1Z"/><path d="M1046,1224l3.25-4.15,7.64-8.3h8.4l-10.84,11.84,11.5,15.46h-8.59l-7.87-11.06-3.19,2.56v8.5h-7.45v-38h7.45v16.94l-.39,6.2Z"/><path d="M1082.21,1239.29q-6.6,0-10.3-3.64t-3.71-10.3q0-6.87,3.43-10.61t9.48-3.75q5.79,0,9,3.3t3.22,9.1V1227h-17.6a7.17,7.17,0,0,0,1.88,5,6.61,6.61,0,0,0,4.93,1.78,20.48,20.48,0,0,0,4.66-.51,23.51,23.51,0,0,0,4.59-1.63v5.76a17.59,17.59,0,0,1-4.17,1.45A26.12,26.12,0,0,1,1082.21,1239.29Zm-1-23a4.71,4.71,0,0,0-3.71,1.5,6.91,6.91,0,0,0-1.54,4.26h10.45a6.18,6.18,0,0,0-1.44-4.26A4.88,4.88,0,0,0,1081.16,1216.29Z"/><path d="M1114.63,1211a11.84,11.84,0,0,1,2.52.22l-.57,7a8.61,8.61,0,0,0-2.19-.24,7.91,7.91,0,0,0-5.56,1.83,6.64,6.64,0,0,0-2,5.13v13.89h-7.44v-27.3H1105l1.09,4.59h.37a10.33,10.33,0,0,1,3.43-3.7A8.51,8.51,0,0,1,1114.63,1211Z"/><line class="cls-8" x1="1194.51" y1="1004.34" x2="1196.11" y2="1004.33"/><line class="cls-17" x1="1197.7" y1="1004.32" x2="1363.97" y2="1003.67"/><line class="cls-8" x1="1364.77" y1="1003.67" x2="1366.37" y2="1003.66"/><polygon class="cls-10" points="1351 1024.09 1359.58 1003.69 1350.84 983.35 1399.2 1003.53 1351 1024.09"/><line class="cls-8" x1="614.51" y1="1004.34" x2="616.11" y2="1004.34"/><line class="cls-18" x1="617.72" y1="1004.34" x2="689.26" y2="1004.34"/><line class="cls-8" x1="690.06" y1="1004.34" x2="691.67" y2="1004.34"/><polygon class="cls-10" points="676.22 1024.7 684.87 1004.34 676.22 983.97 724.5 1004.34 676.22 1024.7"/></svg>