<?xml version="1.0" encoding="utf-8"?>
<!-- Generator: Adobe Illustrator 23.0.1, SVG Export Plug-In . SVG Version: 6.00 Build 0)  -->
<svg version="1.1" id="secretless_dash-pattern" xmlns="http://www.w3.org/2000/svg" xmlns:xlink="http://www.w3.org/1999/xlink"
	 x="0px" y="0px" viewBox="0 0 400 400" style="enable-background:new 0 0 400 400;" xml:space="preserve">
<style type="text/css">
	.st0{opacity:5.000000e-02;}
	.st1{clip-path:url(#SVGID_2_);}
	.st2{fill:#4789C8;}
</style>
<title>secretless_dash_pattern_blue_05</title>
<g class="st0">
	<g>
		<defs>
			<rect id="SVGID_1_" width="400" height="400"/>
		</defs>
		<clipPath id="SVGID_2_">
			<use xlink:href="#SVGID_1_"  style="overflow:visible;"/>
		</clipPath>
		<g class="st1">
			<polygon class="st2" points="55,272.7 -58.3,272.7 -56,263.4 57.4,263.4 			"/>
			<polygon class="st2" points="16.8,288 -32.7,288 -30.4,278.7 19.1,278.7 			"/>
			<polygon class="st2" points="-10.1,294.1 -10.1,294.1 -33.2,294.1 -35.5,303.4 -27.4,303.4 -27.5,303.4 36.7,303.4 39,294.1 			
				"/>
			<polygon class="st2" points="-34.8,370.4 28.8,370.4 26.5,379.7 -37.1,379.7 			"/>
			<polygon class="st2" points="2.4,334 -47.1,334 -44.8,324.7 4.7,324.7 			"/>
			<polygon class="st2" points="70.1,227.1 -43.2,227.1 -40.9,217.8 72.4,217.8 			"/>
			<polygon class="st2" points="-21,3.9 20.6,3.9 18.3,13.2 -23.3,13.2 			"/>
			<polygon class="st2" points="86.2,74.3 -27.1,74.3 -24.8,65 88.5,65 			"/>
			<polygon class="st2" points="-37,49.6 5.6,49.6 3.2,58.9 -39.3,58.9 			"/>
			<polygon class="st2" points="71.8,120.2 -41.6,120.2 -39.3,110.9 74.1,110.9 			"/>
			<polygon class="st2" points="84.6,181.4 -28.8,181.4 -26.5,172.1 86.9,172.1 			"/>
			<polygon class="st2" points="-38.7,156.9 3.9,156.9 1.6,166.2 -41,166.2 			"/>
			<polygon class="st2" points="24.6,339.9 22.2,349.2 -41.9,349.2 -39.6,339.9 			"/>
			<polygon class="st2" points="386.8,385.5 375.5,385.5 373.1,394.9 384.5,394.9 			"/>
			<polygon class="st2" points="317.2,385.6 317.2,385.5 294,385.5 291.7,394.9 299.8,394.9 299.8,394.9 363.9,394.9 366.3,385.6 
							"/>
			<polygon class="st2" points="244.6,385.5 287.2,385.5 284.9,394.9 242.3,394.9 			"/>
			<polygon class="st2" points="228,394.9 178.5,394.9 180.8,385.5 230.3,385.5 			"/>
			<polygon class="st2" points="172.1,394.9 159,394.9 161.3,385.5 174.5,385.5 			"/>
			<polygon class="st2" points="129.4,394.9 16.1,394.9 18.4,385.5 131.7,385.5 			"/>
			<polygon class="st2" points="353.1,263.4 300.8,263.4 298.5,272.7 350.8,272.7 			"/>
			<polygon class="st2" points="245.1,263.5 245.1,263.4 221.9,263.4 219.6,272.7 227.7,272.7 227.7,272.8 291.8,272.8 294.1,263.5 
							"/>
			<polygon class="st2" points="172.5,263.4 215.1,263.4 212.8,272.7 170.2,272.7 			"/>
			<polygon class="st2" points="156,272.7 106.5,272.7 108.8,263.4 158.4,263.4 			"/>
			<polygon class="st2" points="100.2,272.7 87,272.7 89.3,263.4 102.5,263.4 			"/>
			<polygon class="st2" points="75.1,272.7 -38.3,272.7 -36,263.4 77.4,263.4 			"/>
			<polygon class="st2" points="338,248.2 361.2,248.2 358.8,257.6 335.6,257.6 			"/>
			<polygon class="st2" points="288.6,248.2 331.2,248.2 328.9,257.6 286.3,257.6 			"/>
			<polygon class="st2" points="271.9,257.6 222.4,257.6 224.7,248.2 274.2,248.2 			"/>
			<polygon class="st2" points="216.1,257.6 202.9,257.6 205.2,248.2 218.4,248.2 			"/>
			<polygon class="st2" points="194.3,257.6 80.9,257.6 83.3,248.2 196.6,248.2 			"/>
			<polygon class="st2" points="13.2,248.2 10.9,257.6 71.8,257.6 74.1,248.2 			"/>
			<polygon class="st2" points="361.6,288 324.1,288 326.4,278.7 363.9,278.7 			"/>
			<polygon class="st2" points="317.7,288 304.6,288 306.9,278.7 320.1,278.7 			"/>
			<polygon class="st2" points="295.7,288 182.4,288 184.7,278.7 298.1,278.7 			"/>
			<polygon class="st2" points="36.8,288 -12.7,288 -10.4,278.7 39.1,278.7 			"/>
			<polygon class="st2" points="128.5,278.9 128.6,278.7 105.4,278.7 103.1,288 111.8,288 111.8,288.2 175.9,288.2 178.2,278.9 			
				"/>
			<polygon class="st2" points="56,278.7 98.6,278.7 96.2,288 53.7,288 			"/>
			<polyline class="st2" points="410.4,318.6 284,318.6 286.4,309.3 412.7,309.3 			"/>
			<polygon class="st2" points="229.9,309.5 230,309.3 206.8,309.3 204.5,318.6 213.3,318.6 213.2,318.8 277.4,318.8 279.7,309.5 
							"/>
			<polygon class="st2" points="157.4,309.3 200,309.3 197.7,318.6 155.1,318.6 			"/>
			<polygon class="st2" points="141,318.6 91.5,318.6 93.8,309.3 143.3,309.3 			"/>
			<polygon class="st2" points="85.1,318.6 72,318.6 74.3,309.3 87.5,309.3 			"/>
			<polyline class="st2" points="395.8,294.1 346.7,294.1 346.7,294.1 323.5,294.1 321.2,303.4 329.3,303.4 329.3,303.4 
				393.5,303.4 			"/>
			<polygon class="st2" points="274.1,294.1 316.7,294.1 314.4,303.4 271.8,303.4 			"/>
			<polygon class="st2" points="257.5,303.4 208,303.4 210.3,294.1 259.8,294.1 			"/>
			<polygon class="st2" points="201.7,303.4 188.5,303.4 190.8,294.1 204,294.1 			"/>
			<polygon class="st2" points="179.2,303.4 65.9,303.4 68.2,294.1 181.5,294.1 			"/>
			<polygon class="st2" points="9.9,294.1 9.9,294.1 -13.2,294.1 -15.6,303.4 -7.4,303.4 -7.4,303.4 56.7,303.4 59,294.1 			"/>
			<polygon class="st2" points="344.1,379.7 294.6,379.7 296.9,370.4 346.4,370.4 			"/>
			<polygon class="st2" points="288.2,379.7 275.1,379.7 277.4,370.4 290.5,370.4 			"/>
			<polygon class="st2" points="266.2,379.7 152.9,379.7 155.2,370.4 268.5,370.4 			"/>
			<polygon class="st2" points="55.6,370.4 78.8,370.4 76.4,379.7 53.3,379.7 			"/>
			<polygon class="st2" points="-14.8,370.4 48.8,370.4 46.5,379.7 -17.1,379.7 			"/>
			<polygon class="st2" points="148.7,370.4 146.4,379.7 82.3,379.7 84.6,370.4 			"/>
			<polygon class="st2" points="359.1,334 309.6,334 312,324.7 361.5,324.7 			"/>
			<polygon class="st2" points="303.3,334 290.1,334 292.5,324.7 305.6,324.7 			"/>
			<polygon class="st2" points="280.7,334 167.3,334 169.6,324.7 283,324.7 			"/>
			<polygon class="st2" points="22.4,334 -27.1,334 -24.8,324.7 24.7,324.7 			"/>
			<polygon class="st2" points="114.1,324.8 114.1,324.7 90.9,324.7 88.6,334 96.7,334 96.7,334 160.8,334 163.2,324.8 			"/>
			<polygon class="st2" points="41.5,324.7 84.1,324.7 81.8,334 39.2,334 			"/>
			<polygon class="st2" points="382.3,364.4 269,364.4 271.3,355.1 384.6,355.1 			"/>
			<polygon class="st2" points="215.6,355.2 215.6,355.1 192.4,355.1 190.1,364.4 198.2,364.4 198.2,364.5 262.3,364.5 264.6,355.2 
							"/>
			<polygon class="st2" points="143,355.1 185.6,355.1 183.3,364.4 140.7,364.4 			"/>
			<polygon class="st2" points="126.5,364.4 77,364.4 79.3,355.1 128.8,355.1 			"/>
			<polygon class="st2" points="70.7,364.4 57.5,364.4 59.8,355.1 73,355.1 			"/>
			<polygon class="st2" points="310.2,242.3 196.8,242.3 199.1,233 312.5,233 			"/>
			<polygon class="st2" points="51.9,242.3 2.4,242.3 4.7,233 54.2,233 			"/>
			<polygon class="st2" points="143.6,233.1 143.6,233 120.4,233 118.1,242.3 126.2,242.3 126.2,242.4 190.4,242.4 192.7,233.1 			
				"/>
			<polygon class="st2" points="71.1,233 113.7,233 111.3,242.3 68.7,242.3 			"/>
			<polygon class="st2" points="377,233 374.6,242.3 316.5,242.3 318.9,233 			"/>
			<polygon class="st2" points="236.3,217.8 259.5,217.8 257.2,227.1 234,227.1 			"/>
			<polygon class="st2" points="186.9,217.8 229.5,217.8 227.2,227.1 184.6,227.1 			"/>
			<polygon class="st2" points="170.5,227.1 121,227.1 123.3,217.8 172.8,217.8 			"/>
			<polygon class="st2" points="114.6,227.1 101.5,227.1 103.8,217.8 117,217.8 			"/>
			<polygon class="st2" points="90.1,227.1 -23.2,227.1 -20.9,217.8 92.4,217.8 			"/>
			<polygon class="st2" points="360.8,227.1 311.3,227.1 313.6,217.8 363.1,217.8 			"/>
			<polygon class="st2" points="305,227.1 291.8,227.1 294.1,217.8 307.3,217.8 			"/>
			<polygon class="st2" points="208.7,211.9 95.4,211.9 97.7,202.6 211,202.6 			"/>
			<polygon class="st2" points="39.4,202.6 39.5,202.6 33.8,202.6 24.4,202.6 24.4,202.7 16.2,202.8 14,211.9 22.1,211.9 
				22.1,211.9 86.2,211.9 88.5,202.6 			"/>
			<polygon class="st2" points="-33.1,202.6 9.5,202.6 7.2,211.9 -35.4,211.9 			"/>
			<polygon class="st2" points="362.4,202.6 288,202.6 285.7,211.9 360,211.9 			"/>
			<polygon class="st2" points="281.3,202.6 279,211.9 214.9,211.9 217.2,202.6 			"/>
			<polygon class="st2" points="66.3,196.6 16.8,196.6 19.1,187.3 68.6,187.3 			"/>
			<polygon class="st2" points="10.5,196.6 -2.7,196.6 -0.4,187.3 12.8,187.3 			"/>
			<polygon class="st2" points="134.9,187.3 158.1,187.3 155.7,196.6 132.6,196.6 			"/>
			<polygon class="st2" points="85.5,187.3 128.1,187.3 125.8,196.6 83.2,196.6 			"/>
			<polyline class="st2" points="390.4,187.4 348.4,187.4 348.4,187.3 325.2,187.3 322.9,196.6 331,196.6 331,196.7 388.1,196.7 			
				"/>
			<polygon class="st2" points="275.8,187.3 318.4,187.3 316.1,196.6 273.5,196.6 			"/>
			<polygon class="st2" points="259.1,196.6 209.6,196.6 211.9,187.3 261.5,187.3 			"/>
			<polygon class="st2" points="203.3,196.6 190.1,196.6 192.4,187.3 205.6,187.3 			"/>
			<polygon class="st2" points="267.5,19.2 290.7,19.2 288.3,28.5 265.2,28.5 			"/>
			<polygon class="st2" points="218.1,19.2 260.7,19.2 258.4,28.5 215.8,28.5 			"/>
			<polygon class="st2" points="358.1,19.2 355.8,28.5 291.7,28.5 294,19.2 			"/>
			<polyline class="st2" points="387.3,28.5 365,28.5 367.3,19.2 389.6,19.2 			"/>
			<polygon class="st2" points="201.6,28.5 152.1,28.5 154.4,19.2 203.9,19.2 			"/>
			<polygon class="st2" points="145.8,28.5 132.6,28.5 134.9,19.2 148.1,19.2 			"/>
			<polygon class="st2" points="121.3,28.5 7.9,28.5 10.2,19.2 123.6,19.2 			"/>
			<polygon class="st2" points="335.9,13.2 283.4,13.2 285.7,3.9 338.2,3.9 			"/>
			<polygon class="st2" points="280.1,13.2 266.9,13.2 269.2,3.9 282.4,3.9 			"/>
			<polyline class="st2" points="390.4,13.2 352.8,13.2 355.1,3.9 392.7,3.9 			"/>
			<polygon class="st2" points="239.9,13.2 126.5,13.2 128.9,3.9 242.2,3.9 			"/>
			<polygon class="st2" points="70.6,4 70.6,3.9 47.4,3.9 45.1,13.2 53.2,13.2 53.2,13.3 117.3,13.3 119.7,4 			"/>
			<polygon class="st2" points="-1,3.9 40.6,3.9 38.3,13.2 -3.3,13.2 			"/>
			<polygon class="st2" points="341.3,43.7 228,43.7 230.3,34.4 343.6,34.4 			"/>
			<polygon class="st2" points="384.2,43.7 371.1,43.7 373.4,34.4 386.6,34.4 			"/>
			<polygon class="st2" points="83,43.7 33.5,43.7 35.8,34.4 85.3,34.4 			"/>
			<polygon class="st2" points="27.2,43.7 14,43.7 16.3,34.4 29.5,34.4 			"/>
			<polygon class="st2" points="174.8,34.4 174.8,34.4 151.6,34.4 149.3,43.7 157.4,43.7 157.4,43.7 221.5,43.7 223.8,34.4 			"/>
			<polygon class="st2" points="102.2,34.4 144.8,34.4 142.5,43.7 99.9,43.7 			"/>
			<polygon class="st2" points="383,74.3 329.6,74.3 332,65 385.3,65 			"/>
			<polygon class="st2" points="276.2,65.1 276.2,65 253,65 250.7,74.3 258.8,74.3 258.8,74.4 323,74.4 325.3,65.1 			"/>
			<polygon class="st2" points="203.7,65 246.2,65 243.9,74.3 201.3,74.3 			"/>
			<polygon class="st2" points="187.2,74.3 137.7,74.3 140,65 189.5,65 			"/>
			<polygon class="st2" points="131.4,74.3 118.2,74.3 120.5,65 133.7,65 			"/>
			<polygon class="st2" points="106.2,74.3 -7.1,74.3 -4.8,65 108.5,65 			"/>
			<polygon class="st2" points="319.7,49.6 362.3,49.6 360,58.9 317.4,58.9 			"/>
			<polygon class="st2" points="303.1,58.9 253.6,58.9 255.9,49.6 305.4,49.6 			"/>
			<polygon class="st2" points="247.2,58.9 234.1,58.9 236.4,49.6 249.6,49.6 			"/>
			<polygon class="st2" points="225.4,58.9 112.1,58.9 114.4,49.6 227.8,49.6 			"/>
			<polygon class="st2" points="55.5,49.8 55.5,49.6 32.4,49.6 30,58.9 38.8,58.9 38.8,59.1 102.9,59.1 105.2,49.8 			"/>
			<polygon class="st2" points="-17,49.6 25.6,49.6 23.2,58.9 -19.4,58.9 			"/>
			<polygon class="st2" points="387.7,89.6 355.2,89.6 357.5,80.2 390,80.2 			"/>
			<polygon class="st2" points="348.9,89.6 335.7,89.6 338,80.2 351.2,80.2 			"/>
			<polygon class="st2" points="326.9,89.6 213.5,89.6 215.9,80.2 329.2,80.2 			"/>
			<polygon class="st2" points="67.9,89.6 18.5,89.6 20.8,80.2 70.3,80.2 			"/>
			<polygon class="st2" points="12.1,89.6 -3,89.6 -0.7,80.2 14.4,80.2 			"/>
			<polygon class="st2" points="159.6,80.4 159.7,80.2 136.5,80.2 134.2,89.6 143,89.6 142.9,89.8 207.1,89.8 209.4,80.4 			"/>
			<polygon class="st2" points="87.1,80.2 129.7,80.2 127.4,89.6 84.8,89.6 			"/>
			<polygon class="st2" points="369.9,110.9 317.5,110.9 315.2,120.2 367.5,120.2 			"/>
			<polygon class="st2" points="261.1,111.3 261.1,111.1 238,110.9 235.6,120.4 244.4,120.4 244.4,120.6 308.5,120.6 310.8,111.3 
							"/>
			<polygon class="st2" points="188.6,110.9 231.2,110.9 228.9,120.2 186.3,120.2 			"/>
			<polygon class="st2" points="172.1,120.2 122.6,120.2 124.9,110.9 174.4,110.9 			"/>
			<polygon class="st2" points="116.3,120.2 103.1,120.2 105.4,110.9 118.6,110.9 			"/>
			<polygon class="st2" points="91.8,120.2 -21.6,120.2 -19.3,110.9 94.1,110.9 			"/>
			<polygon class="st2" points="305.3,95.6 347.9,95.6 345.6,104.9 303,104.9 			"/>
			<polygon class="st2" points="288.6,104.9 239.1,104.9 241.5,95.6 291,95.6 			"/>
			<polygon class="st2" points="232.8,104.9 219.6,104.9 222,95.6 235.1,95.6 			"/>
			<polygon class="st2" points="210.4,104.9 97,104.9 99.3,95.6 212.7,95.6 			"/>
			<polygon class="st2" points="41.1,95.7 41.1,95.6 17.9,95.6 15.6,104.9 23.7,104.9 23.7,105 87.8,105 90.2,95.7 			"/>
			<polygon class="st2" points="-31.5,95.6 11.1,95.6 8.8,104.9 -33.8,104.9 			"/>
			<polygon class="st2" points="104.6,181.4 -8.8,181.4 -6.5,172.1 106.9,172.1 			"/>
			<polygon class="st2" points="375.2,181.4 325.7,181.4 328,172.1 377.5,172.1 			"/>
			<polygon class="st2" points="319.4,181.4 306.2,181.4 308.5,172.1 321.7,172.1 			"/>
			<polygon class="st2" points="297.4,181.4 184,181.4 186.4,172.1 299.7,172.1 			"/>
			<polygon class="st2" points="179.9,172.1 177.6,181.4 113.4,181.4 115.8,172.1 			"/>
			<polygon class="st2" points="378.3,135.8 340.8,135.8 343.1,126.5 380.6,126.5 			"/>
			<polygon class="st2" points="334.5,135.8 321.3,135.8 323.6,126.5 336.8,126.5 			"/>
			<polygon class="st2" points="311.8,135.8 198.5,135.8 200.8,126.5 314.1,126.5 			"/>
			<polygon class="st2" points="53.5,135.8 4,135.8 6.3,126.5 55.8,126.5 			"/>
			<polygon class="st2" points="145.2,126.5 145.3,126.5 122.1,126.5 119.8,135.8 127.9,135.8 127.9,135.8 192,135.8 194.3,126.5 
							"/>
			<polygon class="st2" points="72.7,126.5 115.3,126.5 113,135.8 70.4,135.8 			"/>
			<polygon class="st2" points="30.7,156.9 53.9,156.9 51.6,166.2 28.4,166.2 			"/>
			<polygon class="st2" points="-18.7,156.9 23.9,156.9 21.6,166.2 -21,166.2 			"/>
			<polygon class="st2" points="367.8,156.9 302.4,156.9 300.1,166.2 365.5,166.2 			"/>
			<polygon class="st2" points="246.7,157 246.7,156.9 223.5,156.9 221.2,166.2 229.3,166.2 229.3,166.3 293.5,166.3 295.8,157 			
				"/>
			<polygon class="st2" points="174.1,156.9 216.7,156.9 214.4,166.2 171.8,166.2 			"/>
			<polygon class="st2" points="157.7,166.2 108.2,166.2 110.5,156.9 160,156.9 			"/>
			<polygon class="st2" points="101.8,166.2 88.7,166.2 91,156.9 104.2,156.9 			"/>
			<polygon class="st2" points="290.2,141.7 332.8,141.7 330.5,151 287.9,151 			"/>
			<polygon class="st2" points="273.6,151 224.1,151 226.4,141.7 275.9,141.7 			"/>
			<polygon class="st2" points="217.7,151 204.6,151 206.9,141.7 220.1,141.7 			"/>
			<polygon class="st2" points="75.7,141.7 73.4,151 9.3,151 11.6,141.7 			"/>
			<polygon class="st2" points="195.9,151 82.6,151 84.9,141.7 198.2,141.7 			"/>
			<polygon class="st2" points="340.2,141.7 406.8,141.7 404.5,151 337.9,151 			"/>
			<polygon class="st2" points="259.1,339.9 301.7,339.9 299.4,349.2 256.8,349.2 			"/>
			<polygon class="st2" points="242.4,349.2 192.9,349.2 195.2,339.9 244.7,339.9 			"/>
			<polygon class="st2" points="186.6,349.2 173.4,349.2 175.7,339.9 188.9,339.9 			"/>
			<polygon class="st2" points="44.6,339.9 42.2,349.2 -21.9,349.2 -19.6,339.9 			"/>
			<polygon class="st2" points="164.8,349.2 51.4,349.2 53.8,339.9 167.1,339.9 			"/>
			<polygon class="st2" points="309.1,339.9 372.7,339.9 370.4,349.2 306.8,349.2 			"/>
			<polygon class="st2" points="475,272.7 361.7,272.7 364,263.4 477.4,263.4 			"/>
			<polygon class="st2" points="436.8,288 387.3,288 389.6,278.7 439.1,278.7 			"/>
			<polygon class="st2" points="381,288 367.8,288 370.1,278.7 383.3,278.7 			"/>
			<polygon class="st2" points="409.9,294.1 410,294.1 386.8,294.1 384.5,303.4 392.6,303.4 392.5,303.4 456.7,303.4 459,294.1 			
				"/>
			<polygon class="st2" points="385.2,370.4 448.8,370.4 446.5,379.7 382.9,379.7 			"/>
			<polygon class="st2" points="422.4,334 372.9,334 375.2,324.7 424.7,324.7 			"/>
			<polygon class="st2" points="396,242.3 382.9,242.3 385.2,233 398.4,233 			"/>
			<polygon class="st2" points="490.1,227.1 376.8,227.1 379.1,217.8 492.4,217.8 			"/>
			<polygon class="st2" points="366.9,202.6 409.5,202.6 407.2,211.9 364.6,211.9 			"/>
			<polygon class="st2" points="410.5,196.6 397.3,196.6 399.6,187.3 412.8,187.3 			"/>
			<polygon class="st2" points="399,3.9 440.6,3.9 438.3,13.2 396.7,13.2 			"/>
			<polygon class="st2" points="506.2,74.3 392.9,74.3 395.2,65 508.5,65 			"/>
			<polygon class="st2" points="383,49.6 425.6,49.6 423.2,58.9 380.6,58.9 			"/>
			<polygon class="st2" points="412.1,89.6 397,89.6 399.3,80.2 414.4,80.2 			"/>
			<polygon class="st2" points="491.8,120.2 378.4,120.2 380.7,110.9 494.1,110.9 			"/>
			<polygon class="st2" points="368.5,95.6 411.1,95.6 408.8,104.9 366.2,104.9 			"/>
			<polygon class="st2" points="504.6,181.4 391.2,181.4 393.5,172.1 506.9,172.1 			"/>
			<polygon class="st2" points="397.7,135.8 384.5,135.8 386.8,126.5 400,126.5 			"/>
			<polygon class="st2" points="381.3,156.9 423.9,156.9 421.6,166.2 379,166.2 			"/>
			<polygon class="st2" points="444.6,339.9 442.2,349.2 378.1,349.2 380.4,339.9 			"/>
		</g>
	</g>
</g>
</svg>
