<svg id="Layer_1" data-name="Layer 1" xmlns="http://www.w3.org/2000/svg" viewBox="0 0 1276.32 300.2"><defs><style>.cls-1{fill:#fff;}.cls-2{fill:#4d8fcc;}</style></defs><title>secretless_4c_ko_horiz</title><path class="cls-1" d="M318.43,210.9l16.05-16.27c10.85,11.75,20.8,17.4,31,17.4,8.81,0,15.82-5.87,15.82-13.33,0-6.78-4.52-11.08-18.31-20.12-16.5-10.62-24.64-19.66-24.64-34.13,0-19.21,15.83-36.17,41.37-36.17,16.95,0,31.42,8.37,40.91,18.09l-14.92,17.4c-10.62-10.4-18.53-14.92-27.35-14.92-8.36,0-14.46,5.65-14.46,12.66,0,6.56,4.07,10.4,18.31,19.44,18.53,12,24.86,22.15,24.86,35,0,20.56-17.86,36.84-42.27,36.84C346.69,232.83,330.87,224.69,318.43,210.9Z"/><path class="cls-1" d="M447.92,179.94v1.81c0,18.08,8.82,29.38,24,29.38,10.18,0,17.41-3.62,25.77-9.95l11.75,18.31c-10.39,7.91-22.82,13.34-38.65,13.34-29.83,0-47.92-19.67-47.92-51.08,0-21.25,8.59-42.73,22.61-56.74,10.39-10.4,23.5-17.18,39.78-17.18,25.54,0,41.36,18.31,41.36,44.3a80.23,80.23,0,0,1-5.2,27.81Zm2.72-17.63h49.72a38.45,38.45,0,0,0,1.36-11.53c0-11.76-5.88-21-18.31-21-7.68,0-14.47,3.39-19.89,8.81C457.87,144.22,453.35,152.81,450.64,162.31Z"/><path class="cls-1" d="M538.21,183.1c0-21.92,8.59-43.62,22.38-57.41,11.07-10.85,24.41-17.63,40.46-17.63,20.8,0,31.87,9.26,39.78,21.47l-19.89,15.6c-5.2-8.37-11.07-14-20.57-14-7.46,0-14,3.39-19.44,8.82-9.72,9.94-16,27.58-16,42.49,0,18.09,9.5,27.58,21.25,27.58,8.59,0,14.69-4.3,22.15-10.4L621.85,217c-9.5,8.81-20.8,15.82-37.08,15.82C557.42,232.83,538.21,214.07,538.21,183.1Z"/><path class="cls-1" d="M663.94,110.09h26.67l-5.2,21.7c10.17-15.37,22.38-25.09,40.69-23.73l-7.46,28h-1.58c-20.35,0-35.72,11.52-42.5,39.33l-13.34,55.15H634.55Z"/><path class="cls-1" d="M749.91,179.94v1.81c0,18.08,8.81,29.38,24,29.38,10.17,0,17.4-3.62,25.77-9.95l11.75,18.31c-10.4,7.91-22.83,13.34-38.65,13.34-29.84,0-47.92-19.67-47.92-51.08,0-21.25,8.59-42.73,22.6-56.74,10.4-10.4,23.51-17.18,39.78-17.18,25.55,0,41.37,18.31,41.37,44.3a80.47,80.47,0,0,1-5.2,27.81Zm2.71-17.63h49.73a38.45,38.45,0,0,0,1.35-11.53c0-11.76-5.87-21-18.3-21-7.69,0-14.47,3.39-19.9,8.81C759.85,144.22,755.33,152.81,752.62,162.31Z"/><path class="cls-1" d="M842.91,209.77c0-4.74,1.13-9.72,2.26-14.69l14.92-61.93H846.52l5.88-23.06h13.34l7.68-31.64h26.9l-7.68,31.64H917.5l-5.88,23.06H887l-15.15,62.16a33.57,33.57,0,0,0-.68,5.87c0,4.52,3.39,7.24,9.27,7.24A34.71,34.71,0,0,0,894.67,205L889,228.08c-5.42,2.72-12.66,4.07-20.34,4.07C852.63,232.15,842.91,223.56,842.91,209.77Z"/><path class="cls-1" d="M952.53,67.37h26.68l-39.79,163.2H912.53Z"/><path class="cls-1" d="M1001.41,179.94v1.81c0,18.08,8.81,29.38,24,29.38,10.17,0,17.4-3.62,25.77-9.95l11.75,18.31c-10.4,7.91-22.83,13.34-38.65,13.34-29.84,0-47.92-19.67-47.92-51.08,0-21.25,8.59-42.73,22.6-56.74,10.4-10.4,23.51-17.18,39.78-17.18,25.55,0,41.37,18.31,41.37,44.3a80.47,80.47,0,0,1-5.2,27.81Zm2.71-17.63h49.73a38.45,38.45,0,0,0,1.35-11.53c0-11.76-5.87-21-18.3-21-7.69,0-14.47,3.39-19.9,8.81C1011.35,144.22,1006.83,152.81,1004.12,162.31Z"/><path class="cls-1" d="M1075.57,210.9l16-16.27c10.85,11.75,20.79,17.4,31,17.4,8.81,0,15.82-5.87,15.82-13.33,0-6.78-4.52-11.08-18.31-20.12-16.5-10.62-24.64-19.66-24.64-34.13,0-19.21,15.82-36.17,41.36-36.17,17,0,31.42,8.37,40.92,18.09l-14.92,17.4c-10.62-10.4-18.54-14.92-27.35-14.92-8.36,0-14.47,5.65-14.47,12.66,0,6.56,4.07,10.4,18.31,19.44,18.54,12,24.87,22.15,24.87,35,0,20.56-17.86,36.84-42.27,36.84C1103.82,232.83,1088,224.69,1075.57,210.9Z"/><path class="cls-1" d="M1174.15,210.9l16-16.27c10.85,11.75,20.79,17.4,31,17.4,8.82,0,15.83-5.87,15.83-13.33,0-6.78-4.52-11.08-18.31-20.12C1202.18,168,1194,158.92,1194,144.45c0-19.21,15.82-36.17,41.37-36.17,16.95,0,31.41,8.37,40.91,18.09l-14.92,17.4c-10.62-10.4-18.54-14.92-27.35-14.92-8.36,0-14.47,5.65-14.47,12.66,0,6.56,4.07,10.4,18.31,19.44,18.54,12,24.87,22.15,24.87,35,0,20.56-17.86,36.84-42.27,36.84C1202.4,232.83,1186.58,224.69,1174.15,210.9Z"/><polygon class="cls-2" points="181.17 182.98 174.35 210.33 233.44 210.33 240.26 182.98 181.17 182.98"/><path class="cls-1" d="M220.38,23.87C185.52,3.33,140.72-6,102.73,4.05,65.87,13.77,33.5,41.93,23.16,71.33H78.87c7.54-13.42,21.54-24.09,38-28.44,29.68-7.82,59.1-5.24,95,14.64Z"/><path class="cls-1" d="M31.18,276.33c34.85,20.54,79.65,29.84,117.64,19.82,36.86-9.72,69.23-37.88,79.57-67.28h-55.7c-7.55,13.42-21.54,24.09-38,28.44-29.68,7.82-59.09,5.24-95-14.64Z"/><polygon class="cls-2" points="97 90.53 90.18 117.88 139.56 117.88 146.38 90.53 97 90.53"/><polygon class="cls-2" points="18.1 90.53 11.28 117.88 69.3 117.88 76.12 90.53 18.1 90.53"/><polygon class="cls-2" points="249.92 135.67 6.82 135.67 0 163.02 243.11 163.02 249.92 135.67"/><polygon class="cls-2" points="160.82 182.98 78.21 182.98 71.39 210.33 154 210.33 160.82 182.98"/></svg>