<?xml version="1.0" encoding="utf-8"?>
<!-- Generator: Adobe Illustrator 22.1.0, SVG Export Plug-In . SVG Version: 6.00 Build 0)  -->
<svg version="1.1" id="Layer_1" xmlns="http://www.w3.org/2000/svg" xmlns:xlink="http://www.w3.org/1999/xlink" x="0px" y="0px"
	 viewBox="0 0 1856.4 1318.3" style="enable-background:new 0 0 1856.4 1318.3;" xml:space="preserve">
<style type="text/css">
	.st0{fill:#39B54A;}
	.st1{fill:#FFFFFF;}
	.st2{fill:#08141C;}
	.st3{fill:#FFFFFF;stroke:#08141C;stroke-width:9.66;stroke-miterlimit:10;}
	.st4{fill:#FFFFFF;stroke:#08141C;stroke-width:11;stroke-miterlimit:10;}
	.st5{fill:none;stroke:#08141C;stroke-width:11;stroke-miterlimit:10;}
	.st6{fill:none;stroke:#4D8FCC;stroke-width:11;stroke-linecap:round;stroke-miterlimit:10;}
	.st7{fill:none;stroke:#4D8FCC;stroke-width:11;stroke-linecap:round;stroke-miterlimit:10;stroke-dasharray:3.2,1.6;}
	.st8{fill:#4D8FCC;}
	.st9{opacity:0.15;fill:#4D8FCC;enable-background:new    ;}
	.st10{fill:#FFFFFF;stroke:#08141C;stroke-width:9.48;stroke-miterlimit:10;}
	.st11{fill:none;stroke:#08141C;stroke-width:10.09;stroke-miterlimit:10;}
	.st12{fill:#999999;}
	.st13{clip-path:url(#SVGID_2_);}
	.st14{fill:none;stroke:#08141C;stroke-width:9.48;stroke-miterlimit:10;}
	.st15{fill:none;stroke:#4D8FCC;stroke-width:11;stroke-linecap:round;stroke-miterlimit:10;stroke-dasharray:3.18,1.59;}
	.st16{fill:none;stroke:#4D8FCC;stroke-width:11;stroke-linecap:round;stroke-miterlimit:10;stroke-dasharray:3.22,1.61;}
</style>
<title>secretless_architecture</title>
<path d="M1523.7,1238.8h-7.6v-29.4h-9.7v-6.3h27v6.3h-9.7L1523.7,1238.8z"/>
<path d="M1555.7,1238.8l-1.4-3.7h-0.2c-1,1.4-2.3,2.5-3.9,3.3c-1.6,0.7-3.4,1-5.2,0.9c-2.3,0.1-4.5-0.7-6.2-2.2
	c-1.6-1.7-2.4-4-2.3-6.4c0-2.9,1-5,3-6.4s5.1-2.1,9.2-2.3l4.7-0.1v-1.2c0-2.8-1.4-4.2-4.2-4.2c-2.7,0.1-5.3,0.8-7.7,2l-2.5-5
	c3.2-1.7,6.8-2.5,10.4-2.5c3.7,0,6.5,0.8,8.4,2.4s2.9,4,2.9,7.3v18.2L1555.7,1238.8z M1553.5,1226.2l-2.9,0.1
	c-1.7-0.1-3.4,0.3-4.8,1.2c-1.1,0.7-1.7,2-1.6,3.3c0,2.1,1.2,3.2,3.6,3.2c1.5,0.1,3-0.5,4.1-1.5s1.6-2.5,1.6-3.9L1553.5,1226.2z"/>
<path d="M1583.8,1211c0.8,0,1.7,0.1,2.5,0.2l-0.6,7c-0.7-0.2-1.5-0.3-2.2-0.2c-2-0.1-4,0.5-5.6,1.8c-1.4,1.3-2.1,3.2-2,5.1v13.9
	h-7.4v-27.3h5.6l1.1,4.6h0.4c0.8-1.5,2-2.8,3.4-3.7C1580.4,1211.5,1582.1,1211,1583.8,1211z"/>
<path d="M1615,1211.5v3.8l-4.3,1.1c0.8,1.2,1.2,2.6,1.2,4.1c0.1,2.6-1,5.2-3.1,6.8c-2,1.6-4.9,2.4-8.5,2.4l-1.3-0.1l-1.1-0.1
	c-0.7,0.4-1.1,1.2-1.2,2c0,1.1,1.4,1.6,4.1,1.6h4.6c3,0,5.3,0.6,6.8,1.9c1.6,1.4,2.5,3.5,2.4,5.7c0.1,3-1.4,5.8-4,7.4
	c-2.7,1.8-6.5,2.6-11.5,2.6c-3.8,0-6.7-0.7-8.7-2c-1.9-1.2-3.1-3.3-3-5.6c0-1.5,0.5-3,1.5-4.1c1.2-1.2,2.8-2,4.5-2.4
	c-0.8-0.4-1.5-0.9-2-1.6c-1.2-1.5-1.2-3.5,0-5c0.8-0.8,1.6-1.5,2.6-2c-1.4-0.6-2.6-1.7-3.4-3c-0.9-1.5-1.3-3.1-1.3-4.8
	c-0.1-2.6,0.9-5.2,2.9-6.9c1.9-1.6,4.7-2.4,8.3-2.4c0.9,0,1.8,0.1,2.7,0.2c1.1,0.1,1.7,0.2,2,0.3L1615,1211.5z M1593.9,1242.7
	c0,1,0.6,2,1.5,2.4c1.3,0.7,2.7,1,4.1,0.9c2.1,0.1,4.3-0.3,6.3-1.1c1.5-0.7,2.3-1.7,2.3-3c0.1-0.9-0.5-1.8-1.3-2.1
	c-1.3-0.5-2.7-0.7-4.2-0.6h-3.9c-1.2,0-2.4,0.3-3.4,1C1594.4,1240.7,1593.9,1241.6,1593.9,1242.7L1593.9,1242.7z M1596.6,1220.4
	c-0.1,1.2,0.3,2.5,1,3.5c0.8,0.9,1.9,1.4,3.1,1.3c1.2,0.1,2.3-0.4,3.1-1.3c0.7-1,1.1-2.3,1-3.5c0-3.3-1.3-4.9-4-4.9
	S1596.7,1217.2,1596.6,1220.4L1596.6,1220.4z"/>
<path d="M1631.8,1239.3c-4.4,0-7.8-1.2-10.3-3.6s-3.7-5.9-3.7-10.3c0-4.6,1.1-8.1,3.4-10.6s5.4-3.7,9.5-3.8c3.9,0,6.9,1.1,9,3.3
	s3.2,5.2,3.2,9.1v3.6h-17.6c0,1.8,0.6,3.6,1.9,5c1.3,1.2,3.1,1.9,4.9,1.8c1.6,0,3.1-0.2,4.7-0.5c1.6-0.4,3.1-0.9,4.6-1.6v5.8
	c-1.3,0.7-2.7,1.1-4.2,1.4C1635.5,1239.2,1633.6,1239.3,1631.8,1239.3z M1630.8,1216.3c-1.4-0.1-2.8,0.5-3.7,1.5
	c-1,1.2-1.5,2.7-1.5,4.3h10.4c0.1-1.6-0.4-3.1-1.4-4.3C1633.6,1216.8,1632.2,1216.2,1630.8,1216.3L1630.8,1216.3z"/>
<path d="M1660.5,1233.3c1.6,0,3.2-0.3,4.7-0.8v5.5c-2.2,0.9-4.5,1.3-6.8,1.2c-3,0-5.2-0.8-6.5-2.3s-2-3.8-2-6.8V1217h-3.6v-3.2
	l4.1-2.5l2.2-5.8h4.8v5.8h7.6v5.6h-7.6v13.2c-0.1,0.9,0.3,1.7,0.9,2.3C1658.9,1233.1,1659.7,1233.4,1660.5,1233.3z"/>
<path d="M1705.4,1228.9c0.1,2.9-1.2,5.8-3.5,7.6c-2.3,1.9-5.5,2.8-9.7,2.8c-3.5,0.1-6.9-0.7-10.1-2.2v-7c2,0.9,4,1.7,6.1,2.3
	c1.5,0.4,3,0.6,4.6,0.7c1.3,0.1,2.7-0.3,3.8-1c0.9-0.7,1.4-1.7,1.3-2.8c0-0.7-0.2-1.3-0.6-1.9c-0.5-0.6-1.1-1.2-1.7-1.6
	c-1.5-0.9-3-1.7-4.6-2.4c-1.8-0.8-3.4-1.8-4.9-3c-1.1-0.9-2-2-2.6-3.3c-0.7-1.4-1-2.9-1-4.4c-0.1-2.8,1-5.6,3.2-7.4
	c2.1-1.8,5.1-2.7,8.9-2.7c1.8,0,3.6,0.2,5.3,0.7c1.8,0.5,3.6,1.1,5.3,1.9l-2.4,5.9c-1.5-0.7-3.1-1.2-4.7-1.6
	c-1.2-0.3-2.4-0.5-3.7-0.5c-1.2-0.1-2.4,0.3-3.3,1c-0.8,0.7-1.2,1.6-1.2,2.6c0,0.6,0.1,1.2,0.5,1.8c0.4,0.6,0.9,1.1,1.5,1.4
	c1.5,0.9,3.2,1.8,4.8,2.5c3.3,1.6,5.6,3.2,6.9,4.8C1704.8,1224.6,1705.4,1226.7,1705.4,1228.9z"/>
<path d="M1723.6,1239.3c-4.4,0-7.8-1.2-10.3-3.6s-3.7-5.9-3.7-10.3c0-4.6,1.1-8.1,3.4-10.6s5.4-3.8,9.5-3.8c3.9,0,6.9,1.1,9,3.3
	s3.2,5.2,3.2,9.1v3.6h-17.6c0,1.8,0.6,3.6,1.9,5c1.3,1.2,3.1,1.9,4.9,1.8c1.6,0,3.1-0.2,4.7-0.5c1.6-0.4,3.1-0.9,4.6-1.6v5.8
	c-1.3,0.7-2.7,1.1-4.2,1.4C1727.2,1239.2,1725.4,1239.3,1723.6,1239.3z M1722.6,1216.3c-1.4-0.1-2.8,0.5-3.7,1.5
	c-1,1.2-1.5,2.7-1.5,4.3h10.4c0.1-1.6-0.4-3.1-1.4-4.3C1725.4,1216.8,1724,1216.2,1722.6,1216.3L1722.6,1216.3z"/>
<path d="M1756,1211c0.8,0,1.7,0.1,2.5,0.2l-0.6,7c-0.7-0.2-1.5-0.3-2.2-0.2c-2-0.1-4,0.5-5.6,1.8c-1.4,1.3-2.1,3.2-2,5.1v13.9h-7.4
	v-27.3h5.6l1.1,4.6h0.4c0.8-1.5,2-2.8,3.4-3.7C1752.7,1211.5,1754.3,1211,1756,1211z"/>
<path d="M1770,1238.8l-10.4-27.3h7.8l5.3,15.6c0.6,1.8,0.9,3.7,1.1,5.6h0.1c0.2-1.9,0.5-3.8,1.1-5.6l5.2-15.6h7.8l-10.4,27.3H1770z"
	/>
<path d="M1791.6,1204.4c0-2.4,1.4-3.6,4.1-3.6s4,1.2,4,3.6c0.1,1-0.3,2-1,2.7c-0.8,0.7-1.9,1.1-3,1
	C1793,1208.1,1791.6,1206.9,1791.6,1204.4z M1799.4,1238.8h-7.4v-27.3h7.4V1238.8z"/>
<path d="M1818.3,1239.3c-8.5,0-12.7-4.7-12.7-14c0-4.7,1.2-8.2,3.5-10.6s5.6-3.7,9.9-3.7c2.9,0,5.8,0.6,8.5,1.9l-2.2,5.8
	c-1.2-0.5-2.3-0.9-3.3-1.2c-1-0.3-2-0.4-3-0.4c-3.9,0-5.8,2.8-5.8,8.2c0,5.3,1.9,8,5.8,8c1.4,0,2.7-0.2,4-0.6s2.5-1,3.7-1.8v6.4
	c-1.1,0.7-2.4,1.3-3.7,1.6C1821.4,1239.2,1819.9,1239.3,1818.3,1239.3z"/>
<path d="M1845.3,1239.3c-4.4,0-7.8-1.2-10.3-3.6s-3.7-5.9-3.7-10.3c0-4.6,1.1-8.1,3.4-10.6s5.5-3.7,9.5-3.8c3.9,0,6.9,1.1,9,3.3
	c2.1,2.2,3.2,5.2,3.2,9.1v3.6h-17.6c0,1.8,0.6,3.6,1.9,5c1.3,1.2,3.1,1.9,4.9,1.8c1.6,0,3.1-0.2,4.7-0.5c1.6-0.4,3.1-0.9,4.6-1.6
	v5.8c-1.3,0.7-2.7,1.1-4.2,1.4C1848.9,1239.2,1847.1,1239.3,1845.3,1239.3z M1844.3,1216.3c-1.4-0.1-2.8,0.5-3.7,1.5
	c-1,1.2-1.5,2.7-1.5,4.3h10.4c0.1-1.5-0.4-3.1-1.4-4.3C1847,1216.8,1845.6,1216.2,1844.3,1216.3L1844.3,1216.3z"/>
<path d="M1684.9,776.4c-89.3,0-159,30.6-159,69.5v252c0,38.9,70.1,69.6,159,69.6s159.1-30.6,159.1-69.6V846.3
	C1844,807,1774.3,776.4,1684.9,776.4z M1829.9,1098.3c0,27-58.5,55.6-145,55.6s-145-29-145-55.6v-54.8c24.4,24.2,79.7,40.5,145,40.5
	s120.6-16.3,145-40.5V1098.3z M1829.9,1014.4c0,27-58.5,55.6-145,55.6s-145-29-145-55.6v-55.3c24.4,24.2,79.7,40.9,145,40.9
	s120.6-16.3,145-40.5V1014.4z M1829.9,930.2c0,27-58.5,55.6-145,55.6s-145-29-145-55.6v-54.9c24.8,24.2,79.7,40.5,145,40.5
	s120.6-16.3,145-40.5V930.2z M1684.9,902c-86.9,0-145-29-145-55.6s58.5-55.6,145-55.6s145,29,145,55.6S1771.9,902,1684.9,902
	L1684.9,902z"/>
<path class="st0" d="M1473.4,1080c-14,0-25.3-11.3-25.3-25.3v-72.4c-0.1-10.5,6.5-20,16.3-23.7v-16.3c0-19.2,15.6-34.8,34.8-34.8
	h21.9c19.2,0,34.9,15.6,34.9,34.8V959c9.2,4,15.2,13.2,15.2,23.2v72.4c0,14-11.3,25.3-25.3,25.3L1473.4,1080z M1509.6,999.5
	c-4,0-7.3,3.3-7.3,7.3c0,2.4,1.1,4.6,3.1,5.9l3.7,2.7l-0.7,4.5c0,0.1,0,0.1,0,0.2v16.5c0,0.6,0.4,1,1,1h0.7c0.6,0,1-0.4,1-1V1020
	l-0.7-4.6l3.7-2.7c1.9-1.4,3.1-3.6,3.1-5.9C1517,1002.7,1513.7,999.5,1509.6,999.5C1509.7,999.5,1509.6,999.5,1509.6,999.5
	L1509.6,999.5z M1530.1,956.9v-14.7c0-5-4-9-9-9l0,0h-21.9c-5,0-9,4-9,9l0,0v14.7H1530.1z"/>
<path class="st1" d="M1521.1,914.8c15.2,0,27.5,12.3,27.5,27.5v22.3c8.7,1.4,15.1,8.9,15.2,17.8v72.4c0,9.9-8.1,18-18,18h-72.4
	c-9.9,0-18-8.1-18-18v-72.4c0-9.3,7.1-17,16.3-17.9v-22.1c0-15.2,12.3-27.5,27.5-27.5L1521.1,914.8 M1482.8,964.3h54.6v-22
	c0-9-7.3-16.4-16.4-16.4h-21.9c-9,0-16.4,7.3-16.4,16.4v22 M1509.2,1044.8h0.7c4.6,0,8.3-3.7,8.3-8.3V1020c0-0.4,0-0.9-0.1-1.3
	c6.6-4.7,8.1-13.9,3.4-20.5s-13.9-8.1-20.5-3.4s-8.1,13.9-3.4,20.5c0.9,1.3,2.1,2.5,3.4,3.4c-0.1,0.4-0.1,0.9-0.1,1.3v16.5
	C1500.9,1041.1,1504.6,1044.8,1509.2,1044.8 M1521.1,900h-21.9c-23.3,0-42.2,18.9-42.2,42.2V954c-10.1,5.8-16.3,16.6-16.3,28.3v72.4
	c0,18,14.6,32.7,32.7,32.7h72.4c18,0,32.7-14.6,32.7-32.7v-72.4c0-11.2-5.7-21.6-15.2-27.6v-12.4
	C1563.3,918.9,1544.4,900,1521.1,900z M1497.6,949.5v-7.3c0-0.9,0.7-1.6,1.7-1.6h21.9c0.9,0,1.6,0.7,1.6,1.6v7.3H1497.6z"/>
<path class="st2" d="M777.7,312.8h320.5c7,0,12.7,5.7,12.7,12.7V353c0,7-5.7,12.7-12.7,12.7H777.7c-7,0-12.7-5.7-12.7-12.7v-27.5
	C765,318.5,770.7,312.8,777.7,312.8z"/>
<path class="st3" d="M755.9,4.8h361.6c16.1,0,29.2,13.1,29.2,29.2v278.9c0,16.1-13.1,29.2-29.2,29.2H755.9
	c-16.1,0-29.2-13.1-29.2-29.2V34C726.7,17.9,739.8,4.8,755.9,4.8z"/>
<ellipse transform="matrix(0.7071 -0.7071 0.7071 0.7071 129.4892 722.0182)" class="st4" cx="936.3" cy="204.7" rx="95.9" ry="95.9"/>
<line class="st5" x1="937.2" y1="109.7" x2="936.3" y2="302.3"/>
<line class="st5" x1="1033.1" y1="206.5" x2="840.4" y2="205.6"/>
<line class="st5" x1="1004.5" y1="274.4" x2="869" y2="137.6"/>
<line class="st5" x1="1005.2" y1="138.2" x2="868.3" y2="273.8"/>
<circle class="st4" cx="936.3" cy="204.7" r="38.6"/>
<path d="M895.1,36.1h7.7l-12.1,35.7h-8.2l-12.1-35.7h7.6l6.7,21.2c0.4,1.3,0.8,2.7,1.2,4.4c0.4,1.7,0.6,2.8,0.7,3.5
	c0.4-2.7,1.1-5.3,1.8-7.9L895.1,36.1z"/>
<path d="M924,71.8l-1.5-3.7h-0.2c-1,1.4-2.3,2.5-3.8,3.3c-1.6,0.7-3.4,1-5.2,0.9c-2.3,0.1-4.5-0.7-6.2-2.3c-1.6-1.7-2.4-4-2.3-6.4
	c-0.2-2.5,0.9-4.9,3-6.4c2-1.4,5.1-2.1,9.2-2.3l4.7-0.1v-1.2c0-2.8-1.4-4.2-4.2-4.2c-2.7,0.1-5.3,0.8-7.7,2l-2.5-5
	c3.2-1.7,6.8-2.5,10.5-2.5s6.5,0.8,8.4,2.4c1.9,1.6,2.9,4,2.9,7.3v18.2H924z M921.8,59.2l-2.9,0.1c-1.7-0.1-3.4,0.3-4.8,1.2
	c-1.1,0.7-1.6,2-1.6,3.3c0,2.1,1.2,3.1,3.6,3.1c1.5,0.1,3-0.5,4.1-1.5c1.1-1,1.6-2.5,1.5-4L921.8,59.2z"/>
<path d="M956.2,71.8l-1-3.5h-0.4c-0.8,1.3-2,2.3-3.4,2.9c-1.6,0.7-3.3,1-5,1c-3.2,0-5.6-0.9-7.2-2.6s-2.4-4.2-2.4-7.4V44.5h7.4v16
	c-0.1,1.5,0.3,3.1,1,4.4c0.8,1,2,1.5,3.3,1.4c1.8,0.2,3.5-0.6,4.5-2.1c0.9-1.4,1.4-3.7,1.4-6.9V44.5h7.5v27.3H956.2z"/>
<path d="M977.1,71.8h-7.5v-38h7.5V71.8z"/>
<path d="M996.5,66.3c1.6,0,3.2-0.3,4.7-0.8V71c-2.2,0.9-4.5,1.3-6.8,1.2c-3,0-5.1-0.8-6.5-2.3c-1.4-1.5-2-3.8-2-6.8v-13h-3.6v-3.2
	l4.1-2.5l2.2-5.8h4.8v5.8h7.7V50h-7.7v13.2c-0.1,0.9,0.3,1.7,0.9,2.3C994.8,66.1,995.7,66.4,996.5,66.3z"/>
<line class="st6" x1="938.5" y1="396.3" x2="938.5" y2="397.9"/>
<line class="st7" x1="938.5" y1="399.5" x2="938.1" y2="605"/>
<line class="st6" x1="938.1" y1="605.8" x2="938.1" y2="607.4"/>
<polygon class="st8" points="917.7,591.9 938.1,600.6 958.5,592 938,640.2 "/>
<polygon class="st1" points="922,461.8 960,501.7 960,544.8 911,498.5 "/>
<path class="st2" d="M998.8,523.9c-2.1-2.1-5.6-2.1-7.8,0l0,0l-11.5,11.5l-8.1-8.1l19.2-19.3c2.1-2.1,2.1-5.6,0-7.8
	c-2.1-2.1-5.6-2.1-7.8,0l0,0l-19.3,19.3L914.2,470c10.7-15,7.2-35.7-7.8-46.4s-35.7-7.2-46.4,7.8s-7.2,35.7,7.8,46.4
	c11.5,8.2,27,8.2,38.6,0l81.7,81.6c2.1,2.1,5.6,2.1,7.8,0c2.2-2.1,2.1-5.6,0-7.8l-8.5-8.5l11.5-11.5
	C1001,529.5,1001.1,526.1,998.8,523.9C998.9,523.9,998.9,523.9,998.8,523.9z M871.4,466.5c-8.7-8.7-8.7-22.8,0-31.5
	c8.7-8.7,22.8-8.7,31.5,0c8.7,8.7,8.7,22.8,0,31.5l0,0C894.2,475.2,880.1,475.2,871.4,466.5z"/>
<path class="st9" d="M32.5,689.3h1201.9c18,0,32.6,14.6,32.6,32.5v563.9c0,18-14.6,32.6-32.6,32.6H32.5c-18,0-32.5-14.6-32.5-32.6
	V721.9C0,703.9,14.6,689.3,32.5,689.3z"/>
<path class="st10" d="M126.3,791.3h436.2c12.3,0,22.3,10,22.3,22.3v320.9c0,12.3-10,22.3-22.3,22.3H126.3c-12.3,0-22.3-10-22.3-22.3
	V813.7C104,801.3,114,791.3,126.3,791.3z"/>
<line class="st11" x1="104" y1="865.3" x2="586.5" y2="865.3"/>
<circle class="st2" cx="144" cy="827.3" r="8.5"/>
<circle class="st2" cx="167.9" cy="827.3" r="8.5"/>
<circle class="st2" cx="191.8" cy="827.3" r="8.5"/>
<rect x="132" y="894.3" class="st12" width="205.9" height="14"/>
<rect x="343.7" y="894.3" class="st8" width="69" height="14"/>
<rect x="419" y="894.3" class="st8" width="25.5" height="14"/>
<rect x="449.8" y="894.3" class="st8" width="98.7" height="14"/>
<rect x="397.8" y="919.5" class="st8" width="97.7" height="14"/>
<rect x="323" y="919.5" class="st12" width="69" height="14"/>
<rect x="291.2" y="919.5" class="st8" width="25.5" height="14"/>
<rect x="132" y="919.5" class="st8" width="153.9" height="14"/>
<rect x="132" y="944.7" class="st12" width="205.9" height="14"/>
<rect x="343.7" y="944.7" class="st8" width="69" height="14"/>
<rect x="419" y="944.7" class="st8" width="25.5" height="14"/>
<rect x="132" y="969.9" class="st8" width="205.9" height="14"/>
<rect x="343.7" y="969.9" class="st8" width="69" height="14"/>
<rect x="419" y="969.9" class="st12" width="25.5" height="14"/>
<rect x="449.8" y="969.9" class="st12" width="98.7" height="14"/>
<rect x="132" y="995.1" class="st8" width="205.9" height="14"/>
<rect x="343.7" y="995.1" class="st8" width="69" height="14"/>
<rect x="419" y="995.1" class="st8" width="25.5" height="14"/>
<rect x="323" y="1020.3" class="st8" width="182" height="14"/>
<rect x="291.2" y="1020.3" class="st12" width="25.5" height="14"/>
<rect x="132" y="1020.3" class="st12" width="153.9" height="14"/>
<path d="M319,1238.8l-2.6-8.5h-13l-2.6,8.5h-8.1l12.6-35.8h9.2l12.6,35.8H319z M314.6,1224c-2.4-7.7-3.7-12-4-13.1
	c-0.3-1-0.5-1.8-0.6-2.4c-0.5,2.1-2.1,7.2-4.6,15.4L314.6,1224z"/>
<path d="M346.1,1239.3c-2.9,0.1-5.7-1.2-7.5-3.5h-0.4c0.3,2.3,0.4,3.6,0.4,4v11.1h-7.4v-39.4h6.1l1,3.5h0.3c1.7-2.6,4.6-4.2,7.7-4
	c3-0.1,5.8,1.3,7.6,3.7c1.8,2.5,2.7,5.9,2.7,10.4c0.1,2.6-0.4,5.2-1.3,7.6c-0.7,2-2,3.7-3.6,4.9
	C350,1238.8,348.1,1239.3,346.1,1239.3z M343.9,1217c-1.5-0.1-3,0.5-4,1.7c-0.9,1.1-1.3,3-1.3,5.6v0.8c0,2.9,0.4,5,1.3,6.3
	c1,1.3,2.5,2,4.1,1.9c3.3,0,5-2.8,5-8.3c0.1-2.1-0.3-4.1-1.2-6C347,1217.7,345.5,1216.9,343.9,1217L343.9,1217z"/>
<path d="M377.7,1239.3c-2.9,0.1-5.7-1.2-7.5-3.5h-0.4c0.3,2.3,0.4,3.6,0.4,4v11.1h-7.5v-39.4h6.1l1,3.5h0.3c1.7-2.6,4.6-4.2,7.7-4
	c3-0.1,5.8,1.3,7.6,3.7c1.8,2.5,2.7,5.9,2.7,10.4c0.1,2.6-0.4,5.2-1.3,7.6c-0.7,2-2,3.7-3.6,4.9
	C381.7,1238.8,379.7,1239.3,377.7,1239.3z M375.5,1217c-1.5-0.1-3,0.5-4,1.7c-0.9,1.1-1.3,3-1.3,5.6v0.8c0,2.9,0.4,5,1.3,6.3
	c1,1.3,2.5,2,4.1,1.9c3.3,0,5-2.8,5-8.3c0.1-2.1-0.3-4.1-1.2-6C378.6,1217.7,377.1,1216.9,375.5,1217z"/>
<circle class="st1" cx="945" cy="973.1" r="187.5"/>
<path class="st2" d="M982,1078.3c0-4.5-3.7-8.2-8.2-8.2h-24.3v-17.2h40.7c4.5,0,8.2-3.7,8.2-8.2s-3.7-8.2-8.2-8.2h-40.7v-118
	c27.1-4.5,45.3-30.2,40.8-57.2c-4.5-27.1-30.2-45.3-57.2-40.8s-45.3,30.2-40.8,57.2c3.5,20.9,19.9,37.3,40.8,40.8v186
	c0,4.5,3.7,8.2,8.2,8.2s8.2-3.7,8.2-8.2v-17.9h24.3C978.3,1086.6,982,1082.9,982,1078.3z M908,869.5c0-18.4,14.9-33.3,33.2-33.3
	s33.3,14.9,33.3,33.2s-14.9,33.3-33.2,33.3l0,0C922.9,902.7,908.1,887.8,908,869.5L908,869.5z"/>
<g>
	<g>
		<defs>
			<circle id="SVGID_1_" cx="945" cy="973.1" r="187.5"/>
		</defs>
		<clipPath id="SVGID_2_">
			<use xlink:href="#SVGID_1_"  style="overflow:visible;"/>
		</clipPath>
		<g class="st13">
			<rect x="747.9" y="939.8" class="st0" width="391" height="66.5"/>
		</g>
	</g>
</g>
<path class="st1" d="M858.1,985l-3.2-5l8.9-5.4l-8.9-5.4l3.2-5l8.5,5v-10.4h6.4v10.4l8.6-5l3.2,5l-8.9,5.4l8.9,5.4l-3.2,5l-8.6-5
	v10.4h-6.4V980L858.1,985z"/>
<path class="st1" d="M895.7,985l-3.2-5l8.9-5.4l-8.9-5.4l3.2-5l8.5,5v-10.4h6.4v10.4l8.6-5l3.2,5l-8.9,5.4l8.9,5.4l-3.2,5l-8.6-5
	v10.4h-6.4V980L895.7,985z"/>
<path class="st1" d="M933.3,985l-3.2-5l8.9-5.4l-8.9-5.4l3.2-5l8.5,5v-10.4h6.4v10.4l8.6-5l3.2,5l-8.9,5.4l8.9,5.4l-3.2,5l-8.6-5
	v10.4h-6.4V980L933.3,985z"/>
<path class="st1" d="M970.9,985l-3.2-5l8.9-5.4l-8.9-5.4l3.2-5l8.5,5v-10.4h6.4v10.4l8.6-5l3.2,5l-8.9,5.4l8.9,5.4l-3.2,5l-8.6-5
	v10.4h-6.4V980L970.9,985z"/>
<path class="st1" d="M1008.5,985l-3.2-5l8.9-5.4l-8.9-5.4l3.2-5l8.5,5v-10.4h6.4v10.4l8.6-5l3.2,5l-8.9,5.4l8.9,5.4l-3.2,5l-8.6-5
	v10.4h-6.4V980L1008.5,985z"/>
<circle class="st14" cx="945" cy="973.1" r="187.5"/>
<path d="M792.4,1228.9c0.1,2.9-1.2,5.8-3.5,7.6c-2.3,1.9-5.5,2.8-9.7,2.8c-3.5,0.1-6.9-0.7-10.1-2.2v-7c2,0.9,4,1.7,6.1,2.3
	c1.5,0.4,3,0.6,4.6,0.7c1.3,0.1,2.7-0.3,3.8-1c0.9-0.7,1.4-1.7,1.3-2.8c0-0.7-0.2-1.3-0.6-1.9c-0.5-0.6-1.1-1.1-1.7-1.6
	c-1.5-0.9-3-1.7-4.6-2.4c-1.8-0.8-3.4-1.8-4.9-3c-1.1-0.9-2-2-2.6-3.3c-0.7-1.4-1-2.9-1-4.4c-0.1-2.8,1-5.6,3.2-7.4s5.1-2.7,8.9-2.7
	c1.8,0,3.6,0.2,5.3,0.7c1.8,0.5,3.6,1.1,5.3,1.9l-2.5,5.9c-1.5-0.7-3.1-1.2-4.7-1.6c-1.2-0.3-2.4-0.5-3.7-0.5
	c-1.2-0.1-2.4,0.3-3.3,1c-0.8,0.7-1.2,1.6-1.2,2.6c0,0.6,0.2,1.2,0.5,1.8c0.4,0.6,0.9,1.1,1.5,1.4c1.6,0.9,3.2,1.8,4.8,2.5
	c3.3,1.6,5.6,3.2,6.9,4.8C791.8,1224.6,792.4,1226.7,792.4,1228.9z"/>
<path d="M810.6,1239.3c-4.4,0-7.8-1.2-10.3-3.6s-3.7-5.9-3.7-10.3c0-4.6,1.1-8.1,3.4-10.6c2.3-2.5,5.4-3.7,9.5-3.8
	c3.9,0,6.9,1.1,9,3.3s3.2,5.2,3.2,9.1v3.6h-17.6c0,1.8,0.6,3.6,1.9,5c1.3,1.2,3.1,1.9,4.9,1.8c1.6,0,3.1-0.2,4.7-0.5
	c1.6-0.4,3.1-0.9,4.6-1.6v5.8c-1.3,0.7-2.7,1.1-4.2,1.4C814.2,1239.2,812.4,1239.3,810.6,1239.3z M809.5,1216.3
	c-1.4-0.1-2.8,0.5-3.7,1.5c-1,1.2-1.5,2.7-1.5,4.3h10.5c0.1-1.6-0.4-3.1-1.4-4.3C812.3,1216.8,811,1216.2,809.5,1216.3z"/>
<path d="M838.9,1239.3c-8.5,0-12.7-4.7-12.8-14c0-4.7,1.2-8.2,3.5-10.6s5.6-3.7,9.9-3.7c2.9,0,5.8,0.6,8.5,1.9l-2.2,5.8
	c-1.2-0.5-2.3-0.9-3.3-1.2c-1-0.3-2-0.4-3-0.4c-3.9,0-5.8,2.8-5.8,8.2c0,5.3,1.9,8,5.8,8c1.4,0,2.7-0.2,4-0.6s2.5-1,3.7-1.8v6.4
	c-1.1,0.7-2.4,1.3-3.7,1.6C842,1239.2,840.5,1239.3,838.9,1239.3z"/>
<path d="M872.8,1238.8l-1-3.5h-0.4c-0.8,1.3-2,2.3-3.4,2.9c-1.6,0.7-3.3,1-5,1c-3.2,0-5.6-0.9-7.2-2.6c-1.6-1.7-2.4-4.2-2.4-7.4
	v-17.8h7.5v16c-0.1,1.5,0.3,3.1,1,4.4c0.8,1,2,1.6,3.3,1.5c1.8,0.2,3.5-0.6,4.5-2.1c0.9-1.4,1.4-3.7,1.4-6.9v-12.8h7.5v27.3H872.8z"
	/>
<path d="M901.6,1211c0.8,0,1.7,0.1,2.5,0.2l-0.6,7c-0.7-0.2-1.5-0.3-2.2-0.2c-2-0.1-4,0.5-5.5,1.8c-1.4,1.3-2.1,3.2-2,5.1v13.9h-7.5
	v-27.3h5.6l1.1,4.6h0.4c0.8-1.5,2-2.8,3.4-3.7C898.3,1211.5,899.9,1211,901.6,1211z"/>
<path d="M921.4,1239.3c-4.4,0-7.8-1.2-10.3-3.6s-3.7-5.9-3.7-10.3c0-4.6,1.1-8.1,3.4-10.6c2.3-2.5,5.5-3.7,9.5-3.8
	c3.9,0,6.9,1.1,9,3.3s3.2,5.2,3.2,9.1v3.6H915c0,1.8,0.6,3.6,1.9,5c1.3,1.2,3.1,1.9,4.9,1.8c1.6,0,3.1-0.2,4.7-0.5
	c1.6-0.4,3.1-0.9,4.6-1.6v5.8c-1.3,0.7-2.7,1.1-4.2,1.4C925.1,1239.2,923.3,1239.3,921.4,1239.3z M920.4,1216.3
	c-1.4-0.1-2.8,0.5-3.7,1.5c-1,1.2-1.5,2.7-1.5,4.3h10.5c0.1-1.6-0.4-3.1-1.4-4.3C923.2,1216.8,921.8,1216.2,920.4,1216.3
	L920.4,1216.3z"/>
<path d="M952.2,1203.1h11.1c5.1,0,8.7,0.7,11,2.2s3.4,3.7,3.4,6.9c0.1,1.9-0.4,3.7-1.5,5.2c-0.9,1.3-2.4,2.2-4,2.5v0.2
	c1.9,0.3,3.7,1.3,4.9,2.8c1.1,1.6,1.6,3.6,1.5,5.5c0.1,3-1.2,5.8-3.5,7.6c-2.3,1.8-5.5,2.7-9.6,2.7h-13.3L952.2,1203.1L952.2,1203.1
	z M959.8,1217.2h4.4c1.6,0.1,3.1-0.2,4.5-1c1-0.7,1.5-1.9,1.4-3.2c0.1-1.2-0.5-2.3-1.5-2.9c-1.5-0.7-3.1-1-4.8-0.9h-4L959.8,1217.2z
	 M959.8,1223.2v9.3h4.9c1.6,0.1,3.3-0.3,4.6-1.2c1-0.9,1.6-2.3,1.5-3.7c0-3-2.1-4.4-6.3-4.4L959.8,1223.2z"/>
<path d="M1000.4,1211c0.8,0,1.7,0.1,2.5,0.2l-0.6,7c-0.7-0.2-1.5-0.3-2.2-0.2c-2-0.1-4,0.5-5.6,1.8c-1.4,1.3-2.1,3.2-2,5.1v13.9
	h-7.4v-27.3h5.6l1.1,4.6h0.4c0.8-1.5,2-2.8,3.4-3.7C997.1,1211.5,998.7,1211,1000.4,1211z"/>
<path d="M1032.7,1225.1c0,4.5-1.2,7.9-3.5,10.4s-5.6,3.8-9.8,3.8c-2.4,0-4.8-0.5-6.9-1.7c-2-1.2-3.6-2.9-4.6-5
	c-1.1-2.3-1.7-4.9-1.6-7.5c0-4.5,1.2-7.9,3.5-10.4s5.6-3.7,9.8-3.7c2.4,0,4.8,0.5,6.9,1.7c2,1.1,3.6,2.8,4.6,4.9
	C1032.2,1219.9,1032.8,1222.5,1032.7,1225.1z M1013.8,1225.1c-0.1,2.1,0.3,4.3,1.3,6.1c1,1.4,2.6,2.2,4.3,2.1
	c1.7,0.1,3.3-0.7,4.3-2.1c1-1.9,1.4-4,1.3-6.1c0.1-2.1-0.3-4.2-1.3-6.1c-2-2.4-5.5-2.7-7.9-0.7c-0.3,0.2-0.5,0.4-0.7,0.7
	C1014.1,1220.9,1013.7,1223,1013.8,1225.1L1013.8,1225.1z"/>
<path d="M1046,1224l3.2-4.2l7.6-8.3h8.4l-10.8,11.8l11.5,15.5h-8.6l-7.9-11.1l-3.2,2.6v8.5h-7.4v-38h7.4v16.9L1046,1224L1046,1224z"
	/>
<path d="M1082.2,1239.3c-4.4,0-7.8-1.2-10.3-3.6s-3.7-5.9-3.7-10.3c0-4.6,1.1-8.1,3.4-10.6s5.4-3.7,9.5-3.8c3.9,0,6.9,1.1,9,3.3
	c2.1,2.2,3.2,5.2,3.2,9.1v3.6h-17.6c0,1.8,0.6,3.6,1.9,5c1.3,1.2,3.1,1.9,4.9,1.8c1.6,0,3.1-0.2,4.7-0.5c1.6-0.4,3.1-0.9,4.6-1.6
	v5.8c-1.3,0.7-2.7,1.1-4.2,1.4C1085.8,1239.2,1084,1239.3,1082.2,1239.3z M1081.2,1216.3c-1.4-0.1-2.8,0.5-3.7,1.5
	c-1,1.2-1.5,2.7-1.5,4.3h10.4c0.1-1.6-0.4-3.1-1.4-4.3C1084,1216.8,1082.6,1216.2,1081.2,1216.3L1081.2,1216.3z"/>
<path d="M1114.6,1211c0.8,0,1.7,0.1,2.5,0.2l-0.6,7c-0.7-0.2-1.5-0.3-2.2-0.2c-2-0.1-4,0.5-5.6,1.8c-1.4,1.3-2.1,3.2-2,5.1v13.9
	h-7.4v-27.3h5.6l1.1,4.6h0.4c0.8-1.5,2-2.8,3.4-3.7C1111.3,1211.5,1112.9,1211,1114.6,1211z"/>
<line class="st6" x1="1194.5" y1="1004.3" x2="1196.1" y2="1004.3"/>
<line class="st15" x1="1197.7" y1="1004.3" x2="1364" y2="1003.7"/>
<line class="st6" x1="1364.8" y1="1003.7" x2="1366.4" y2="1003.7"/>
<polygon class="st8" points="1351,1024.1 1359.6,1003.7 1350.8,983.3 1399.2,1003.5 "/>
<line class="st6" x1="614.5" y1="1004.3" x2="616.1" y2="1004.3"/>
<line class="st16" x1="617.7" y1="1004.3" x2="689.3" y2="1004.3"/>
<line class="st6" x1="690.1" y1="1004.3" x2="691.7" y2="1004.3"/>
<polygon class="st8" points="676.2,1024.7 684.9,1004.3 676.2,984 724.5,1004.3 "/>
</svg>
