<svg id="Layer_1" data-name="Layer 1" xmlns="http://www.w3.org/2000/svg" viewBox="0 0 1857.63 1292.29"><defs><style>.cls-1{fill:#c1272d;}.cls-2{fill:#08141c;}.cls-14,.cls-3,.cls-4,.cls-7{fill:#fff;}.cls-14,.cls-15,.cls-3,.cls-4,.cls-5{stroke:#08141c;}.cls-11,.cls-12,.cls-13,.cls-14,.cls-15,.cls-3,.cls-4,.cls-5,.cls-8,.cls-9{stroke-miterlimit:10;}.cls-3{stroke-width:9.66px;}.cls-11,.cls-12,.cls-13,.cls-4,.cls-5,.cls-8,.cls-9{stroke-width:11px;}.cls-11,.cls-12,.cls-13,.cls-15,.cls-5,.cls-8,.cls-9{fill:none;}.cls-6{fill:#39b54a;}.cls-13,.cls-8,.cls-9{stroke:#4d8fcc;}.cls-11,.cls-12,.cls-13,.cls-8,.cls-9{stroke-linecap:round;}.cls-9{stroke-dasharray:3.16 1.58;}.cls-10{fill:#4d8fcc;}.cls-11,.cls-12{stroke:#c1272d;}.cls-12,.cls-13{stroke-dasharray:3.2 1.6;}.cls-14{stroke-width:9.48px;}.cls-15{stroke-width:10.09px;}.cls-16{fill:#999;}</style></defs><title>traditional_architecture_2</title><path d="M1397.85,607.61c-97.09,0-172.85,33.26-172.85,75.59V957c0,42.33,76.19,75.58,172.85,75.58S1570.7,999.36,1570.7,957V683.63C1570.7,640.87,1494.94,607.61,1397.85,607.61Zm157.61,349.85c0,29.37-63.57,60.47-157.61,60.47s-157.61-31.53-157.61-60.47v-59.6c26.56,26.34,86.64,44,157.61,44s131.05-17.71,157.61-44Zm0-91.13c0,29.37-63.57,60.47-157.61,60.47s-157.61-31.53-157.61-60.47v-60c26.56,26.35,86.64,44.49,157.61,44.49s131.05-17.71,157.61-44Zm0-91.57c0,29.37-63.57,60.47-157.61,60.47s-157.61-31.53-157.61-60.47v-59.6c27,26.35,86.64,44.05,157.61,44.05s131.05-17.7,157.61-44.05ZM1397.85,744.1c-94.48,0-157.61-31.53-157.61-60.47s63.57-60.47,157.61-60.47,157.61,31.53,157.61,60.47S1492.33,744.1,1397.85,744.1Z"/><path d="M1242.72,1101h-7.56v-29.4h-9.7v-6.29h27v6.29h-9.7Z"/><path d="M1274.66,1101l-1.44-3.71h-.2a10.91,10.91,0,0,1-3.87,3.28,12.47,12.47,0,0,1-5.19.92,8.39,8.39,0,0,1-6.19-2.25,8.65,8.65,0,0,1-2.25-6.4c0-2.89,1-5,3-6.4s5.08-2.14,9.16-2.29l4.74-.14v-1.2q0-4.15-4.25-4.15a19.36,19.36,0,0,0-7.69,2l-2.46-5a22.21,22.21,0,0,1,10.44-2.47c3.67,0,6.47.8,8.43,2.4s2.93,4,2.93,7.27V1101Zm-2.2-12.65-2.88.1a9.28,9.28,0,0,0-4.83,1.17,3.69,3.69,0,0,0-1.59,3.27q0,3.15,3.61,3.15a5.68,5.68,0,0,0,4.14-1.49,5.23,5.23,0,0,0,1.55-4Z"/><path d="M1302.76,1073.16a11.74,11.74,0,0,1,2.51.22l-.56,7a8.64,8.64,0,0,0-2.2-.24A7.9,7.9,0,0,0,1297,1082a6.61,6.61,0,0,0-2,5.13V1101h-7.45v-27.3h5.64l1.1,4.59h.37a10.14,10.14,0,0,1,3.43-3.69A8.41,8.41,0,0,1,1302.76,1073.16Z"/><path d="M1334,1073.67v3.79l-4.27,1.1a7.43,7.43,0,0,1,1.17,4.1,8.29,8.29,0,0,1-3.06,6.85q-3.06,2.45-8.51,2.45l-1.34-.07-1.1-.12a2.45,2.45,0,0,0-1.15,2c0,1.07,1.37,1.61,4.1,1.61h4.64q4.5,0,6.85,1.93a6.88,6.88,0,0,1,2.36,5.66,8.38,8.38,0,0,1-4,7.42q-4,2.64-11.46,2.64-5.71,0-8.73-2a6.32,6.32,0,0,1-3-5.58,5.8,5.8,0,0,1,1.54-4.12,8.68,8.68,0,0,1,4.51-2.37,5.06,5.06,0,0,1-2-1.6,3.95,3.95,0,0,1,0-5,10.48,10.48,0,0,1,2.61-2,7.26,7.26,0,0,1-3.4-3,9.07,9.07,0,0,1-1.26-4.84,8.55,8.55,0,0,1,2.9-6.91c1.94-1.62,4.71-2.44,8.31-2.44a21,21,0,0,1,2.72.21q1.58.21,2,.3Zm-21.07,31.16a2.7,2.7,0,0,0,1.48,2.41,8.09,8.09,0,0,0,4.14.88,14.51,14.51,0,0,0,6.27-1.1c1.52-.73,2.27-1.73,2.27-3a2.12,2.12,0,0,0-1.34-2.12,11,11,0,0,0-4.15-.59h-3.86a5.81,5.81,0,0,0-3.43,1A3,3,0,0,0,1312.91,1104.83Zm2.71-22.22a5.51,5.51,0,0,0,1,3.51,3.65,3.65,0,0,0,3.09,1.3,3.59,3.59,0,0,0,3.07-1.3,5.69,5.69,0,0,0,1-3.51q0-4.93-4-4.93T1315.62,1082.61Z"/><path d="M1350.83,1101.46q-6.6,0-10.3-3.64t-3.71-10.3q0-6.87,3.43-10.61t9.48-3.75q5.79,0,9,3.3t3.22,9.1v3.62h-17.6a7.15,7.15,0,0,0,1.88,5,6.6,6.6,0,0,0,4.93,1.79,20.54,20.54,0,0,0,4.66-.52,22.87,22.87,0,0,0,4.59-1.63v5.76a17.59,17.59,0,0,1-4.17,1.45A26.12,26.12,0,0,1,1350.83,1101.46Zm-1-23a4.71,4.71,0,0,0-3.71,1.5,6.91,6.91,0,0,0-1.54,4.26H1355a6.18,6.18,0,0,0-1.44-4.26A4.88,4.88,0,0,0,1349.78,1078.46Z"/><path d="M1379.52,1095.53a16.11,16.11,0,0,0,4.68-.86v5.54a16.67,16.67,0,0,1-6.83,1.25q-4.47,0-6.51-2.26c-1.36-1.51-2-3.76-2-6.78v-13.15h-3.56v-3.15l4.1-2.5,2.15-5.76h4.76v5.81h7.64v5.6h-7.64v13.15a2.94,2.94,0,0,0,.89,2.35A3.54,3.54,0,0,0,1379.52,1095.53Z"/><path d="M1424.36,1091.06a9.23,9.23,0,0,1-3.47,7.61q-3.48,2.79-9.68,2.79a22.77,22.77,0,0,1-10.11-2.15v-7a42.14,42.14,0,0,0,6.11,2.27,18.12,18.12,0,0,0,4.58.66,6.55,6.55,0,0,0,3.82-1,3.26,3.26,0,0,0,1.33-2.84,3.09,3.09,0,0,0-.58-1.86,6.67,6.67,0,0,0-1.72-1.58,46,46,0,0,0-4.63-2.42,21.93,21.93,0,0,1-4.91-3,11,11,0,0,1-2.61-3.3,9.38,9.38,0,0,1-1-4.39,9.23,9.23,0,0,1,3.21-7.45c2.14-1.8,5.1-2.71,8.88-2.71a21,21,0,0,1,5.31.66,36.48,36.48,0,0,1,5.28,1.86l-2.44,5.88a35.87,35.87,0,0,0-4.72-1.63,15.22,15.22,0,0,0-3.68-.47,4.88,4.88,0,0,0-3.29,1,3.3,3.3,0,0,0-1.15,2.62,3.23,3.23,0,0,0,.46,1.74,5.1,5.1,0,0,0,1.48,1.44,44.67,44.67,0,0,0,4.8,2.5q5,2.4,6.86,4.8A9.34,9.34,0,0,1,1424.36,1091.06Z"/><path d="M1442.6,1101.46q-6.58,0-10.3-3.64t-3.71-10.3q0-6.87,3.43-10.61c2.28-2.5,5.45-3.75,9.48-3.75q5.79,0,9,3.3t3.22,9.1v3.62h-17.6a7.15,7.15,0,0,0,1.88,5,6.61,6.61,0,0,0,4.93,1.79,20.62,20.62,0,0,0,4.67-.52,23.32,23.32,0,0,0,4.59-1.63v5.76A17.82,17.82,0,0,1,1448,1101,26.12,26.12,0,0,1,1442.6,1101.46Zm-1-23a4.73,4.73,0,0,0-3.71,1.5,7,7,0,0,0-1.54,4.26h10.45a6.18,6.18,0,0,0-1.44-4.26A4.88,4.88,0,0,0,1441.55,1078.46Z"/><path d="M1475,1073.16a11.84,11.84,0,0,1,2.52.22l-.56,7a8.75,8.75,0,0,0-2.2-.24,7.87,7.87,0,0,0-5.55,1.83,6.61,6.61,0,0,0-2,5.13V1101h-7.45v-27.3h5.64l1.1,4.59h.36a10.22,10.22,0,0,1,3.43-3.69A8.44,8.44,0,0,1,1475,1073.16Z"/><path d="M1489,1101l-10.4-27.3h7.79l5.27,15.56a27.69,27.69,0,0,1,1.1,5.59h.14a24.72,24.72,0,0,1,1.1-5.59l5.25-15.56H1507l-10.4,27.3Z"/><path d="M1510.62,1066.62q0-3.64,4.05-3.64t4,3.64a3.55,3.55,0,0,1-1,2.7,4.26,4.26,0,0,1-3,1Q1510.62,1070.28,1510.62,1066.62Zm7.76,34.35h-7.44v-27.3h7.44Z"/><path d="M1537.28,1101.46q-12.75,0-12.74-14,0-7,3.46-10.63t9.94-3.68a18.85,18.85,0,0,1,8.49,1.86l-2.19,5.76c-1.17-.47-2.27-.86-3.27-1.16a10.59,10.59,0,0,0-3-.45q-5.82,0-5.81,8.25,0,8,5.81,8a13,13,0,0,0,4-.58,14.38,14.38,0,0,0,3.66-1.79v6.37a12,12,0,0,1-3.65,1.59A20.7,20.7,0,0,1,1537.28,1101.46Z"/><path d="M1564.26,1101.46q-6.6,0-10.31-3.64t-3.71-10.3q0-6.87,3.43-10.61t9.49-3.75q5.79,0,9,3.3t3.22,9.1v3.62h-17.6a7.15,7.15,0,0,0,1.88,5,6.6,6.6,0,0,0,4.93,1.79,20.54,20.54,0,0,0,4.66-.52,22.87,22.87,0,0,0,4.59-1.63v5.76a17.59,17.59,0,0,1-4.17,1.45A26.12,26.12,0,0,1,1564.26,1101.46Zm-1-23a4.71,4.71,0,0,0-3.71,1.5,6.91,6.91,0,0,0-1.54,4.26h10.45A6.28,6.28,0,0,0,1567,1080,4.88,4.88,0,0,0,1563.21,1078.46Z"/><path class="cls-1" d="M575.17,1124.41q0,5.76-3.61,8.81t-10.24,3h-3.24V1149h-7.57v-35.69h11.4q6.5,0,9.87,2.79C574,1117.94,575.17,1120.71,575.17,1124.41Zm-17.09,5.66h2.49a8.3,8.3,0,0,0,5.22-1.38,4.8,4.8,0,0,0,1.73-4,4.93,4.93,0,0,0-1.45-3.93,6.79,6.79,0,0,0-4.55-1.27h-3.44Z"/><path class="cls-1" d="M606.12,1135.27q0,6.68-3.51,10.43t-9.79,3.76a13.79,13.79,0,0,1-6.94-1.72,11.45,11.45,0,0,1-4.61-5,16.53,16.53,0,0,1-1.61-7.52q0-6.69,3.49-10.4t9.81-3.71a13.81,13.81,0,0,1,6.94,1.71,11.41,11.41,0,0,1,4.61,4.91A16.5,16.5,0,0,1,606.12,1135.27Zm-18.87,0a11.43,11.43,0,0,0,1.33,6.13,4.75,4.75,0,0,0,4.33,2.08,4.68,4.68,0,0,0,4.29-2.07,11.62,11.62,0,0,0,1.3-6.14,11.28,11.28,0,0,0-1.31-6.08,5.62,5.62,0,0,0-8.62,0Q587.25,1131.19,587.25,1135.27Z"/><path class="cls-1" d="M623.77,1143.53a16.11,16.11,0,0,0,4.69-.86v5.54a16.69,16.69,0,0,1-6.84,1.25q-4.46,0-6.5-2.26c-1.36-1.51-2-3.76-2-6.78v-13.15h-3.56v-3.15l4.1-2.5,2.15-5.76h4.76v5.81h7.64v5.6h-7.64v13.15a2.91,2.91,0,0,0,.89,2.35A3.53,3.53,0,0,0,623.77,1143.53Z"/><path class="cls-1" d="M646.33,1149.46q-6.58,0-10.3-3.64t-3.71-10.3q0-6.87,3.43-10.61t9.48-3.75q5.79,0,9,3.3t3.22,9.1v3.62h-17.6a7.15,7.15,0,0,0,1.88,5,6.61,6.61,0,0,0,4.93,1.79,20.62,20.62,0,0,0,4.67-.52,23.32,23.32,0,0,0,4.59-1.63v5.76a17.82,17.82,0,0,1-4.18,1.45A26.12,26.12,0,0,1,646.33,1149.46Zm-1.05-23a4.73,4.73,0,0,0-3.71,1.5,7,7,0,0,0-1.54,4.26h10.45A6.18,6.18,0,0,0,649,1128,4.88,4.88,0,0,0,645.28,1126.46Z"/><path class="cls-1" d="M688.71,1149h-7.44V1133a7.64,7.64,0,0,0-1-4.43,3.82,3.82,0,0,0-3.35-1.48,5,5,0,0,0-4.51,2.09c-.93,1.39-1.39,3.69-1.39,6.92V1149h-7.45v-27.3h5.69l1,3.5h.41a7.94,7.94,0,0,1,3.43-3,11.8,11.8,0,0,1,5-1c3.18,0,5.58.86,7.23,2.58s2.46,4.19,2.46,7.43Z"/><path class="cls-1" d="M707.88,1143.53a16.23,16.23,0,0,0,4.69-.86v5.54a16.75,16.75,0,0,1-6.84,1.25q-4.47,0-6.5-2.26c-1.36-1.51-2-3.76-2-6.78v-13.15h-3.57v-3.15l4.1-2.5,2.15-5.76h4.76v5.81h7.64v5.6h-7.64v13.15a2.94,2.94,0,0,0,.89,2.35A3.56,3.56,0,0,0,707.88,1143.53Z"/><path class="cls-1" d="M717.77,1114.62q0-3.64,4.05-3.64t4,3.64a3.55,3.55,0,0,1-1,2.7,4.28,4.28,0,0,1-3,1Q717.77,1118.28,717.77,1114.62Zm7.76,34.35h-7.45v-27.3h7.45Z"/><path class="cls-1" d="M750.68,1149l-1.44-3.71H749a10.91,10.91,0,0,1-3.87,3.28,12.47,12.47,0,0,1-5.19.92,8.35,8.35,0,0,1-6.18-2.25,8.62,8.62,0,0,1-2.26-6.4c0-2.89,1-5,3-6.4s5.08-2.14,9.16-2.29l4.74-.14v-1.2q0-4.15-4.25-4.15a19.36,19.36,0,0,0-7.69,2l-2.46-5a22.22,22.22,0,0,1,10.45-2.47q5.49,0,8.42,2.4c1.95,1.59,2.93,4,2.93,7.27V1149Zm-2.2-12.65-2.88.1a9.28,9.28,0,0,0-4.83,1.17,3.69,3.69,0,0,0-1.59,3.27q0,3.15,3.61,3.15a5.68,5.68,0,0,0,4.14-1.49,5.23,5.23,0,0,0,1.55-4Z"/><path class="cls-1" d="M771,1149h-7.45v-38H771Z"/><path class="cls-1" d="M568.5,1193.27h-6.45V1215h-7.44v-21.7h-4.1v-3.59l4.1-2v-2q0-4.67,2.29-6.81t7.35-2.15a19.23,19.23,0,0,1,6.86,1.15l-1.9,5.47a14,14,0,0,0-4.15-.71,2.68,2.68,0,0,0-2.3.94,3.91,3.91,0,0,0-.71,2.4v1.71h6.45Z"/><path class="cls-1" d="M597.58,1201.27q0,6.68-3.52,10.43t-9.79,3.76a13.75,13.75,0,0,1-6.93-1.72,11.53,11.53,0,0,1-4.62-5,16.66,16.66,0,0,1-1.61-7.52q0-6.69,3.49-10.4t9.82-3.71a13.75,13.75,0,0,1,6.93,1.71,11.49,11.49,0,0,1,4.62,4.91A16.5,16.5,0,0,1,597.58,1201.27Zm-18.87,0a11.43,11.43,0,0,0,1.33,6.13,4.74,4.74,0,0,0,4.33,2.08,4.67,4.67,0,0,0,4.28-2.07,11.61,11.61,0,0,0,1.31-6.14,11.27,11.27,0,0,0-1.32-6.08,5.62,5.62,0,0,0-8.62,0C579.14,1196.52,578.71,1198.55,578.71,1201.27Z"/><path class="cls-1" d="M619,1187.16a11.84,11.84,0,0,1,2.52.22l-.56,7a8.75,8.75,0,0,0-2.2-.24,7.87,7.87,0,0,0-5.55,1.83,6.61,6.61,0,0,0-2,5.13V1215h-7.45v-27.3h5.64l1.1,4.59h.36a10.22,10.22,0,0,1,3.43-3.69A8.44,8.44,0,0,1,619,1187.16Z"/><path class="cls-1" d="M640,1215v-35.69h7.57v29.44h14.47V1215Z"/><path class="cls-1" d="M680,1215.46q-6.59,0-10.3-3.64t-3.71-10.3q0-6.87,3.43-10.61t9.48-3.75q5.79,0,9,3.3t3.23,9.1v3.62H673.55a7.15,7.15,0,0,0,1.88,5,6.64,6.64,0,0,0,4.94,1.79,20.6,20.6,0,0,0,4.66-.52,23.32,23.32,0,0,0,4.59-1.63v5.76a17.67,17.67,0,0,1-4.18,1.45A26.05,26.05,0,0,1,680,1215.46Zm-1-23a4.73,4.73,0,0,0-3.71,1.5,7,7,0,0,0-1.54,4.26h10.45a6.18,6.18,0,0,0-1.44-4.26A4.87,4.87,0,0,0,679,1192.46Z"/><path class="cls-1" d="M714.54,1215l-1.44-3.71h-.19a10.91,10.91,0,0,1-3.87,3.28,12.53,12.53,0,0,1-5.19.92,8.39,8.39,0,0,1-6.19-2.25,8.66,8.66,0,0,1-2.26-6.4,7.2,7.2,0,0,1,3-6.4q3-2.07,9.17-2.29l4.74-.14v-1.2q0-4.15-4.25-4.15a19.32,19.32,0,0,0-7.69,2l-2.47-5a22.25,22.25,0,0,1,10.45-2.47q5.49,0,8.43,2.4c1.95,1.59,2.93,4,2.93,7.27V1215Zm-2.19-12.65-2.88.1a9.35,9.35,0,0,0-4.84,1.17,3.68,3.68,0,0,0-1.58,3.27q0,3.15,3.61,3.15a5.72,5.72,0,0,0,4.14-1.49,5.23,5.23,0,0,0,1.55-4Z"/><path class="cls-1" d="M734.56,1200.12l3.25-4.15,7.64-8.3h8.4L743,1199.52l11.5,15.45h-8.59l-7.86-11.06-3.2,2.56v8.5h-7.45v-38h7.45v16.94l-.39,6.2Z"/><path class="cls-1" d="M777.46,1206.86a7.52,7.52,0,0,1-2.92,6.4c-1.94,1.46-4.85,2.2-8.73,2.2a27.18,27.18,0,0,1-5.07-.41,18.71,18.71,0,0,1-3.93-1.18v-6.15a26,26,0,0,0,4.67,1.63,18.89,18.89,0,0,0,4.58.66q4.05,0,4.05-2.34a2,2,0,0,0-.54-1.43,7.62,7.62,0,0,0-1.85-1.24c-.88-.47-2.05-1-3.52-1.63a21.87,21.87,0,0,1-4.62-2.44,6.91,6.91,0,0,1-2.15-2.57,8.47,8.47,0,0,1-.67-3.58,6.49,6.49,0,0,1,2.82-5.63c1.88-1.32,4.54-2,8-2a22.75,22.75,0,0,1,9.6,2.15l-2.25,5.37c-1.37-.58-2.64-1.06-3.83-1.44a12.18,12.18,0,0,0-3.64-.56c-2.2,0-3.3.59-3.3,1.78a2.11,2.11,0,0,0,1.07,1.74,29,29,0,0,0,4.65,2.17,21.31,21.31,0,0,1,4.68,2.42,7,7,0,0,1,2.2,2.58A8,8,0,0,1,777.46,1206.86Z"/><rect class="cls-2" x="401" y="318" width="346" height="53" rx="12.73" ry="12.73"/><rect class="cls-3" x="362.75" y="10" width="420" height="337.25" rx="29.18" ry="29.18"/><circle class="cls-4" cx="572.31" cy="209.86" r="95.86"/><line class="cls-5" x1="573.19" y1="114.89" x2="572.31" y2="307.5"/><line class="cls-5" x1="669.06" y1="211.64" x2="476.44" y2="210.75"/><line class="cls-5" x1="640.53" y1="279.61" x2="504.97" y2="142.78"/><line class="cls-5" x1="641.16" y1="143.41" x2="504.34" y2="278.98"/><circle class="cls-4" cx="572.31" cy="209.86" r="38.61"/><path d="M531.09,41.28h7.65L526.6,77h-8.25L506.24,41.28h7.64l6.72,21.24c.37,1.25.76,2.71,1.16,4.38s.64,2.83.74,3.48a62.71,62.71,0,0,1,1.83-7.86Z"/><path d="M560,77l-1.44-3.71h-.2a10.91,10.91,0,0,1-3.87,3.28,12.53,12.53,0,0,1-5.19.92,8.39,8.39,0,0,1-6.19-2.25,8.66,8.66,0,0,1-2.26-6.4,7.2,7.2,0,0,1,3-6.4q3-2.07,9.17-2.29l4.74-.14v-1.2q0-4.16-4.25-4.15a19.36,19.36,0,0,0-7.69,2l-2.47-5a22.28,22.28,0,0,1,10.45-2.47c3.67,0,6.47.8,8.43,2.4s2.93,4,2.93,7.27V77Zm-2.2-12.65-2.88.1a9.35,9.35,0,0,0-4.84,1.17,3.7,3.7,0,0,0-1.58,3.27q0,3.15,3.61,3.15a5.72,5.72,0,0,0,4.14-1.49,5.23,5.23,0,0,0,1.55-4Z"/><path d="M592.18,77l-1-3.49h-.39a7.84,7.84,0,0,1-3.4,2.94,11.58,11.58,0,0,1-5,1q-4.82,0-7.25-2.58t-2.44-7.41V49.67h7.44v16a7.66,7.66,0,0,0,1.05,4.43,3.84,3.84,0,0,0,3.35,1.48,5,5,0,0,0,4.51-2.09q1.4-2.09,1.39-6.92V49.67h7.45V77Z"/><path d="M613.15,77H605.7V39h7.45Z"/><path d="M632.46,71.53a16.17,16.17,0,0,0,4.69-.86v5.54a16.75,16.75,0,0,1-6.84,1.25c-3,0-5.14-.75-6.5-2.26s-2-3.76-2-6.78V55.27H618.2V52.12l4.1-2.5,2.15-5.76h4.76v5.81h7.65v5.6h-7.65V68.42a2.94,2.94,0,0,0,.89,2.35A3.56,3.56,0,0,0,632.46,71.53Z"/><path class="cls-6" d="M1168,937.57A27.55,27.55,0,0,1,1140.44,910V831.36a27.36,27.36,0,0,1,17.72-25.74V787.87A37.91,37.91,0,0,1,1196,750h23.8a37.91,37.91,0,0,1,37.87,37.87v18.25a27.37,27.37,0,0,1,16.48,25.24V910a27.56,27.56,0,0,1-27.52,27.53Zm39.34-87.5a7.94,7.94,0,0,0-4.62,14.4l4,2.88-.76,4.87a1.1,1.1,0,0,0,0,.18v17.89a1,1,0,0,0,1,1h.74a1,1,0,0,0,1-1V872.38s-.78-5-.78-5l4-2.87a7.86,7.86,0,0,0,3.33-6.45A8,8,0,0,0,1207.3,850.07Zm22.3-46.24v-16a9.8,9.8,0,0,0-9.78-9.79H1196a9.8,9.8,0,0,0-9.78,9.79v16Z"/><path class="cls-7" d="M1219.82,758a29.9,29.9,0,0,1,29.87,29.87v24.2a19.53,19.53,0,0,1,16.48,19.28V910a19.52,19.52,0,0,1-19.52,19.53H1168A19.52,19.52,0,0,1,1148.44,910V831.35a19.52,19.52,0,0,1,17.72-19.43v-24A29.9,29.9,0,0,1,1196,758h23.8m-41.58,53.83h59.36v-24a17.81,17.81,0,0,0-17.78-17.79H1196a17.81,17.81,0,0,0-17.78,17.79v24m28.69,87.5h.74a9,9,0,0,0,9-9V872.38a9.36,9.36,0,0,0-.12-1.41,16,16,0,1,0-18.57,0,8.21,8.21,0,0,0-.12,1.41v17.91a9,9,0,0,0,9,9M1219.82,742H1196a45.92,45.92,0,0,0-45.86,45.87v12.74a35.56,35.56,0,0,0-17.72,30.74V910A35.56,35.56,0,0,0,1168,945.57h78.69A35.57,35.57,0,0,0,1282.17,910V831.35a35.53,35.53,0,0,0-16.48-30v-13.5A45.93,45.93,0,0,0,1219.82,742Zm-25.58,53.83v-8a1.81,1.81,0,0,1,1.78-1.79h23.8a1.81,1.81,0,0,1,1.78,1.79v8Z"/><line class="cls-8" x1="573.5" y1="395.5" x2="573.5" y2="397.1"/><line class="cls-9" x1="573.49" y1="398.68" x2="573.08" y2="578.16"/><line class="cls-8" x1="573.08" y1="578.95" x2="573.08" y2="580.55"/><polygon class="cls-10" points="552.75 565.06 573.09 573.76 593.48 565.15 573 613.39 552.75 565.06"/><line class="cls-11" x1="452.5" y1="1043.5" x2="452.5" y2="1045.1"/><line class="cls-12" x1="452.5" y1="1046.7" x2="452.07" y2="1252.15"/><line class="cls-11" x1="452.07" y1="1252.95" x2="452.07" y2="1254.55"/><polygon class="cls-1" points="431.73 1239.07 452.08 1247.76 472.47 1239.15 452 1287.39 431.73 1239.07"/><line class="cls-8" x1="875.31" y1="854.19" x2="876.91" y2="854.2"/><line class="cls-13" x1="878.51" y1="854.2" x2="1083.96" y2="854.62"/><line class="cls-8" x1="1084.76" y1="854.62" x2="1086.36" y2="854.63"/><polygon class="cls-10" points="1070.87 874.96 1079.57 854.61 1070.96 834.23 1119.2 854.69 1070.87 874.96"/><polygon class="cls-7" points="557 451 595 490.88 595 534 546 487.65 557 451"/><path class="cls-2" d="M633.85,513.1a5.5,5.5,0,0,0-7.78,0l-11.49,11.49-8.13-8.13,19.27-19.27a5.5,5.5,0,0,0-7.78-7.78l-19.27,19.27L549.2,459.21a33.25,33.25,0,1,0-7.78,7.78l81.65,81.64a5.5,5.5,0,0,0,7.78-7.78l-8.49-8.48,11.49-11.49A5.5,5.5,0,0,0,633.85,513.1ZM506.4,455.65a22.25,22.25,0,1,1,31.46,0A22.27,22.27,0,0,1,506.4,455.65Z"/><polygon class="cls-7" points="439 1122 477 1161.88 477 1205 428 1158.65 439 1122"/><circle class="cls-7" cx="397.13" cy="1103.91" r="27.75"/><path class="cls-2" d="M373.62,1127.43a33.25,33.25,0,1,1,47,0A33.29,33.29,0,0,1,373.62,1127.43Zm39.24-39.25a22.25,22.25,0,1,0,0,31.47A22.28,22.28,0,0,0,412.86,1088.18Z"/><path class="cls-2" d="M498.07,1212.63l-84.15-84.14a5.5,5.5,0,1,1,7.78-7.78l84.15,84.14a5.5,5.5,0,1,1-7.78,7.78Z"/><path class="cls-2" d="M488.35,1197.61a5.5,5.5,0,0,1,0-7.78l12.72-12.73a5.5,5.5,0,1,1,7.78,7.78l-12.73,12.73A5.5,5.5,0,0,1,488.35,1197.61Z"/><path class="cls-2" d="M472.44,1181.7a5.5,5.5,0,0,1,0-7.78l20.5-20.51a5.5,5.5,0,0,1,7.78,7.78l-20.51,20.51A5.5,5.5,0,0,1,472.44,1181.7Z"/><rect class="cls-14" x="336.5" y="632.5" width="480.82" height="365.5" rx="22.32" ry="22.32"/><line class="cls-15" x1="336.5" y1="706.5" x2="819" y2="706.5"/><circle class="cls-2" cx="376.5" cy="668.5" r="8.5"/><circle class="cls-2" cx="400.38" cy="668.5" r="8.5"/><circle class="cls-2" cx="424.26" cy="668.5" r="8.5"/><rect class="cls-16" x="364.5" y="735.5" width="205.86" height="14"/><rect class="cls-10" x="576.2" y="735.5" width="68.97" height="14"/><rect class="cls-10" x="651.54" y="735.5" width="25.47" height="14"/><rect class="cls-10" x="682.31" y="735.5" width="98.69" height="14"/><rect class="cls-10" x="630.32" y="760.7" width="97.68" height="14" transform="translate(1358.32 1535.4) rotate(180)"/><rect class="cls-16" x="555.51" y="760.7" width="68.97" height="14" transform="translate(1179.99 1535.4) rotate(180)"/><rect class="cls-10" x="523.67" y="760.7" width="25.47" height="14" transform="translate(1072.81 1535.4) rotate(180)"/><rect class="cls-10" x="364.5" y="760.7" width="153.87" height="14" transform="translate(882.87 1535.4) rotate(180)"/><rect class="cls-16" x="364.5" y="785.9" width="205.86" height="14"/><rect class="cls-10" x="576.2" y="785.9" width="68.97" height="14"/><rect class="cls-10" x="651.54" y="785.9" width="25.47" height="14"/><rect class="cls-10" x="364.5" y="811.1" width="205.86" height="14"/><rect class="cls-10" x="576.2" y="811.1" width="68.97" height="14"/><rect class="cls-16" x="651.54" y="811.1" width="25.47" height="14"/><rect class="cls-16" x="682.31" y="811.1" width="98.69" height="14"/><rect class="cls-10" x="364.5" y="836.3" width="205.86" height="14"/><rect class="cls-10" x="576.2" y="836.3" width="68.97" height="14"/><rect class="cls-10" x="651.54" y="836.3" width="25.47" height="14"/><rect class="cls-10" x="555.51" y="861.5" width="181.99" height="14" transform="translate(1293 1737) rotate(180)"/><rect class="cls-16" x="523.67" y="861.5" width="25.47" height="14" transform="translate(1072.81 1737) rotate(180)"/><rect class="cls-16" x="364.5" y="861.5" width="153.87" height="14" transform="translate(882.87 1737) rotate(180)"/><path d="M551.54,961l-2.59-8.5h-13l-2.59,8.5H525.2l12.6-35.84h9.25L559.7,961Zm-4.39-14.85q-3.6-11.54-4-13.06c-.31-1-.52-1.8-.65-2.39q-.81,3.12-4.62,15.45Z"/><path d="M578.59,961.46a9.07,9.07,0,0,1-7.54-3.49h-.39c.26,2.28.39,3.59.39,3.95V973H563.6V933.67h6.06l1.05,3.54h.34a8.61,8.61,0,0,1,7.74-4.05,8.88,8.88,0,0,1,7.57,3.74q2.73,3.74,2.73,10.37a20.6,20.6,0,0,1-1.28,7.6,10.69,10.69,0,0,1-3.65,4.9A9.33,9.33,0,0,1,578.59,961.46Zm-2.2-22.34a4.67,4.67,0,0,0-4,1.7c-.85,1.13-1.29,3-1.32,5.6v.8q0,4.39,1.3,6.3a4.66,4.66,0,0,0,4.14,1.91q5,0,5-8.25a11.73,11.73,0,0,0-1.24-6A4.21,4.21,0,0,0,576.39,939.12Z"/><path d="M610.23,961.46a9.07,9.07,0,0,1-7.54-3.49h-.39c.26,2.28.39,3.59.39,3.95V973h-7.45V933.67h6.06l1.05,3.54h.34a8.61,8.61,0,0,1,7.74-4.05A8.88,8.88,0,0,1,618,936.9q2.73,3.74,2.73,10.37a20.6,20.6,0,0,1-1.28,7.6,10.69,10.69,0,0,1-3.65,4.9A9.33,9.33,0,0,1,610.23,961.46ZM608,939.12a4.67,4.67,0,0,0-4,1.7c-.85,1.13-1.29,3-1.32,5.6v.8q0,4.39,1.3,6.3a4.68,4.68,0,0,0,4.14,1.91q5,0,5-8.25a11.73,11.73,0,0,0-1.24-6A4.2,4.2,0,0,0,608,939.12Z"/></svg>