<svg id="Layer_1" data-name="Layer 1" xmlns="http://www.w3.org/2000/svg" viewBox="0 0 2026.63 770.29"><defs><style>.cls-1{fill:#c1272d;}.cls-2{fill:#08141c;}.cls-14,.cls-3,.cls-4,.cls-7{fill:#fff;}.cls-14,.cls-15,.cls-3,.cls-4,.cls-5{stroke:#08141c;}.cls-10,.cls-11,.cls-13,.cls-14,.cls-15,.cls-3,.cls-4,.cls-5,.cls-8,.cls-9{stroke-miterlimit:10;}.cls-3{stroke-width:10.04px;}.cls-4,.cls-5{stroke-width:11.43px;}.cls-10,.cls-11,.cls-13,.cls-15,.cls-5,.cls-8,.cls-9{fill:none;}.cls-6{fill:#39b54a;}.cls-8,.cls-9{stroke:#c1272d;}.cls-10,.cls-11,.cls-13,.cls-8,.cls-9{stroke-linecap:round;stroke-width:11px;}.cls-9{stroke-dasharray:3.2 1.6;}.cls-10,.cls-11,.cls-13{stroke:#4d8fcc;}.cls-11{stroke-dasharray:3.19 1.6;}.cls-12{fill:#4d8fcc;}.cls-13{stroke-dasharray:3.22 1.61;}.cls-14{stroke-width:9.48px;}.cls-15{stroke-width:10.09px;}.cls-16{fill:#999;}</style></defs><title>traditional_architecture_2</title><path d="M1849.09,3.44C1752,3.44,1676.24,36.7,1676.24,79V352.86c0,42.33,76.19,75.58,172.85,75.58s172.85-33.25,172.85-75.58V79.46C2021.94,36.7,1946.18,3.44,1849.09,3.44ZM2006.7,353.29c0,29.37-63.57,60.47-157.61,60.47s-157.61-31.53-157.61-60.47v-59.6c26.56,26.34,86.64,44.05,157.61,44.05S1980.14,320,2006.7,293.69Zm0-91.13c0,29.37-63.57,60.46-157.61,60.46s-157.61-31.52-157.61-60.46v-60c26.56,26.35,86.64,44.49,157.61,44.49s131.05-17.71,157.61-44.06Zm0-91.57c0,29.37-63.57,60.47-157.61,60.47s-157.61-31.53-157.61-60.47V111c27,26.35,86.64,44.05,157.61,44.05s131.05-17.7,157.61-44Zm-157.61-30.66c-94.48,0-157.61-31.53-157.61-60.47S1755,19,1849.09,19,2006.7,50.52,2006.7,79.46,1943.57,139.93,1849.09,139.93Z"/><path d="M1694,496.8h-7.57V467.4h-9.69v-6.3h27v6.3H1694Z"/><path d="M1725.9,496.8l-1.45-3.71h-.19a10.91,10.91,0,0,1-3.87,3.28,12.53,12.53,0,0,1-5.19.92A8.39,8.39,0,0,1,1709,495a8.66,8.66,0,0,1-2.26-6.4,7.2,7.2,0,0,1,3-6.4q3-2.07,9.17-2.29l4.74-.14v-1.2q0-4.16-4.25-4.15a19.36,19.36,0,0,0-7.69,2l-2.47-5a22.13,22.13,0,0,1,10.45-2.47c3.67,0,6.47.8,8.43,2.39s2.93,4,2.93,7.28V496.8Zm-2.2-12.65-2.88.1a9.35,9.35,0,0,0-4.84,1.17,3.7,3.7,0,0,0-1.58,3.27q0,3.15,3.61,3.15a5.72,5.72,0,0,0,4.14-1.49,5.23,5.23,0,0,0,1.55-4Z"/><path d="M1754,469a11.8,11.8,0,0,1,2.51.22l-.56,7a8.7,8.7,0,0,0-2.2-.24,7.89,7.89,0,0,0-5.55,1.83,6.61,6.61,0,0,0-2,5.13V496.8h-7.45V469.5h5.64l1.1,4.59h.37a10.25,10.25,0,0,1,3.43-3.7A8.48,8.48,0,0,1,1754,469Z"/><path d="M1785.22,469.5v3.79l-4.27,1.1a7.43,7.43,0,0,1,1.17,4.1,8.29,8.29,0,0,1-3.06,6.85c-2,1.63-4.88,2.45-8.51,2.45l-1.34-.07-1.1-.13a2.48,2.48,0,0,0-1.15,2c0,1.07,1.37,1.61,4.1,1.61h4.64c3,0,5.28.64,6.85,1.93a6.88,6.88,0,0,1,2.35,5.66,8.4,8.4,0,0,1-4,7.42q-4,2.64-11.46,2.64-5.71,0-8.73-2a6.32,6.32,0,0,1-3-5.58,5.84,5.84,0,0,1,1.53-4.12,8.75,8.75,0,0,1,4.52-2.37,5.06,5.06,0,0,1-2-1.6,3.95,3.95,0,0,1,0-5,10.48,10.48,0,0,1,2.61-2,7.3,7.3,0,0,1-3.41-3,9.09,9.09,0,0,1-1.25-4.83,8.55,8.55,0,0,1,2.9-6.91q2.91-2.44,8.3-2.44a21,21,0,0,1,2.73.21q1.57.21,2,.3Zm-21.07,31.15a2.68,2.68,0,0,0,1.48,2.42,8.07,8.07,0,0,0,4.14.88,14.66,14.66,0,0,0,6.27-1.1c1.52-.73,2.27-1.73,2.27-3a2.12,2.12,0,0,0-1.34-2.12,10.82,10.82,0,0,0-4.15-.59H1769a5.86,5.86,0,0,0-3.43,1A3,3,0,0,0,1764.15,500.65Zm2.71-22.21a5.51,5.51,0,0,0,1,3.51,3.64,3.64,0,0,0,3.08,1.3A3.59,3.59,0,0,0,1774,482a5.69,5.69,0,0,0,1-3.51q0-4.94-4.06-4.93T1766.86,478.44Z"/><path d="M1802.07,497.29q-6.6,0-10.31-3.64t-3.71-10.3q0-6.87,3.43-10.61T1801,469q5.79,0,9,3.3t3.22,9.1V485h-17.6a7.17,7.17,0,0,0,1.88,4.95,6.59,6.59,0,0,0,4.93,1.78,20.54,20.54,0,0,0,4.66-.51,23.51,23.51,0,0,0,4.59-1.63v5.76a17.59,17.59,0,0,1-4.17,1.45A26.12,26.12,0,0,1,1802.07,497.29Zm-1-23a4.71,4.71,0,0,0-3.71,1.5,6.91,6.91,0,0,0-1.54,4.26h10.45a6.28,6.28,0,0,0-1.44-4.26A4.88,4.88,0,0,0,1801,474.29Z"/><path d="M1830.75,491.35a16.06,16.06,0,0,0,4.69-.85V496a16.67,16.67,0,0,1-6.83,1.25c-3,0-5.15-.76-6.51-2.26s-2-3.77-2-6.78V475.09h-3.56v-3.15l4.1-2.49,2.15-5.76h4.76v5.81h7.64v5.59h-7.64v13.16a2.91,2.91,0,0,0,.89,2.35A3.52,3.52,0,0,0,1830.75,491.35Z"/><path d="M1875.6,486.89a9.21,9.21,0,0,1-3.48,7.61q-3.48,2.79-9.68,2.79a22.73,22.73,0,0,1-10.1-2.15v-7a41.72,41.72,0,0,0,6.11,2.27,18.12,18.12,0,0,0,4.58.66,6.47,6.47,0,0,0,3.82-1,3.23,3.23,0,0,0,1.33-2.83,3.08,3.08,0,0,0-.59-1.87,6.66,6.66,0,0,0-1.72-1.57,45.44,45.44,0,0,0-4.62-2.42,21.93,21.93,0,0,1-4.91-2.95,11.08,11.08,0,0,1-2.61-3.3,9.41,9.41,0,0,1-1-4.39,9.23,9.23,0,0,1,3.21-7.45q3.21-2.71,8.88-2.71a21,21,0,0,1,5.31.66,36.48,36.48,0,0,1,5.28,1.86L1873,469a36.15,36.15,0,0,0-4.72-1.64,15.71,15.71,0,0,0-3.68-.46,4.88,4.88,0,0,0-3.29,1,3.29,3.29,0,0,0-1.15,2.61,3.24,3.24,0,0,0,.46,1.75,5,5,0,0,0,1.48,1.44,44.5,44.5,0,0,0,4.8,2.5q5,2.4,6.86,4.8A9.4,9.4,0,0,1,1875.6,486.89Z"/><path d="M1893.84,497.29q-6.58,0-10.3-3.64t-3.71-10.3q0-6.87,3.43-10.61t9.48-3.75q5.79,0,9,3.3t3.22,9.1V485h-17.6a7.17,7.17,0,0,0,1.88,4.95,6.61,6.61,0,0,0,4.93,1.78,20.54,20.54,0,0,0,4.66-.51,23.51,23.51,0,0,0,4.59-1.63v5.76a17.59,17.59,0,0,1-4.17,1.45A26.12,26.12,0,0,1,1893.84,497.29Zm-1-23a4.71,4.71,0,0,0-3.71,1.5,6.91,6.91,0,0,0-1.54,4.26H1898a6.18,6.18,0,0,0-1.44-4.26A4.88,4.88,0,0,0,1892.79,474.29Z"/><path d="M1926.26,469a11.84,11.84,0,0,1,2.52.22l-.57,7A8.61,8.61,0,0,0,1926,476a7.91,7.91,0,0,0-5.56,1.83,6.64,6.64,0,0,0-2,5.13V496.8H1911V469.5h5.64l1.1,4.59h.36a10.33,10.33,0,0,1,3.43-3.7A8.51,8.51,0,0,1,1926.26,469Z"/><path d="M1940.23,496.8l-10.4-27.3h7.78l5.28,15.56a28.26,28.26,0,0,1,1.1,5.59h.14a24.18,24.18,0,0,1,1.1-5.59l5.25-15.56h7.79l-10.4,27.3Z"/><path d="M1961.86,462.45q0-3.65,4.05-3.64t4,3.64a3.59,3.59,0,0,1-1,2.7,4.28,4.28,0,0,1-3,1Q1961.86,466.11,1961.86,462.45Zm7.76,34.35h-7.45V469.5h7.45Z"/><path d="M1988.52,497.29q-12.75,0-12.75-14,0-7,3.47-10.64t9.94-3.67a18.88,18.88,0,0,1,8.49,1.86l-2.19,5.76c-1.18-.47-2.27-.86-3.28-1.16a10.53,10.53,0,0,0-3-.45q-5.82,0-5.81,8.25,0,8,5.81,8a13,13,0,0,0,4-.58,14.38,14.38,0,0,0,3.66-1.79v6.37a12.11,12.11,0,0,1-3.65,1.59A20.7,20.7,0,0,1,1988.52,497.29Z"/><path d="M2015.49,497.29q-6.59,0-10.3-3.64t-3.71-10.3q0-6.87,3.43-10.61t9.49-3.75q5.77,0,9,3.3t3.22,9.1V485H2009a7.12,7.12,0,0,0,1.88,4.95,6.59,6.59,0,0,0,4.93,1.78,20.61,20.61,0,0,0,4.66-.51,24,24,0,0,0,4.59-1.63v5.76a17.51,17.51,0,0,1-4.18,1.45A26.05,26.05,0,0,1,2015.49,497.29Zm-1-23a4.75,4.75,0,0,0-3.72,1.5,7,7,0,0,0-1.53,4.26h10.45a6.23,6.23,0,0,0-1.45-4.26A4.86,4.86,0,0,0,2014.45,474.29Z"/><path class="cls-1" d="M870,745.24q0,5.76-3.6,8.81t-10.24,3.05h-3.25v12.7h-7.56V734.1h11.4q6.5,0,9.87,2.8C868.9,738.76,870,741.54,870,745.24Zm-17.09,5.66h2.49a8.31,8.31,0,0,0,5.23-1.38,4.84,4.84,0,0,0,1.73-4,5,5,0,0,0-1.45-3.94,6.85,6.85,0,0,0-4.55-1.26h-3.45Z"/><path class="cls-1" d="M901,756.1q0,6.67-3.51,10.43t-9.79,3.76a13.76,13.76,0,0,1-6.94-1.72,11.45,11.45,0,0,1-4.61-5,16.53,16.53,0,0,1-1.61-7.52q0-6.69,3.49-10.4c2.32-2.47,5.6-3.71,9.81-3.71a13.81,13.81,0,0,1,6.94,1.71,11.41,11.41,0,0,1,4.61,4.91A16.5,16.5,0,0,1,901,756.1Zm-18.87,0a11.43,11.43,0,0,0,1.33,6.13,4.77,4.77,0,0,0,4.33,2.08,4.68,4.68,0,0,0,4.29-2.07,11.62,11.62,0,0,0,1.3-6.14,11.37,11.37,0,0,0-1.31-6.08,5.62,5.62,0,0,0-8.62,0Q882.11,752,882.11,756.1Z"/><path class="cls-1" d="M918.63,764.35a16.12,16.12,0,0,0,4.69-.85V769a16.72,16.72,0,0,1-6.84,1.25c-3,0-5.14-.76-6.5-2.26s-2-3.77-2-6.78V748.09h-3.57v-3.15l4.11-2.49,2.14-5.76h4.77v5.81H923v5.59h-7.64v13.16a2.91,2.91,0,0,0,.89,2.35A3.52,3.52,0,0,0,918.63,764.35Z"/><path class="cls-1" d="M941.19,770.29q-6.59,0-10.3-3.64t-3.71-10.3q0-6.87,3.43-10.61c2.28-2.5,5.45-3.75,9.48-3.75q5.79,0,9,3.3t3.22,9.1V758h-17.6a7.17,7.17,0,0,0,1.88,5,6.61,6.61,0,0,0,4.93,1.78,20.63,20.63,0,0,0,4.67-.51,24,24,0,0,0,4.59-1.63v5.76a17.82,17.82,0,0,1-4.18,1.45A26.12,26.12,0,0,1,941.19,770.29Zm-1.05-23a4.73,4.73,0,0,0-3.71,1.5,6.91,6.91,0,0,0-1.54,4.26h10.45a6.18,6.18,0,0,0-1.44-4.26A4.88,4.88,0,0,0,940.14,747.29Z"/><path class="cls-1" d="M983.57,769.8h-7.44V753.86a7.7,7.7,0,0,0-1-4.44,3.84,3.84,0,0,0-3.35-1.47,5,5,0,0,0-4.51,2.08c-.93,1.4-1.4,3.7-1.4,6.93V769.8h-7.44V742.5h5.69l1,3.49h.41a8,8,0,0,1,3.43-3,11.8,11.8,0,0,1,5-1c3.18,0,5.58.86,7.23,2.58s2.46,4.19,2.46,7.43Z"/><path class="cls-1" d="M1002.74,764.35a16.17,16.17,0,0,0,4.69-.85V769a16.75,16.75,0,0,1-6.84,1.25c-3,0-5.15-.76-6.51-2.26s-2-3.77-2-6.78V748.09h-3.57v-3.15l4.1-2.49,2.15-5.76h4.76v5.81h7.64v5.59h-7.64v13.16a2.94,2.94,0,0,0,.89,2.35A3.55,3.55,0,0,0,1002.74,764.35Z"/><path class="cls-1" d="M1012.63,735.45q0-3.65,4-3.64t4.05,3.64a3.59,3.59,0,0,1-1,2.7,4.28,4.28,0,0,1-3,1Q1012.63,739.11,1012.63,735.45Zm7.76,34.35h-7.45V742.5h7.45Z"/><path class="cls-1" d="M1045.54,769.8l-1.44-3.71h-.2a10.91,10.91,0,0,1-3.87,3.28,12.5,12.5,0,0,1-5.19.92,8.39,8.39,0,0,1-6.19-2.25,8.65,8.65,0,0,1-2.25-6.4c0-2.89,1-5,3-6.4s5.08-2.14,9.16-2.29l4.74-.14v-1.2q0-4.15-4.25-4.15a19.36,19.36,0,0,0-7.69,2l-2.46-5a22.09,22.09,0,0,1,10.44-2.47c3.67,0,6.47.8,8.43,2.39s2.93,4,2.93,7.28V769.8Zm-2.2-12.65-2.88.1a9.35,9.35,0,0,0-4.84,1.17,3.7,3.7,0,0,0-1.58,3.27q0,3.15,3.61,3.15a5.68,5.68,0,0,0,4.14-1.49,5.23,5.23,0,0,0,1.55-4Z"/><path class="cls-1" d="M1065.85,769.8h-7.45v-38h7.45Z"/><path class="cls-1" d="M1101.74,748.09h-6.45V769.8h-7.44V748.09h-4.11V744.5l4.11-2v-2q0-4.66,2.29-6.81t7.35-2.15a19,19,0,0,1,6.86,1.15l-1.9,5.47a14,14,0,0,0-4.15-.71,2.68,2.68,0,0,0-2.3.94,3.91,3.91,0,0,0-.71,2.4v1.71h6.45Z"/><path class="cls-1" d="M1130.82,756.1q0,6.67-3.52,10.43t-9.79,3.76a13.75,13.75,0,0,1-6.93-1.72,11.47,11.47,0,0,1-4.62-5,16.66,16.66,0,0,1-1.61-7.52q0-6.69,3.49-10.4t9.82-3.71a13.75,13.75,0,0,1,6.93,1.71,11.41,11.41,0,0,1,4.61,4.91A16.37,16.37,0,0,1,1130.82,756.1Zm-18.88,0a11.53,11.53,0,0,0,1.33,6.13,4.79,4.79,0,0,0,4.34,2.08,4.67,4.67,0,0,0,4.28-2.07,11.61,11.61,0,0,0,1.31-6.14,11.27,11.27,0,0,0-1.32-6.08,5.62,5.62,0,0,0-8.62,0Q1111.94,752,1111.94,756.1Z"/><path class="cls-1" d="M1152.2,742a11.84,11.84,0,0,1,2.52.22l-.56,7a8.75,8.75,0,0,0-2.2-.24,7.91,7.91,0,0,0-5.56,1.83,6.64,6.64,0,0,0-2,5.13V769.8H1137V742.5h5.64l1.1,4.59h.36a10.33,10.33,0,0,1,3.43-3.7A8.51,8.51,0,0,1,1152.2,742Z"/><path class="cls-1" d="M1173.25,769.8V734.1h7.57v29.45h14.47v6.25Z"/><path class="cls-1" d="M1213.26,770.29q-6.59,0-10.3-3.64t-3.71-10.3q0-6.87,3.43-10.61c2.28-2.5,5.45-3.75,9.48-3.75q5.79,0,9,3.3t3.22,9.1V758h-17.6a7.17,7.17,0,0,0,1.88,5,6.61,6.61,0,0,0,4.93,1.78,20.63,20.63,0,0,0,4.67-.51,24,24,0,0,0,4.59-1.63v5.76a17.82,17.82,0,0,1-4.18,1.45A26.12,26.12,0,0,1,1213.26,770.29Zm-1-23a4.73,4.73,0,0,0-3.71,1.5,7,7,0,0,0-1.54,4.26h10.45a6.18,6.18,0,0,0-1.44-4.26A4.88,4.88,0,0,0,1212.21,747.29Z"/><path class="cls-1" d="M1247.78,769.8l-1.44-3.71h-.19a11.08,11.08,0,0,1-3.87,3.28,12.53,12.53,0,0,1-5.19.92,8.39,8.39,0,0,1-6.19-2.25,8.62,8.62,0,0,1-2.26-6.4,7.2,7.2,0,0,1,3-6.4c2-1.38,5.08-2.14,9.17-2.29l4.74-.14v-1.2q0-4.15-4.25-4.15a19.32,19.32,0,0,0-7.69,2l-2.47-5a22.13,22.13,0,0,1,10.45-2.47q5.49,0,8.42,2.39c2,1.6,2.93,4,2.93,7.28V769.8Zm-2.19-12.65-2.89.1a9.34,9.34,0,0,0-4.83,1.17,3.69,3.69,0,0,0-1.59,3.27q0,3.15,3.62,3.15a5.72,5.72,0,0,0,4.14-1.49,5.23,5.23,0,0,0,1.55-4Z"/><path class="cls-1" d="M1267.8,755l3.25-4.15,7.64-8.3h8.4l-10.84,11.84,11.5,15.46h-8.59l-7.87-11.06-3.19,2.56v8.5h-7.45v-38h7.45v16.94l-.4,6.2Z"/><path class="cls-1" d="M1310.7,761.69a7.52,7.52,0,0,1-2.92,6.4c-1.94,1.46-4.85,2.2-8.73,2.2a27.29,27.29,0,0,1-5.08-.41,19.32,19.32,0,0,1-3.93-1.18v-6.15a26.42,26.42,0,0,0,4.68,1.63,18.89,18.89,0,0,0,4.58.66q4,0,4-2.34a2,2,0,0,0-.54-1.43,7.81,7.81,0,0,0-1.85-1.25c-.88-.46-2-1-3.52-1.62a22.26,22.26,0,0,1-4.63-2.44,6.83,6.83,0,0,1-2.14-2.58,8.42,8.42,0,0,1-.68-3.57,6.49,6.49,0,0,1,2.82-5.63q2.82-2,8-2a22.75,22.75,0,0,1,9.6,2.15l-2.25,5.37a40.07,40.07,0,0,0-3.83-1.44,12.18,12.18,0,0,0-3.64-.56c-2.2,0-3.3.59-3.3,1.78a2.09,2.09,0,0,0,1.06,1.73,28.51,28.51,0,0,0,4.66,2.18,21.36,21.36,0,0,1,4.68,2.41,7.14,7.14,0,0,1,2.2,2.59A8,8,0,0,1,1310.7,761.69Z"/><rect class="cls-2" x="50.25" y="344.92" width="359.58" height="55.08" rx="13.23" ry="13.23"/><rect class="cls-3" x="10.5" y="24.83" width="436.49" height="350.49" rx="30.33" ry="30.33"/><circle class="cls-4" cx="228.28" cy="232.54" r="99.63"/><line class="cls-5" x1="229.21" y1="133.83" x2="228.28" y2="334.01"/><line class="cls-5" x1="328.83" y1="234.38" x2="128.66" y2="233.46"/><line class="cls-5" x1="299.19" y1="305.02" x2="158.3" y2="162.82"/><line class="cls-5" x1="299.84" y1="163.47" x2="157.65" y2="304.37"/><circle class="cls-4" cx="228.28" cy="232.54" r="40.13"/><path d="M185.45,57.33h7.94l-12.61,37.1h-8.57l-12.59-37.1h7.95l7,22.08c.39,1.3.79,2.82,1.21,4.55s.67,2.94.77,3.62a65.86,65.86,0,0,1,1.9-8.17Z"/><path d="M215.47,94.43,214,90.57h-.2a11.35,11.35,0,0,1-4,3.41,12.92,12.92,0,0,1-5.39,1,8.72,8.72,0,0,1-6.44-2.33A9,9,0,0,1,195.58,86q0-4.52,3.16-6.66c2.1-1.43,5.28-2.22,9.52-2.37l4.92-.15V75.52q0-4.3-4.41-4.31a20.11,20.11,0,0,0-8,2.06L198.22,68a23,23,0,0,1,10.85-2.56q5.72,0,8.76,2.48t3,7.56V94.43Zm-2.29-13.15-3,.1a9.64,9.64,0,0,0-5,1.22,3.83,3.83,0,0,0-1.65,3.4c0,2.18,1.25,3.28,3.75,3.28a5.94,5.94,0,0,0,4.3-1.55,5.41,5.41,0,0,0,1.61-4.11Z"/><path d="M248.93,94.43l-1-3.63h-.4A8.2,8.2,0,0,1,244,93.86a12.14,12.14,0,0,1-5.2,1.07q-5,0-7.54-2.67c-1.69-1.79-2.53-4.35-2.53-7.7V66.06h7.74V82.63a7.91,7.91,0,0,0,1.09,4.6A3.94,3.94,0,0,0,241,88.77a5.23,5.23,0,0,0,4.7-2.17c1-1.45,1.44-3.84,1.44-7.19V66.06h7.74V94.43Z"/><path d="M270.73,94.43H263V55h7.74Z"/><path d="M290.8,88.77a16.84,16.84,0,0,0,4.87-.89v5.76a17.43,17.43,0,0,1-7.1,1.29c-3.1,0-5.35-.78-6.77-2.34s-2.11-3.91-2.11-7V71.87H276V68.6L280.24,66l2.24-6h4.94v6h7.95v5.81h-7.95V85.55a3,3,0,0,0,.93,2.43A3.63,3.63,0,0,0,290.8,88.77Z"/><path class="cls-6" d="M1619.2,333.39a27.54,27.54,0,0,1-27.52-27.52V227.18a27.37,27.37,0,0,1,17.71-25.74V183.7a37.91,37.91,0,0,1,37.87-37.87h23.8a37.91,37.91,0,0,1,37.86,37.87V202a27.36,27.36,0,0,1,16.49,25.23v78.69a27.55,27.55,0,0,1-27.52,27.52Zm39.34-87.49a8,8,0,0,0-8,7.95,7.86,7.86,0,0,0,3.33,6.45l4,2.87-.76,4.87,0,.19v17.89a1,1,0,0,0,1,1h.74a1,1,0,0,0,1-1V268.2s-.79-5-.79-5l4-2.87a7.86,7.86,0,0,0,3.33-6.45A8,8,0,0,0,1658.54,245.9Zm22.3-46.24v-16a9.8,9.8,0,0,0-9.78-9.79h-23.8a9.8,9.8,0,0,0-9.78,9.79v16Z"/><path class="cls-7" d="M1671.06,153.83a29.9,29.9,0,0,1,29.86,29.87v24.2a19.53,19.53,0,0,1,16.49,19.28v78.69a19.52,19.52,0,0,1-19.52,19.52H1619.2a19.52,19.52,0,0,1-19.52-19.52V227.18a19.51,19.51,0,0,1,17.71-19.43V183.7a29.9,29.9,0,0,1,29.87-29.87h23.8m-41.58,53.83h59.36v-24a17.81,17.81,0,0,0-17.78-17.79h-23.8a17.8,17.8,0,0,0-17.78,17.79v24m28.69,87.5h.74a9,9,0,0,0,9-9V268.2a9.34,9.34,0,0,0-.12-1.4,16,16,0,1,0-18.58,0,9.34,9.34,0,0,0-.12,1.4v17.92a9,9,0,0,0,9,9m12.89-157.33h-23.8a45.92,45.92,0,0,0-45.87,45.87v12.74a35.54,35.54,0,0,0-17.71,30.74v78.69a35.55,35.55,0,0,0,35.52,35.52h78.69a35.56,35.56,0,0,0,35.52-35.52V227.18a35.5,35.5,0,0,0-16.49-30V183.7a45.91,45.91,0,0,0-45.86-45.87Zm-25.58,53.83v-8a1.81,1.81,0,0,1,1.78-1.79h23.8a1.81,1.81,0,0,1,1.78,1.79v8Z"/><line class="cls-8" x1="1078.74" y1="463.33" x2="1078.74" y2="464.93"/><line class="cls-9" x1="1078.73" y1="466.53" x2="1078.31" y2="671.98"/><line class="cls-8" x1="1078.31" y1="672.78" x2="1078.31" y2="674.38"/><polygon class="cls-1" points="1057.97 658.89 1078.32 667.59 1098.71 658.98 1078.24 707.22 1057.97 658.89"/><line class="cls-10" x1="1355.5" y1="214.53" x2="1357.1" y2="214.53"/><line class="cls-11" x1="1358.7" y1="214.53" x2="1535.2" y2="214.53"/><line class="cls-10" x1="1536" y1="214.53" x2="1537.6" y2="214.53"/><polygon class="cls-12" points="1522.16 234.9 1530.81 214.53 1522.16 194.17 1570.44 214.53 1522.16 234.9"/><line class="cls-10" x1="508.5" y1="214.53" x2="510.1" y2="214.53"/><line class="cls-13" x1="511.71" y1="214.53" x2="767.2" y2="214.53"/><line class="cls-10" x1="768" y1="214.53" x2="769.6" y2="214.53"/><polygon class="cls-12" points="754.16 234.9 762.81 214.53 754.16 194.17 802.44 214.53 754.16 234.9"/><polygon class="cls-7" points="628 168 687 241 657 263 599 193 628 168"/><path class="cls-2" d="M706.44,250.87a5.5,5.5,0,0,0-7.73-.89L686,260.09l-7.16-9,21.34-16.94a5.5,5.5,0,0,0-6.84-8.62L672,242.47l-43.51-54.79a33.23,33.23,0,1,0-8.61,6.85l71.81,90.41a5.5,5.5,0,1,0,8.61-6.84l-7.46-9.4,12.72-10.1A5.5,5.5,0,0,0,706.44,250.87Zm-120.08-71.6a22.25,22.25,0,1,1,31.26,3.58A22.28,22.28,0,0,1,586.36,179.27Z"/><polygon class="cls-7" points="1065.24 541.83 1103.24 581.71 1103.24 624.83 1054.24 578.48 1065.24 541.83"/><circle class="cls-7" cx="1023.37" cy="523.74" r="27.75"/><path class="cls-2" d="M999.86,547.25a33.25,33.25,0,1,1,47,0A33.27,33.27,0,0,1,999.86,547.25ZM1039.1,508a22.25,22.25,0,1,0,0,31.47A22.29,22.29,0,0,0,1039.1,508Z"/><path class="cls-2" d="M1124.31,632.46l-84.15-84.14a5.5,5.5,0,0,1,7.78-7.78l84.14,84.14a5.5,5.5,0,0,1-7.77,7.78Z"/><path class="cls-2" d="M1114.58,617.43a5.5,5.5,0,0,1,0-7.77l12.73-12.73a5.5,5.5,0,0,1,7.78,7.78l-12.73,12.72A5.5,5.5,0,0,1,1114.58,617.43Z"/><path class="cls-2" d="M1098.67,601.53a5.52,5.52,0,0,1,0-7.78l20.51-20.51A5.5,5.5,0,1,1,1127,581l-20.51,20.51A5.52,5.52,0,0,1,1098.67,601.53Z"/><rect class="cls-14" x="841.74" y="28.33" width="480.82" height="365.5" rx="22.32" ry="22.32"/><line class="cls-15" x1="841.74" y1="102.33" x2="1324.24" y2="102.33"/><circle class="cls-2" cx="881.74" cy="64.33" r="8.5"/><circle class="cls-2" cx="905.62" cy="64.33" r="8.5"/><circle class="cls-2" cx="929.5" cy="64.33" r="8.5"/><rect class="cls-16" x="869.74" y="131.33" width="205.86" height="14"/><rect class="cls-12" x="1081.44" y="131.33" width="68.97" height="14"/><rect class="cls-12" x="1156.78" y="131.33" width="25.47" height="14"/><rect class="cls-12" x="1187.55" y="131.33" width="98.69" height="14"/><rect class="cls-12" x="1135.56" y="156.53" width="97.68" height="14" transform="translate(2368.79 327.06) rotate(180)"/><rect class="cls-16" x="1060.74" y="156.53" width="68.97" height="14" transform="translate(2190.46 327.06) rotate(180)"/><rect class="cls-12" x="1028.91" y="156.53" width="25.47" height="14" transform="translate(2083.29 327.06) rotate(180)"/><rect class="cls-12" x="869.74" y="156.53" width="153.87" height="14" transform="translate(1893.34 327.06) rotate(180)"/><rect class="cls-16" x="869.74" y="181.73" width="205.86" height="14"/><rect class="cls-12" x="1081.44" y="181.73" width="68.97" height="14"/><rect class="cls-12" x="1156.78" y="181.73" width="25.47" height="14"/><rect class="cls-12" x="869.74" y="206.93" width="205.86" height="14"/><rect class="cls-12" x="1081.44" y="206.93" width="68.97" height="14"/><rect class="cls-16" x="1156.78" y="206.93" width="25.47" height="14"/><rect class="cls-16" x="1187.55" y="206.93" width="98.69" height="14"/><rect class="cls-12" x="869.74" y="232.13" width="205.86" height="14"/><rect class="cls-12" x="1081.44" y="232.13" width="68.97" height="14"/><rect class="cls-12" x="1156.78" y="232.13" width="25.47" height="14"/><rect class="cls-12" x="1060.74" y="257.33" width="181.99" height="14" transform="translate(2303.48 528.66) rotate(180)"/><rect class="cls-16" x="1028.91" y="257.33" width="25.47" height="14" transform="translate(2083.29 528.66) rotate(180)"/><rect class="cls-16" x="869.74" y="257.33" width="153.87" height="14" transform="translate(1893.34 528.66) rotate(180)"/><path d="M1056.78,356.8l-2.59-8.5h-13l-2.59,8.5h-8.15L1043,321h9.26l12.64,35.84Zm-4.4-14.85q-3.59-11.54-4-13.06c-.3-1-.51-1.8-.64-2.39q-.81,3.12-4.62,15.45Z"/><path d="M1083.83,357.29a9.06,9.06,0,0,1-7.54-3.49h-.39c.26,2.27.39,3.59.39,3.95v11.06h-7.45V329.5h6.05l1,3.54h.35A8.61,8.61,0,0,1,1084,329a8.85,8.85,0,0,1,7.56,3.74q2.75,3.74,2.74,10.37a20.51,20.51,0,0,1-1.28,7.59,10.73,10.73,0,0,1-3.65,4.91A9.33,9.33,0,0,1,1083.83,357.29Zm-2.2-22.34a4.71,4.71,0,0,0-4,1.69c-.84,1.14-1.28,3-1.31,5.61v.8q0,4.4,1.3,6.3a4.66,4.66,0,0,0,4.14,1.91q5,0,5-8.26a11.79,11.79,0,0,0-1.24-6A4.21,4.21,0,0,0,1081.63,335Z"/><path d="M1115.47,357.29a9.06,9.06,0,0,1-7.54-3.49h-.39c.26,2.27.39,3.59.39,3.95v11.06h-7.45V329.5h6l1,3.54h.35a8.61,8.61,0,0,1,7.74-4.05,8.85,8.85,0,0,1,7.56,3.74q2.74,3.74,2.74,10.37a20.51,20.51,0,0,1-1.28,7.59,10.66,10.66,0,0,1-3.65,4.91A9.33,9.33,0,0,1,1115.47,357.29Zm-2.2-22.34a4.71,4.71,0,0,0-4,1.69c-.84,1.14-1.28,3-1.31,5.61v.8q0,4.4,1.3,6.3a4.66,4.66,0,0,0,4.14,1.91q5,0,5-8.26a11.79,11.79,0,0,0-1.24-6A4.21,4.21,0,0,0,1113.27,335Z"/></svg>