<svg id="Layer_1" data-name="Layer 1" xmlns="http://www.w3.org/2000/svg" viewBox="0 0 1243.63 1408.29"><defs><style>.cls-1{fill:#c1272d;}.cls-2{fill:#08141c;}.cls-13,.cls-3,.cls-4,.cls-7{fill:#fff;}.cls-13,.cls-14,.cls-3,.cls-4,.cls-5{stroke:#08141c;}.cls-11,.cls-12,.cls-13,.cls-14,.cls-3,.cls-4,.cls-5,.cls-8,.cls-9{stroke-miterlimit:10;}.cls-3{stroke-width:9.66px;}.cls-11,.cls-12,.cls-4,.cls-5,.cls-8,.cls-9{stroke-width:11px;}.cls-11,.cls-12,.cls-14,.cls-5,.cls-8,.cls-9{fill:none;}.cls-6{fill:#39b54a;}.cls-8,.cls-9{stroke:#4d8fcc;}.cls-11,.cls-12,.cls-8,.cls-9{stroke-linecap:round;}.cls-12,.cls-9{stroke-dasharray:3.2 1.6;}.cls-10{fill:#4d8fcc;}.cls-11,.cls-12{stroke:#c1272d;}.cls-13{stroke-width:9.48px;}.cls-14{stroke-width:10.09px;}.cls-15{fill:#999;}</style></defs><title>traditional_architecture</title><path d="M1066.09,641.44C969,641.44,893.24,674.7,893.24,717V990.86c0,42.33,76.19,75.58,172.85,75.58s172.85-33.25,172.85-75.58V717.46C1238.94,674.7,1163.18,641.44,1066.09,641.44ZM1223.7,991.29c0,29.37-63.57,60.47-157.61,60.47s-157.61-31.53-157.61-60.47v-59.6c26.56,26.34,86.64,44,157.61,44s131.05-17.71,157.61-44Zm0-91.13c0,29.37-63.57,60.46-157.61,60.46S908.48,929.1,908.48,900.16v-60c26.56,26.35,86.64,44.49,157.61,44.49s131.05-17.71,157.61-44.06Zm0-91.57c0,29.37-63.57,60.47-157.61,60.47s-157.61-31.53-157.61-60.47V749c27,26.35,86.64,44,157.61,44s131.05-17.7,157.61-44Zm-157.61-30.66c-94.48,0-157.61-31.53-157.61-60.47S972,657,1066.09,657s157.61,31.53,157.61,60.47S1160.57,777.93,1066.09,777.93Z"/><path d="M911,1134.8h-7.57v-29.4H893.7v-6.3h26.95v6.3H911Z"/><path d="M942.9,1134.8l-1.45-3.71h-.19a10.91,10.91,0,0,1-3.87,3.28,12.53,12.53,0,0,1-5.19.92A8.39,8.39,0,0,1,926,1133a8.66,8.66,0,0,1-2.26-6.4,7.2,7.2,0,0,1,3-6.4q3-2.07,9.17-2.29l4.74-.14v-1.2q0-4.15-4.25-4.15a19.36,19.36,0,0,0-7.69,2l-2.47-5a22.13,22.13,0,0,1,10.45-2.47c3.67,0,6.47.8,8.43,2.39s2.93,4,2.93,7.28v18.19Zm-2.2-12.65-2.88.1a9.35,9.35,0,0,0-4.84,1.17,3.7,3.7,0,0,0-1.58,3.27q0,3.15,3.61,3.15a5.72,5.72,0,0,0,4.14-1.49,5.23,5.23,0,0,0,1.55-3.95Z"/><path d="M971,1107a11.8,11.8,0,0,1,2.51.22l-.56,7a8.7,8.7,0,0,0-2.2-.24,7.89,7.89,0,0,0-5.55,1.83,6.61,6.61,0,0,0-2,5.13v13.89h-7.45v-27.3h5.64l1.1,4.59h.37a10.25,10.25,0,0,1,3.43-3.7A8.48,8.48,0,0,1,971,1107Z"/><path d="M1002.22,1107.5v3.79l-4.27,1.1a7.43,7.43,0,0,1,1.17,4.1,8.29,8.29,0,0,1-3.06,6.85c-2,1.63-4.88,2.45-8.51,2.45l-1.34-.07-1.1-.13a2.48,2.48,0,0,0-1.15,2c0,1.07,1.37,1.61,4.1,1.61h4.64c3,0,5.28.64,6.85,1.93a6.88,6.88,0,0,1,2.35,5.66,8.4,8.4,0,0,1-4,7.42q-4,2.64-11.46,2.64-5.72,0-8.73-2a6.32,6.32,0,0,1-3-5.58,5.84,5.84,0,0,1,1.53-4.12,8.75,8.75,0,0,1,4.52-2.37,5.06,5.06,0,0,1-2-1.6,3.95,3.95,0,0,1,0-5,10.48,10.48,0,0,1,2.61-2,7.3,7.3,0,0,1-3.41-3,9.09,9.09,0,0,1-1.25-4.83,8.55,8.55,0,0,1,2.9-6.91q2.91-2.45,8.3-2.44a21,21,0,0,1,2.73.21q1.57.21,2,.3Zm-21.07,31.15a2.68,2.68,0,0,0,1.48,2.42,8.07,8.07,0,0,0,4.14.88,14.66,14.66,0,0,0,6.27-1.1c1.52-.73,2.27-1.73,2.27-3a2.12,2.12,0,0,0-1.34-2.12,10.82,10.82,0,0,0-4.15-.59H986a5.86,5.86,0,0,0-3.43,1A3,3,0,0,0,981.15,1138.65Zm2.71-22.21a5.51,5.51,0,0,0,1,3.51,3.64,3.64,0,0,0,3.08,1.3A3.59,3.59,0,0,0,991,1120a5.69,5.69,0,0,0,1-3.51q0-4.93-4.06-4.93T983.86,1116.44Z"/><path d="M1019.07,1135.29q-6.6,0-10.31-3.64t-3.71-10.3q0-6.87,3.43-10.61T1018,1107q5.79,0,9,3.3t3.22,9.1V1123h-17.6a7.17,7.17,0,0,0,1.88,5,6.59,6.59,0,0,0,4.93,1.78,20.54,20.54,0,0,0,4.66-.51,23.51,23.51,0,0,0,4.59-1.63v5.76a17.59,17.59,0,0,1-4.17,1.45A26.12,26.12,0,0,1,1019.07,1135.29Zm-1.05-23a4.71,4.71,0,0,0-3.71,1.5,6.91,6.91,0,0,0-1.54,4.26h10.45a6.28,6.28,0,0,0-1.44-4.26A4.88,4.88,0,0,0,1018,1112.29Z"/><path d="M1047.75,1129.35a16.06,16.06,0,0,0,4.69-.85V1134a16.67,16.67,0,0,1-6.83,1.25c-3,0-5.15-.76-6.51-2.26s-2-3.77-2-6.78v-13.16h-3.56v-3.15l4.1-2.49,2.15-5.76h4.76v5.81h7.64v5.59h-7.64v13.16a2.91,2.91,0,0,0,.89,2.35A3.52,3.52,0,0,0,1047.75,1129.35Z"/><path d="M1092.6,1124.89a9.21,9.21,0,0,1-3.48,7.61q-3.48,2.79-9.68,2.79a22.73,22.73,0,0,1-10.1-2.15v-7a41.72,41.72,0,0,0,6.11,2.27,18.12,18.12,0,0,0,4.58.66,6.47,6.47,0,0,0,3.82-1,3.23,3.23,0,0,0,1.33-2.83,3.08,3.08,0,0,0-.59-1.87,6.66,6.66,0,0,0-1.72-1.57,45.44,45.44,0,0,0-4.62-2.42,21.93,21.93,0,0,1-4.91-3,11.08,11.08,0,0,1-2.61-3.3,9.41,9.41,0,0,1-1-4.39,9.23,9.23,0,0,1,3.21-7.45q3.21-2.71,8.88-2.71a21,21,0,0,1,5.31.66,36.48,36.48,0,0,1,5.28,1.86L1090,1107a36.15,36.15,0,0,0-4.72-1.64,15.71,15.71,0,0,0-3.68-.46,4.88,4.88,0,0,0-3.29,1,3.29,3.29,0,0,0-1.15,2.61,3.24,3.24,0,0,0,.46,1.75,5,5,0,0,0,1.48,1.44,44.5,44.5,0,0,0,4.8,2.5q5,2.4,6.86,4.8A9.4,9.4,0,0,1,1092.6,1124.89Z"/><path d="M1110.84,1135.29q-6.58,0-10.3-3.64t-3.71-10.3q0-6.87,3.43-10.61t9.48-3.75q5.79,0,9,3.3t3.22,9.1V1123h-17.6a7.17,7.17,0,0,0,1.88,5,6.61,6.61,0,0,0,4.93,1.78,20.54,20.54,0,0,0,4.66-.51,23.51,23.51,0,0,0,4.59-1.63v5.76a17.59,17.59,0,0,1-4.17,1.45A26.12,26.12,0,0,1,1110.84,1135.29Zm-1-23a4.71,4.71,0,0,0-3.71,1.5,6.91,6.91,0,0,0-1.54,4.26H1115a6.18,6.18,0,0,0-1.44-4.26A4.88,4.88,0,0,0,1109.79,1112.29Z"/><path d="M1143.26,1107a11.84,11.84,0,0,1,2.52.22l-.57,7a8.61,8.61,0,0,0-2.19-.24,7.91,7.91,0,0,0-5.56,1.83,6.64,6.64,0,0,0-2,5.13v13.89H1128v-27.3h5.64l1.1,4.59h.36a10.33,10.33,0,0,1,3.43-3.7A8.51,8.51,0,0,1,1143.26,1107Z"/><path d="M1157.23,1134.8l-10.4-27.3h7.78l5.28,15.56a28.26,28.26,0,0,1,1.1,5.59h.14a24.18,24.18,0,0,1,1.1-5.59l5.25-15.56h7.79l-10.4,27.3Z"/><path d="M1178.86,1100.45q0-3.65,4.05-3.64t4,3.64a3.59,3.59,0,0,1-1,2.7,4.28,4.28,0,0,1-3,1Q1178.86,1104.11,1178.86,1100.45Zm7.76,34.35h-7.45v-27.3h7.45Z"/><path d="M1205.52,1135.29q-12.75,0-12.75-14,0-7,3.47-10.64t9.94-3.67a18.88,18.88,0,0,1,8.49,1.86l-2.19,5.76c-1.18-.47-2.27-.86-3.28-1.16a10.53,10.53,0,0,0-3-.45q-5.82,0-5.81,8.25,0,8,5.81,8a13,13,0,0,0,4-.58,14.38,14.38,0,0,0,3.66-1.79v6.37a12.11,12.11,0,0,1-3.65,1.59A20.7,20.7,0,0,1,1205.52,1135.29Z"/><path d="M1232.49,1135.29q-6.59,0-10.3-3.64t-3.71-10.3q0-6.87,3.43-10.61t9.49-3.75q5.77,0,9,3.3t3.22,9.1V1123H1226a7.12,7.12,0,0,0,1.88,5,6.59,6.59,0,0,0,4.93,1.78,20.61,20.61,0,0,0,4.66-.51,24,24,0,0,0,4.59-1.63v5.76a17.51,17.51,0,0,1-4.18,1.45A26.05,26.05,0,0,1,1232.49,1135.29Zm-1-23a4.75,4.75,0,0,0-3.72,1.5,7,7,0,0,0-1.53,4.26h10.45a6.23,6.23,0,0,0-1.45-4.26A4.86,4.86,0,0,0,1231.45,1112.29Z"/><path class="cls-1" d="M33,1383.24q0,5.76-3.6,8.81t-10.24,3H15.93v12.7H8.37v-35.7h11.4q6.5,0,9.87,2.8C31.9,1376.76,33,1379.54,33,1383.24Zm-17.09,5.66h2.49a8.31,8.31,0,0,0,5.23-1.38,4.84,4.84,0,0,0,1.73-4,5,5,0,0,0-1.45-3.94,6.85,6.85,0,0,0-4.55-1.26H15.93Z"/><path class="cls-1" d="M64,1394.1q0,6.68-3.51,10.43t-9.79,3.76a13.76,13.76,0,0,1-6.94-1.72,11.45,11.45,0,0,1-4.61-5,16.53,16.53,0,0,1-1.61-7.52q0-6.69,3.49-10.4c2.32-2.47,5.6-3.71,9.81-3.71a13.81,13.81,0,0,1,6.94,1.71,11.41,11.41,0,0,1,4.61,4.91A16.5,16.5,0,0,1,64,1394.1Zm-18.87,0a11.43,11.43,0,0,0,1.33,6.13,4.77,4.77,0,0,0,4.33,2.08,4.68,4.68,0,0,0,4.29-2.07,11.62,11.62,0,0,0,1.3-6.14,11.37,11.37,0,0,0-1.31-6.08,4.77,4.77,0,0,0-4.33-2,4.75,4.75,0,0,0-4.29,2Q45.11,1390,45.11,1394.1Z"/><path class="cls-1" d="M81.63,1402.35a16.12,16.12,0,0,0,4.69-.85V1407a16.72,16.72,0,0,1-6.84,1.25c-3,0-5.14-.76-6.5-2.26s-2-3.77-2-6.78v-13.16H67.37v-3.15l4.11-2.49,2.14-5.76h4.77v5.81H86v5.59H78.39v13.16a2.91,2.91,0,0,0,.89,2.35A3.52,3.52,0,0,0,81.63,1402.35Z"/><path class="cls-1" d="M104.19,1408.29q-6.59,0-10.3-3.64t-3.71-10.3q0-6.87,3.43-10.61c2.28-2.5,5.45-3.75,9.48-3.75q5.79,0,9,3.3t3.22,9.1V1396H97.72a7.17,7.17,0,0,0,1.88,5,6.61,6.61,0,0,0,4.93,1.78,20.63,20.63,0,0,0,4.67-.51,24,24,0,0,0,4.59-1.63v5.76a17.82,17.82,0,0,1-4.18,1.45A26.12,26.12,0,0,1,104.19,1408.29Zm-1-23a4.73,4.73,0,0,0-3.71,1.5,6.91,6.91,0,0,0-1.54,4.26h10.45a6.18,6.18,0,0,0-1.44-4.26A4.88,4.88,0,0,0,103.14,1385.29Z"/><path class="cls-1" d="M146.57,1407.8h-7.44v-15.94a7.7,7.7,0,0,0-1-4.44,3.84,3.84,0,0,0-3.35-1.47,5,5,0,0,0-4.51,2.08c-.93,1.4-1.4,3.7-1.4,6.93v12.84h-7.44v-27.3h5.69l1,3.49h.41a8,8,0,0,1,3.43-3,11.8,11.8,0,0,1,5-1c3.18,0,5.58.86,7.23,2.58s2.46,4.19,2.46,7.43Z"/><path class="cls-1" d="M165.74,1402.35a16.17,16.17,0,0,0,4.69-.85V1407a16.75,16.75,0,0,1-6.84,1.25c-3,0-5.15-.76-6.51-2.26s-2-3.77-2-6.78v-13.16h-3.57v-3.15l4.1-2.49,2.15-5.76h4.76v5.81h7.64v5.59h-7.64v13.16a2.94,2.94,0,0,0,.89,2.35A3.55,3.55,0,0,0,165.74,1402.35Z"/><path class="cls-1" d="M175.63,1373.45q0-3.65,4.05-3.64t4,3.64a3.59,3.59,0,0,1-1,2.7,4.28,4.28,0,0,1-3,1Q175.63,1377.11,175.63,1373.45Zm7.76,34.35h-7.45v-27.3h7.45Z"/><path class="cls-1" d="M208.54,1407.8l-1.44-3.71h-.2a10.91,10.91,0,0,1-3.87,3.28,12.5,12.5,0,0,1-5.19.92,8.39,8.39,0,0,1-6.19-2.25,8.65,8.65,0,0,1-2.25-6.4c0-2.89,1-5,3-6.4s5.08-2.14,9.16-2.29l4.74-.14v-1.2q0-4.15-4.25-4.15a19.36,19.36,0,0,0-7.69,2l-2.46-5a22.09,22.09,0,0,1,10.44-2.47c3.67,0,6.47.8,8.43,2.39s2.93,4,2.93,7.28v18.19Zm-2.2-12.65-2.88.1a9.35,9.35,0,0,0-4.84,1.17,3.7,3.7,0,0,0-1.58,3.27q0,3.15,3.61,3.15a5.68,5.68,0,0,0,4.14-1.49,5.23,5.23,0,0,0,1.55-3.95Z"/><path class="cls-1" d="M228.85,1407.8H221.4v-38h7.45Z"/><path class="cls-1" d="M264.74,1386.09h-6.45v21.71h-7.44v-21.71h-4.11v-3.59l4.11-2v-2q0-4.66,2.29-6.81t7.35-2.15a19,19,0,0,1,6.86,1.15l-1.9,5.47a14,14,0,0,0-4.15-.71,2.68,2.68,0,0,0-2.3.94,3.91,3.91,0,0,0-.71,2.4v1.71h6.45Z"/><path class="cls-1" d="M293.82,1394.1q0,6.68-3.52,10.43t-9.79,3.76a13.75,13.75,0,0,1-6.93-1.72,11.47,11.47,0,0,1-4.62-5,16.66,16.66,0,0,1-1.61-7.52q0-6.69,3.49-10.4t9.82-3.71a13.75,13.75,0,0,1,6.93,1.71,11.41,11.41,0,0,1,4.61,4.91A16.37,16.37,0,0,1,293.82,1394.1Zm-18.88,0a11.53,11.53,0,0,0,1.33,6.13,4.79,4.79,0,0,0,4.34,2.08,4.67,4.67,0,0,0,4.28-2.07,11.61,11.61,0,0,0,1.31-6.14,11.27,11.27,0,0,0-1.32-6.08,5.62,5.62,0,0,0-8.62,0Q274.94,1390,274.94,1394.1Z"/><path class="cls-1" d="M315.2,1380a11.84,11.84,0,0,1,2.52.22l-.56,7a8.75,8.75,0,0,0-2.2-.24,7.91,7.91,0,0,0-5.56,1.83,6.64,6.64,0,0,0-2,5.13v13.89H300v-27.3h5.64l1.1,4.59h.36a10.33,10.33,0,0,1,3.43-3.7A8.51,8.51,0,0,1,315.2,1380Z"/><path class="cls-1" d="M336.25,1407.8v-35.7h7.57v29.45h14.47v6.25Z"/><path class="cls-1" d="M376.26,1408.29q-6.58,0-10.3-3.64t-3.71-10.3q0-6.87,3.43-10.61c2.28-2.5,5.45-3.75,9.48-3.75q5.79,0,9,3.3t3.22,9.1V1396h-17.6a7.17,7.17,0,0,0,1.88,5,6.61,6.61,0,0,0,4.93,1.78,20.63,20.63,0,0,0,4.67-.51,24,24,0,0,0,4.59-1.63v5.76a17.82,17.82,0,0,1-4.18,1.45A26.12,26.12,0,0,1,376.26,1408.29Zm-1.05-23a4.73,4.73,0,0,0-3.71,1.5,7,7,0,0,0-1.54,4.26h10.45a6.18,6.18,0,0,0-1.44-4.26A4.88,4.88,0,0,0,375.21,1385.29Z"/><path class="cls-1" d="M410.78,1407.8l-1.44-3.71h-.19a11.08,11.08,0,0,1-3.87,3.28,12.53,12.53,0,0,1-5.19.92,8.39,8.39,0,0,1-6.19-2.25,8.62,8.62,0,0,1-2.26-6.4,7.2,7.2,0,0,1,3-6.4c2-1.38,5.08-2.14,9.17-2.29l4.74-.14v-1.2q0-4.15-4.25-4.15a19.32,19.32,0,0,0-7.69,2l-2.47-5a22.13,22.13,0,0,1,10.45-2.47q5.49,0,8.42,2.39c2,1.6,2.93,4,2.93,7.28v18.19Zm-2.19-12.65-2.89.1a9.34,9.34,0,0,0-4.83,1.17,3.69,3.69,0,0,0-1.59,3.27q0,3.15,3.62,3.15a5.72,5.72,0,0,0,4.14-1.49,5.23,5.23,0,0,0,1.55-3.95Z"/><path class="cls-1" d="M430.8,1393l3.25-4.15,7.64-8.3h8.4l-10.84,11.84,11.5,15.46h-8.59l-7.87-11.06-3.19,2.56v8.5h-7.45v-38h7.45v16.94l-.4,6.2Z"/><path class="cls-1" d="M473.7,1399.69a7.52,7.52,0,0,1-2.92,6.4c-1.94,1.46-4.85,2.2-8.73,2.2a27.29,27.29,0,0,1-5.08-.41,19.32,19.32,0,0,1-3.93-1.18v-6.15a26.42,26.42,0,0,0,4.68,1.63,18.89,18.89,0,0,0,4.58.66q4.05,0,4.05-2.34a2,2,0,0,0-.54-1.43,7.81,7.81,0,0,0-1.85-1.25c-.88-.46-2-1-3.52-1.62a22.26,22.26,0,0,1-4.63-2.44,6.83,6.83,0,0,1-2.14-2.58,8.42,8.42,0,0,1-.68-3.57,6.49,6.49,0,0,1,2.82-5.63q2.82-2,8-2a22.75,22.75,0,0,1,9.6,2.15l-2.25,5.37a40.07,40.07,0,0,0-3.83-1.44,12.18,12.18,0,0,0-3.64-.56c-2.2,0-3.3.59-3.3,1.78a2.09,2.09,0,0,0,1.06,1.73,28.51,28.51,0,0,0,4.66,2.18,21.36,21.36,0,0,1,4.68,2.41,7.14,7.14,0,0,1,2.2,2.59A8,8,0,0,1,473.7,1399.69Z"/><rect class="cls-2" x="68.24" y="312.83" width="346" height="53" rx="12.73" ry="12.73"/><rect class="cls-3" x="29.99" y="4.83" width="420" height="337.25" rx="29.18" ry="29.18"/><circle class="cls-4" cx="239.54" cy="204.69" r="95.86"/><line class="cls-5" x1="240.43" y1="109.72" x2="239.54" y2="302.33"/><line class="cls-5" x1="336.29" y1="206.47" x2="143.68" y2="205.58"/><line class="cls-5" x1="307.77" y1="274.44" x2="172.2" y2="137.61"/><line class="cls-5" x1="308.4" y1="138.24" x2="171.58" y2="273.81"/><circle class="cls-4" cx="239.54" cy="204.69" r="38.61"/><path d="M198.33,36.1H206L193.84,71.8h-8.25L173.48,36.1h7.64l6.71,21.24c.38,1.26.76,2.72,1.16,4.39s.65,2.83.75,3.48a63.15,63.15,0,0,1,1.83-7.87Z"/><path d="M227.21,71.8l-1.44-3.71h-.19a11.08,11.08,0,0,1-3.87,3.28,12.53,12.53,0,0,1-5.19.92A8.39,8.39,0,0,1,210.33,70a8.66,8.66,0,0,1-2.26-6.4,7.2,7.2,0,0,1,3-6.4c2-1.38,5.08-2.14,9.17-2.29l4.74-.14v-1.2q0-4.15-4.25-4.15a19.32,19.32,0,0,0-7.69,2l-2.47-5a22.13,22.13,0,0,1,10.45-2.47q5.49,0,8.42,2.39c2,1.6,2.93,4,2.93,7.28V71.8ZM225,59.15l-2.88.1a9.35,9.35,0,0,0-4.84,1.17,3.69,3.69,0,0,0-1.59,3.27q0,3.15,3.62,3.15a5.72,5.72,0,0,0,4.14-1.49A5.23,5.23,0,0,0,225,61.4Z"/><path d="M259.42,71.8l-1-3.49H258a7.76,7.76,0,0,1-3.39,2.94,11.58,11.58,0,0,1-5,1q-4.81,0-7.26-2.58c-1.62-1.72-2.44-4.19-2.44-7.41V44.5h7.45v16a7.68,7.68,0,0,0,1.05,4.43,3.82,3.82,0,0,0,3.34,1.47,5,5,0,0,0,4.52-2.08c.93-1.4,1.39-3.7,1.39-6.93V44.5h7.45V71.8Z"/><path d="M280.39,71.8h-7.45v-38h7.45Z"/><path d="M299.7,66.35a16.17,16.17,0,0,0,4.69-.85V71a16.75,16.75,0,0,1-6.84,1.25c-3,0-5.15-.76-6.51-2.26s-2-3.77-2-6.78V50.09h-3.57V46.94l4.1-2.49,2.15-5.76h4.76V44.5h7.64v5.59h-7.64V63.25a2.94,2.94,0,0,0,.89,2.35A3.55,3.55,0,0,0,299.7,66.35Z"/><path class="cls-6" d="M836.2,971.39a27.54,27.54,0,0,1-27.52-27.52V865.18a27.37,27.37,0,0,1,17.71-25.74V821.7a37.91,37.91,0,0,1,37.87-37.87h23.8a37.91,37.91,0,0,1,37.86,37.87V840a27.36,27.36,0,0,1,16.49,25.23v78.69a27.55,27.55,0,0,1-27.52,27.52Zm39.34-87.49a8,8,0,0,0-7.95,8,7.86,7.86,0,0,0,3.33,6.45l4,2.87-.76,4.87,0,.19v17.89a1,1,0,0,0,1,1h.74a1,1,0,0,0,1-1V906.2s-.79-5-.79-5l4-2.87a7.86,7.86,0,0,0,3.33-6.45A8,8,0,0,0,875.54,883.9Zm22.3-46.24v-16a9.8,9.8,0,0,0-9.78-9.79h-23.8a9.8,9.8,0,0,0-9.78,9.79v16Z"/><path class="cls-7" d="M888.06,791.83a29.9,29.9,0,0,1,29.86,29.87v24.2a19.53,19.53,0,0,1,16.49,19.28v78.69a19.52,19.52,0,0,1-19.52,19.52H836.2a19.52,19.52,0,0,1-19.52-19.52V865.18a19.51,19.51,0,0,1,17.71-19.43v-24a29.9,29.9,0,0,1,29.87-29.87h23.8m-41.58,53.83h59.36v-24a17.81,17.81,0,0,0-17.78-17.79h-23.8a17.8,17.8,0,0,0-17.78,17.79v24m28.69,87.5h.74a9,9,0,0,0,9-9V906.2a9.34,9.34,0,0,0-.12-1.4,16,16,0,1,0-18.58,0,9.34,9.34,0,0,0-.12,1.4v17.92a9,9,0,0,0,9,9m12.89-157.33h-23.8a45.92,45.92,0,0,0-45.87,45.87v12.74a35.54,35.54,0,0,0-17.71,30.74v78.69a35.55,35.55,0,0,0,35.52,35.52h78.69a35.56,35.56,0,0,0,35.52-35.52V865.18a35.5,35.5,0,0,0-16.49-30V821.7a45.91,45.91,0,0,0-45.86-45.87Zm-25.58,53.83v-8a1.81,1.81,0,0,1,1.78-1.79h23.8a1.81,1.81,0,0,1,1.78,1.79v8Z"/><line class="cls-8" x1="241.74" y1="396.33" x2="241.74" y2="397.93"/><line class="cls-9" x1="241.73" y1="399.53" x2="241.31" y2="604.98"/><line class="cls-8" x1="241.31" y1="605.78" x2="241.31" y2="607.38"/><polygon class="cls-10" points="220.97 591.89 241.32 600.59 261.71 591.98 241.24 640.22 220.97 591.89"/><line class="cls-11" x1="241.74" y1="1101.33" x2="241.74" y2="1102.93"/><line class="cls-12" x1="241.73" y1="1104.53" x2="241.31" y2="1309.98"/><line class="cls-11" x1="241.31" y1="1310.78" x2="241.31" y2="1312.38"/><polygon class="cls-1" points="220.97 1296.89 241.32 1305.59 261.71 1296.98 241.24 1345.22 220.97 1296.89"/><line class="cls-8" x1="543.55" y1="888.02" x2="545.15" y2="888.03"/><line class="cls-9" x1="546.75" y1="888.03" x2="752.2" y2="888.45"/><line class="cls-8" x1="753" y1="888.45" x2="754.6" y2="888.46"/><polygon class="cls-10" points="739.11 908.79 747.81 888.44 739.2 868.06 787.43 888.52 739.11 908.79"/><polygon class="cls-7" points="225.24 461.83 263.24 501.71 263.24 544.83 214.24 498.48 225.24 461.83"/><path class="cls-2" d="M302.09,523.93a5.5,5.5,0,0,0-7.78,0l-11.49,11.49-8.13-8.13L294,508a5.5,5.5,0,0,0-7.78-7.78l-19.27,19.27L217.44,470a33.24,33.24,0,1,0-7.78,7.78l81.65,81.64a5.5,5.5,0,0,0,7.77-7.78l-8.48-8.48,11.49-11.49A5.5,5.5,0,0,0,302.09,523.93ZM174.63,466.48a22.25,22.25,0,1,1,31.47,0A22.29,22.29,0,0,1,174.63,466.48Z"/><polygon class="cls-7" points="228.24 1179.83 266.24 1219.71 266.24 1262.83 217.24 1216.48 228.24 1179.83"/><circle class="cls-7" cx="186.37" cy="1161.74" r="27.75"/><path class="cls-2" d="M162.86,1185.25a33.25,33.25,0,1,1,47,0A33.27,33.27,0,0,1,162.86,1185.25ZM202.1,1146a22.25,22.25,0,1,0,0,31.47A22.29,22.29,0,0,0,202.1,1146Z"/><path class="cls-2" d="M287.31,1270.46l-84.15-84.14a5.5,5.5,0,1,1,7.78-7.78l84.14,84.14a5.5,5.5,0,1,1-7.77,7.78Z"/><path class="cls-2" d="M277.58,1255.43a5.5,5.5,0,0,1,0-7.77l12.73-12.73a5.5,5.5,0,0,1,7.78,7.78l-12.73,12.72A5.5,5.5,0,0,1,277.58,1255.43Z"/><path class="cls-2" d="M261.67,1239.53a5.52,5.52,0,0,1,0-7.78l20.51-20.51A5.5,5.5,0,0,1,290,1219l-20.51,20.51A5.52,5.52,0,0,1,261.67,1239.53Z"/><rect class="cls-13" x="4.74" y="666.33" width="480.82" height="365.5" rx="22.32" ry="22.32"/><line class="cls-14" x1="4.74" y1="740.33" x2="487.24" y2="740.33"/><circle class="cls-2" cx="44.74" cy="702.33" r="8.5"/><circle class="cls-2" cx="68.62" cy="702.33" r="8.5"/><circle class="cls-2" cx="92.5" cy="702.33" r="8.5"/><rect class="cls-15" x="32.74" y="769.33" width="205.86" height="14"/><rect class="cls-10" x="244.44" y="769.33" width="68.97" height="14"/><rect class="cls-10" x="319.78" y="769.33" width="25.47" height="14"/><rect class="cls-10" x="350.55" y="769.33" width="98.69" height="14"/><rect class="cls-10" x="298.56" y="794.53" width="97.68" height="14" transform="translate(694.79 1603.06) rotate(180)"/><rect class="cls-15" x="223.74" y="794.53" width="68.97" height="14" transform="translate(516.46 1603.06) rotate(180)"/><rect class="cls-10" x="191.91" y="794.53" width="25.47" height="14" transform="translate(409.29 1603.06) rotate(180)"/><rect class="cls-10" x="32.74" y="794.53" width="153.87" height="14" transform="translate(219.34 1603.06) rotate(180)"/><rect class="cls-15" x="32.74" y="819.73" width="205.86" height="14"/><rect class="cls-10" x="244.44" y="819.73" width="68.97" height="14"/><rect class="cls-10" x="319.78" y="819.73" width="25.47" height="14"/><rect class="cls-10" x="32.74" y="844.93" width="205.86" height="14"/><rect class="cls-10" x="244.44" y="844.93" width="68.97" height="14"/><rect class="cls-15" x="319.78" y="844.93" width="25.47" height="14"/><rect class="cls-15" x="350.55" y="844.93" width="98.69" height="14"/><rect class="cls-10" x="32.74" y="870.13" width="205.86" height="14"/><rect class="cls-10" x="244.44" y="870.13" width="68.97" height="14"/><rect class="cls-10" x="319.78" y="870.13" width="25.47" height="14"/><rect class="cls-10" x="223.74" y="895.33" width="181.99" height="14" transform="translate(629.48 1804.66) rotate(180)"/><rect class="cls-15" x="191.91" y="895.33" width="25.47" height="14" transform="translate(409.29 1804.66) rotate(180)"/><rect class="cls-15" x="32.74" y="895.33" width="153.87" height="14" transform="translate(219.34 1804.66) rotate(180)"/><path d="M219.78,994.8l-2.59-8.5h-13l-2.59,8.5h-8.15L206,959h9.26l12.64,35.84ZM215.38,980q-3.58-11.54-4-13.06c-.3-1-.51-1.8-.64-2.39q-.81,3.12-4.62,15.45Z"/><path d="M246.83,995.29a9.06,9.06,0,0,1-7.54-3.49h-.39c.26,2.27.39,3.59.39,4v11.06h-7.45V967.5h6l1.05,3.54h.35a8.61,8.61,0,0,1,7.74-4,8.85,8.85,0,0,1,7.56,3.74q2.75,3.74,2.74,10.37a20.51,20.51,0,0,1-1.28,7.59,10.73,10.73,0,0,1-3.65,4.91A9.33,9.33,0,0,1,246.83,995.29ZM244.63,973a4.71,4.71,0,0,0-4,1.69c-.84,1.14-1.28,3-1.31,5.61v.8q0,4.4,1.3,6.3a4.66,4.66,0,0,0,4.14,1.91q5,0,5-8.26a11.79,11.79,0,0,0-1.24-6A4.21,4.21,0,0,0,244.63,973Z"/><path d="M278.47,995.29a9.06,9.06,0,0,1-7.54-3.49h-.39c.26,2.27.39,3.59.39,4v11.06h-7.45V967.5h6l1.05,3.54h.35a8.61,8.61,0,0,1,7.74-4,8.85,8.85,0,0,1,7.56,3.74Q289,974.47,289,981.1a20.51,20.51,0,0,1-1.28,7.59A10.66,10.66,0,0,1,284,993.6,9.33,9.33,0,0,1,278.47,995.29ZM276.27,973a4.71,4.71,0,0,0-4,1.69c-.84,1.14-1.28,3-1.31,5.61v.8q0,4.4,1.3,6.3a4.66,4.66,0,0,0,4.14,1.91q5,0,5-8.26a11.79,11.79,0,0,0-1.24-6A4.21,4.21,0,0,0,276.27,973Z"/></svg>